%TF.GenerationSoftware,KiCad,Pcbnew,8.0.3*%
%TF.CreationDate,2024-07-01T13:41:45+02:00*%
%TF.ProjectId,ESP8266,45535038-3236-4362-9e6b-696361645f70,rev?*%
%TF.SameCoordinates,Original*%
%TF.FileFunction,Copper,L1,Top*%
%TF.FilePolarity,Positive*%
%FSLAX46Y46*%
G04 Gerber Fmt 4.6, Leading zero omitted, Abs format (unit mm)*
G04 Created by KiCad (PCBNEW 8.0.3) date 2024-07-01 13:41:45*
%MOMM*%
%LPD*%
G01*
G04 APERTURE LIST*
G04 Aperture macros list*
%AMRoundRect*
0 Rectangle with rounded corners*
0 $1 Rounding radius*
0 $2 $3 $4 $5 $6 $7 $8 $9 X,Y pos of 4 corners*
0 Add a 4 corners polygon primitive as box body*
4,1,4,$2,$3,$4,$5,$6,$7,$8,$9,$2,$3,0*
0 Add four circle primitives for the rounded corners*
1,1,$1+$1,$2,$3*
1,1,$1+$1,$4,$5*
1,1,$1+$1,$6,$7*
1,1,$1+$1,$8,$9*
0 Add four rect primitives between the rounded corners*
20,1,$1+$1,$2,$3,$4,$5,0*
20,1,$1+$1,$4,$5,$6,$7,0*
20,1,$1+$1,$6,$7,$8,$9,0*
20,1,$1+$1,$8,$9,$2,$3,0*%
G04 Aperture macros list end*
%TA.AperFunction,SMDPad,CuDef*%
%ADD10RoundRect,0.237500X-0.300000X-0.237500X0.300000X-0.237500X0.300000X0.237500X-0.300000X0.237500X0*%
%TD*%
%TA.AperFunction,ComponentPad*%
%ADD11R,1.700000X1.700000*%
%TD*%
%TA.AperFunction,ComponentPad*%
%ADD12O,1.700000X1.700000*%
%TD*%
%TA.AperFunction,SMDPad,CuDef*%
%ADD13RoundRect,0.250000X0.362500X0.700000X-0.362500X0.700000X-0.362500X-0.700000X0.362500X-0.700000X0*%
%TD*%
%TA.AperFunction,SMDPad,CuDef*%
%ADD14RoundRect,0.062500X0.062500X-0.375000X0.062500X0.375000X-0.062500X0.375000X-0.062500X-0.375000X0*%
%TD*%
%TA.AperFunction,SMDPad,CuDef*%
%ADD15RoundRect,0.062500X0.375000X-0.062500X0.375000X0.062500X-0.375000X0.062500X-0.375000X-0.062500X0*%
%TD*%
%TA.AperFunction,HeatsinkPad*%
%ADD16R,3.450000X3.450000*%
%TD*%
%TA.AperFunction,SMDPad,CuDef*%
%ADD17RoundRect,0.237500X-0.237500X0.300000X-0.237500X-0.300000X0.237500X-0.300000X0.237500X0.300000X0*%
%TD*%
%TA.AperFunction,SMDPad,CuDef*%
%ADD18RoundRect,0.150000X-0.825000X-0.150000X0.825000X-0.150000X0.825000X0.150000X-0.825000X0.150000X0*%
%TD*%
%TA.AperFunction,SMDPad,CuDef*%
%ADD19RoundRect,0.250000X-0.350000X-0.450000X0.350000X-0.450000X0.350000X0.450000X-0.350000X0.450000X0*%
%TD*%
%TA.AperFunction,SMDPad,CuDef*%
%ADD20R,0.800000X1.050000*%
%TD*%
%TA.AperFunction,SMDPad,CuDef*%
%ADD21RoundRect,0.250000X-0.362500X-0.700000X0.362500X-0.700000X0.362500X0.700000X-0.362500X0.700000X0*%
%TD*%
%TA.AperFunction,ViaPad*%
%ADD22C,0.600000*%
%TD*%
%TA.AperFunction,Conductor*%
%ADD23C,0.200000*%
%TD*%
G04 APERTURE END LIST*
D10*
%TO.P,C5,1*%
%TO.N,+3.3V*%
X125637500Y-89000000D03*
%TO.P,C5,2*%
%TO.N,GND*%
X127362500Y-89000000D03*
%TD*%
%TO.P,C4,1*%
%TO.N,+3.3V*%
X125637500Y-85000000D03*
%TO.P,C4,2*%
%TO.N,GND*%
X127362500Y-85000000D03*
%TD*%
%TO.P,C1,1*%
%TO.N,GND*%
X121000000Y-102500000D03*
%TO.P,C1,2*%
%TO.N,Net-(U1-XTAL_IN)*%
X122725000Y-102500000D03*
%TD*%
D11*
%TO.P,J1,1,Pin_1*%
%TO.N,+3.3V*%
X115000000Y-103160000D03*
D12*
%TO.P,J1,2,Pin_2*%
%TO.N,/RST*%
X115000000Y-100620000D03*
%TO.P,J1,3,Pin_3*%
%TO.N,/U0RXD*%
X115000000Y-98080000D03*
%TO.P,J1,4,Pin_4*%
%TO.N,/U0TXD*%
X115000000Y-95540000D03*
%TO.P,J1,5,Pin_5*%
%TO.N,/ADC_IN*%
X115000000Y-93000000D03*
%TO.P,J1,6,Pin_6*%
%TO.N,/CHIP_EN*%
X115000000Y-90460000D03*
%TO.P,J1,7,Pin_7*%
%TO.N,/GPIO16*%
X115000000Y-87920000D03*
%TO.P,J1,8,Pin_8*%
%TO.N,/GPI05*%
X115000000Y-85380000D03*
%TO.P,J1,9,Pin_9*%
%TO.N,GND*%
X115000000Y-82840000D03*
%TD*%
D13*
%TO.P,L1,1,1*%
%TO.N,GND*%
X136462500Y-109500000D03*
%TO.P,L1,2,2*%
%TO.N,/ANT*%
X133137500Y-109500000D03*
%TD*%
D14*
%TO.P,U1,1,VDDA*%
%TO.N,+3.3V*%
X127000000Y-101500000D03*
%TO.P,U1,2,LNA*%
%TO.N,Net-(U1-LNA)*%
X127500000Y-101500000D03*
%TO.P,U1,3,VDD3P3*%
%TO.N,+3.3V*%
X128000000Y-101500000D03*
%TO.P,U1,4,VDD3P3*%
X128500000Y-101500000D03*
%TO.P,U1,5,VDD_RTC*%
%TO.N,GND*%
X129000000Y-101500000D03*
%TO.P,U1,6,TOUT*%
%TO.N,/ADC_IN*%
X129500000Y-101500000D03*
%TO.P,U1,7,CHIP_EN*%
%TO.N,/CHIP_EN*%
X130000000Y-101500000D03*
%TO.P,U1,8,XPD_DCDC*%
%TO.N,/GPIO16*%
X130500000Y-101500000D03*
D15*
%TO.P,U1,9,MTMS*%
%TO.N,/GPIO14*%
X131187500Y-100812500D03*
%TO.P,U1,10,MTDI*%
%TO.N,/GPIO12*%
X131187500Y-100312500D03*
%TO.P,U1,11,VDDPST*%
%TO.N,+3.3V*%
X131187500Y-99812500D03*
%TO.P,U1,12,MTCK*%
%TO.N,/GPIO13*%
X131187500Y-99312500D03*
%TO.P,U1,13,MTDO*%
%TO.N,/GPIO15*%
X131187500Y-98812500D03*
%TO.P,U1,14,GPIO2*%
%TO.N,/GPIO2*%
X131187500Y-98312500D03*
%TO.P,U1,15,GPIO0*%
%TO.N,/GPIO0*%
X131187500Y-97812500D03*
%TO.P,U1,16,GPIO4*%
%TO.N,/GPIO4*%
X131187500Y-97312500D03*
D14*
%TO.P,U1,17,VDDPST*%
%TO.N,+3.3V*%
X130500000Y-96625000D03*
%TO.P,U1,18,SDIO_DATA_2*%
%TO.N,/SD_D2*%
X130000000Y-96625000D03*
%TO.P,U1,19,SDIO_DATA_3*%
%TO.N,/SD_D3*%
X129500000Y-96625000D03*
%TO.P,U1,20,SD_CMD*%
%TO.N,/SD_CMD*%
X129000000Y-96625000D03*
%TO.P,U1,21,SD_CLK*%
%TO.N,Net-(U1-SD_CLK)*%
X128500000Y-96625000D03*
%TO.P,U1,22,SDIO_DATA_0*%
%TO.N,/SD_D0*%
X128000000Y-96625000D03*
%TO.P,U1,23,SDIO_DATA_1*%
%TO.N,/SD_D1*%
X127500000Y-96625000D03*
%TO.P,U1,24,GPIO5*%
%TO.N,/GPI05*%
X127000000Y-96625000D03*
D15*
%TO.P,U1,25,U0RXD*%
%TO.N,/U0RXD*%
X126312500Y-97312500D03*
%TO.P,U1,26,U0TXD*%
%TO.N,/U0TXD*%
X126312500Y-97812500D03*
%TO.P,U1,27,XTAL_OUT*%
%TO.N,Net-(U1-XTAL_OUT)*%
X126312500Y-98312500D03*
%TO.P,U1,28,XTAL_IN*%
%TO.N,Net-(U1-XTAL_IN)*%
X126312500Y-98812500D03*
%TO.P,U1,29,VDDD*%
%TO.N,+3.3V*%
X126312500Y-99312500D03*
%TO.P,U1,30,VDDA*%
X126312500Y-99812500D03*
%TO.P,U1,31,RES12K*%
%TO.N,Net-(U1-RES12K)*%
X126312500Y-100312500D03*
%TO.P,U1,32,~{EXT_RSTB}*%
%TO.N,/RST*%
X126312500Y-100812500D03*
D16*
%TO.P,U1,33,GND*%
%TO.N,GND*%
X128750000Y-99062500D03*
%TD*%
D10*
%TO.P,C2,1*%
%TO.N,GND*%
X120275000Y-96000000D03*
%TO.P,C2,2*%
%TO.N,Net-(U1-XTAL_OUT)*%
X122000000Y-96000000D03*
%TD*%
%TO.P,C6,1*%
%TO.N,Net-(U1-LNA)*%
X129137500Y-109500000D03*
%TO.P,C6,2*%
%TO.N,/ANT*%
X130862500Y-109500000D03*
%TD*%
D17*
%TO.P,C3,1*%
%TO.N,+3.3V*%
X130500000Y-82137500D03*
%TO.P,C3,2*%
%TO.N,GND*%
X130500000Y-83862500D03*
%TD*%
D11*
%TO.P,J3,1,Pin_1*%
%TO.N,/ANT*%
X130540000Y-113500000D03*
D12*
%TO.P,J3,2,Pin_2*%
%TO.N,GND*%
X128000000Y-113500000D03*
%TD*%
D18*
%TO.P,U2,1,~{CS}*%
%TO.N,/SD_CMD*%
X131550000Y-87690000D03*
%TO.P,U2,2,DO*%
%TO.N,/SD_D0*%
X131550000Y-88960000D03*
%TO.P,U2,3,~{WP}*%
%TO.N,/SD_D3*%
X131550000Y-90230000D03*
%TO.P,U2,4,GND*%
%TO.N,GND*%
X131550000Y-91500000D03*
%TO.P,U2,5,DI*%
%TO.N,/SD_D1*%
X136500000Y-91500000D03*
%TO.P,U2,6,CLK*%
%TO.N,/SD_CLK*%
X136500000Y-90230000D03*
%TO.P,U2,7,~{HOLD}*%
%TO.N,/SD_D2*%
X136500000Y-88960000D03*
%TO.P,U2,8,VCC*%
%TO.N,+3.3V*%
X136500000Y-87690000D03*
%TD*%
D19*
%TO.P,R2,1*%
%TO.N,/SD_CLK*%
X136500000Y-83500000D03*
%TO.P,R2,2*%
%TO.N,Net-(U1-SD_CLK)*%
X138500000Y-83500000D03*
%TD*%
%TO.P,R1,1*%
%TO.N,GND*%
X125500000Y-93500000D03*
%TO.P,R1,2*%
%TO.N,Net-(U1-RES12K)*%
X127500000Y-93500000D03*
%TD*%
D20*
%TO.P,X1,1,Gnd*%
%TO.N,GND*%
X122300000Y-97975000D03*
%TO.P,X1,2,GND*%
X122300000Y-100625000D03*
%TO.P,X1,3,Xout*%
%TO.N,Net-(U1-XTAL_OUT)*%
X123500000Y-98000000D03*
%TO.P,X1,4,Xin*%
%TO.N,Net-(U1-XTAL_IN)*%
X123400000Y-100600000D03*
%TD*%
D11*
%TO.P,J2,1,Pin_1*%
%TO.N,/GPIO14*%
X142500000Y-103120000D03*
D12*
%TO.P,J2,2,Pin_2*%
%TO.N,/GPIO12*%
X142500000Y-100580000D03*
%TO.P,J2,3,Pin_3*%
%TO.N,/GPIO13*%
X142500000Y-98040000D03*
%TO.P,J2,4,Pin_4*%
%TO.N,/GPIO15*%
X142500000Y-95500000D03*
%TO.P,J2,5,Pin_5*%
%TO.N,/GPIO2*%
X142500000Y-92960000D03*
%TO.P,J2,6,Pin_6*%
%TO.N,/GPIO0*%
X142500000Y-90420000D03*
%TO.P,J2,7,Pin_7*%
%TO.N,/GPIO4*%
X142500000Y-87880000D03*
%TO.P,J2,8,Pin_8*%
%TO.N,GND*%
X142500000Y-85340000D03*
%TO.P,J2,9,Pin_9*%
X142500000Y-82800000D03*
%TD*%
D21*
%TO.P,L2,1,1*%
%TO.N,GND*%
X124837500Y-106500000D03*
%TO.P,L2,2,2*%
%TO.N,Net-(U1-LNA)*%
X128162500Y-106500000D03*
%TD*%
D22*
%TO.N,GND*%
X131500000Y-92500000D03*
X129000000Y-88500000D03*
X125000000Y-91500000D03*
X120000000Y-101000000D03*
X129420101Y-102900000D03*
X138637500Y-107500000D03*
X120500000Y-108500000D03*
X120155735Y-97155735D03*
X131000000Y-85500000D03*
X129000000Y-85500000D03*
%TO.N,/ADC_IN*%
X129500000Y-104000000D03*
%TO.N,/CHIP_EN*%
X126500000Y-104400000D03*
X132250000Y-105250000D03*
%TO.N,/GPIO16*%
X132000000Y-103500000D03*
%TO.N,/U0TXD*%
X118500000Y-97500000D03*
%TO.N,Net-(U1-RES12K)*%
X117500000Y-93000000D03*
X121500000Y-90000000D03*
%TO.N,Net-(U1-SD_CLK)*%
X139500000Y-92500000D03*
X136087108Y-95141422D03*
X139000000Y-90000000D03*
X134000000Y-93998114D03*
%TO.N,/SD_D3*%
X132000000Y-94500000D03*
X133500000Y-92798114D03*
%TO.N,/SD_D0*%
X129500000Y-90000000D03*
X129500000Y-94000000D03*
%TO.N,/SD_CMD*%
X130100000Y-92798114D03*
X131000000Y-94500000D03*
%TO.N,+3.3V*%
X125000000Y-83500000D03*
X128000000Y-82500000D03*
X131000000Y-107000000D03*
X134023198Y-96562466D03*
X124000000Y-103500000D03*
X125000000Y-87500000D03*
X126899681Y-102800000D03*
X133500000Y-100000000D03*
%TD*%
D23*
%TO.N,Net-(U1-XTAL_IN)*%
X125187500Y-98812500D02*
X126312500Y-98812500D01*
X123400000Y-100600000D02*
X125187500Y-98812500D01*
X123400000Y-100600000D02*
X123400000Y-101825000D01*
X123400000Y-101825000D02*
X122725000Y-102500000D01*
%TO.N,GND*%
X121000000Y-102500000D02*
X121000000Y-101925000D01*
X120275000Y-97036470D02*
X120155735Y-97155735D01*
X129000000Y-99312500D02*
X128750000Y-99062500D01*
X121000000Y-101925000D02*
X122300000Y-100625000D01*
X129000000Y-101500000D02*
X129000000Y-99312500D01*
X131550000Y-91500000D02*
X131550000Y-92450000D01*
X127500000Y-100312500D02*
X128750000Y-99062500D01*
X128500000Y-89000000D02*
X129000000Y-88500000D01*
X120000000Y-101000000D02*
X120000000Y-101500000D01*
X128500000Y-85000000D02*
X129000000Y-85500000D01*
X129420101Y-102900000D02*
X129000000Y-102479899D01*
X125500000Y-93500000D02*
X125500000Y-92000000D01*
X124837500Y-106500000D02*
X122837500Y-108500000D01*
X127362500Y-89000000D02*
X128500000Y-89000000D01*
X122250000Y-97975000D02*
X120275000Y-96000000D01*
X127362500Y-85000000D02*
X128500000Y-85000000D01*
X131550000Y-92450000D02*
X131500000Y-92500000D01*
X129000000Y-102479899D02*
X129000000Y-101500000D01*
X125500000Y-92000000D02*
X125000000Y-91500000D01*
X120000000Y-101500000D02*
X121000000Y-102500000D01*
X130500000Y-85000000D02*
X131000000Y-85500000D01*
X122300000Y-97975000D02*
X122250000Y-97975000D01*
X122837500Y-108500000D02*
X120500000Y-108500000D01*
X136462500Y-109500000D02*
X138462500Y-107500000D01*
X130500000Y-83862500D02*
X130500000Y-85000000D01*
X120275000Y-96000000D02*
X120275000Y-97036470D01*
X120275000Y-96000000D02*
X120275000Y-95775000D01*
%TO.N,Net-(U1-XTAL_OUT)*%
X124000000Y-98000000D02*
X124312500Y-98312500D01*
X123500000Y-98000000D02*
X123500000Y-97500000D01*
X123500000Y-97500000D02*
X122000000Y-96000000D01*
X124312500Y-98312500D02*
X126312500Y-98312500D01*
X123500000Y-98000000D02*
X124000000Y-98000000D01*
%TO.N,/ANT*%
X130862500Y-113677500D02*
X130540000Y-114000000D01*
X131040000Y-109677500D02*
X130862500Y-109500000D01*
X130862500Y-109500000D02*
X133137500Y-109500000D01*
%TO.N,/GPIO4*%
X135000000Y-97000000D02*
X134687500Y-97312500D01*
X142500000Y-87880000D02*
X135000000Y-95380000D01*
X135000000Y-95380000D02*
X135000000Y-97000000D01*
X134687500Y-97312500D02*
X131187500Y-97312500D01*
%TO.N,/GPIO14*%
X142500000Y-103120000D02*
X133495000Y-103120000D01*
X133495000Y-103120000D02*
X131187500Y-100812500D01*
%TO.N,/GPIO15*%
X139187500Y-98812500D02*
X131187500Y-98812500D01*
X142500000Y-95500000D02*
X139187500Y-98812500D01*
%TO.N,/GPI05*%
X126245000Y-96625000D02*
X127000000Y-96625000D01*
X115000000Y-85380000D02*
X126245000Y-96625000D01*
%TO.N,/GPIO0*%
X142500000Y-90420000D02*
X135107500Y-97812500D01*
X135107500Y-97812500D02*
X131187500Y-97812500D01*
%TO.N,/GPIO13*%
X141227500Y-99312500D02*
X131187500Y-99312500D01*
X142500000Y-98040000D02*
X141227500Y-99312500D01*
%TO.N,/GPIO12*%
X142080000Y-101000000D02*
X132326886Y-101000000D01*
X142500000Y-100580000D02*
X142080000Y-101000000D01*
X132326886Y-101000000D02*
X131639386Y-100312500D01*
X131639386Y-100312500D02*
X131187500Y-100312500D01*
%TO.N,/ADC_IN*%
X129500000Y-101500000D02*
X129500000Y-102131372D01*
X130100000Y-102731372D02*
X130100000Y-103400000D01*
X130100000Y-103400000D02*
X129500000Y-104000000D01*
X129500000Y-102131372D02*
X130100000Y-102731372D01*
%TO.N,/CHIP_EN*%
X123151470Y-105000000D02*
X125900000Y-105000000D01*
X121651470Y-106500000D02*
X116040000Y-106500000D01*
X113850000Y-91610000D02*
X115000000Y-90460000D01*
X121825735Y-106325735D02*
X121651470Y-106500000D01*
X116040000Y-106500000D02*
X113850000Y-104310000D01*
X121825735Y-106325735D02*
X123151470Y-105000000D01*
X113850000Y-104310000D02*
X113850000Y-91610000D01*
X130000000Y-102065686D02*
X130000000Y-101500000D01*
X132250000Y-105250000D02*
X130500000Y-103500000D01*
X125900000Y-105000000D02*
X126500000Y-104400000D01*
X130500000Y-103500000D02*
X130500000Y-102565686D01*
X130500000Y-102565686D02*
X130000000Y-102065686D01*
%TO.N,/U0RXD*%
X116900000Y-91600000D02*
X117500000Y-91000000D01*
X117500000Y-91000000D02*
X120000000Y-91000000D01*
X120000000Y-91000000D02*
X126312500Y-97312500D01*
X115000000Y-98080000D02*
X116900000Y-96180000D01*
X116900000Y-96180000D02*
X116900000Y-91600000D01*
%TO.N,/RST*%
X116150000Y-102010000D02*
X116150000Y-104650000D01*
X116150000Y-104650000D02*
X117500000Y-106000000D01*
X117500000Y-106000000D02*
X121585784Y-106000000D01*
X115000000Y-100620000D02*
X115000000Y-102010000D01*
X125400000Y-103600000D02*
X125400000Y-101725000D01*
X115000000Y-102010000D02*
X116150000Y-102010000D01*
X122985784Y-104600000D02*
X124400000Y-104600000D01*
X125400000Y-101725000D02*
X126312500Y-100812500D01*
X124400000Y-104600000D02*
X125400000Y-103600000D01*
X121585784Y-106000000D02*
X122985784Y-104600000D01*
%TO.N,/GPIO16*%
X130500000Y-102000000D02*
X130500000Y-101500000D01*
X132000000Y-103500000D02*
X130500000Y-102000000D01*
%TO.N,/U0TXD*%
X118500000Y-94500000D02*
X118500000Y-97500000D01*
X121048114Y-93000000D02*
X120000000Y-93000000D01*
X120000000Y-93000000D02*
X118500000Y-94500000D01*
X126312500Y-97812500D02*
X125860614Y-97812500D01*
X125860614Y-97812500D02*
X121048114Y-93000000D01*
%TO.N,/GPIO2*%
X142500000Y-92960000D02*
X137147500Y-98312500D01*
X137147500Y-98312500D02*
X131187500Y-98312500D01*
%TO.N,Net-(U1-RES12K)*%
X124700000Y-90000000D02*
X121500000Y-90000000D01*
X125860614Y-100312500D02*
X126312500Y-100312500D01*
X124234314Y-104200000D02*
X125000000Y-103434314D01*
X127500000Y-93500000D02*
X127500000Y-92800000D01*
X127500000Y-92800000D02*
X124700000Y-90000000D01*
X117500000Y-93000000D02*
X117500000Y-105434314D01*
X125000000Y-101173114D02*
X125860614Y-100312500D01*
X122820098Y-104200000D02*
X124234314Y-104200000D01*
X117500000Y-105434314D02*
X117565686Y-105500000D01*
X125000000Y-103434314D02*
X125000000Y-101173114D01*
X121520098Y-105500000D02*
X122820098Y-104200000D01*
X117565686Y-105500000D02*
X121520098Y-105500000D01*
%TO.N,Net-(U1-SD_CLK)*%
X128500000Y-95216116D02*
X128500000Y-96625000D01*
X139500000Y-92500000D02*
X139000000Y-93000000D01*
X140730000Y-86730000D02*
X138500000Y-84500000D01*
X130201886Y-93798114D02*
X130100000Y-93900000D01*
X129748529Y-94600000D02*
X129400000Y-94600000D01*
X138000000Y-84000000D02*
X139000000Y-83000000D01*
X130100000Y-93900000D02*
X130100000Y-94248529D01*
X134000000Y-93998114D02*
X133800000Y-93798114D01*
X140730000Y-88270000D02*
X139000000Y-90000000D01*
X133800000Y-93798114D02*
X130201886Y-93798114D01*
X130100000Y-94248529D02*
X129748529Y-94600000D01*
X128941851Y-94774265D02*
X128500000Y-95216116D01*
X139000000Y-93000000D02*
X138228530Y-93000000D01*
X138500000Y-84500000D02*
X138500000Y-83500000D01*
X129225735Y-94774265D02*
X128941851Y-94774265D01*
X140730000Y-86730000D02*
X140730000Y-88270000D01*
X138228530Y-93000000D02*
X136087108Y-95141422D01*
X129400000Y-94600000D02*
X129225735Y-94774265D01*
%TO.N,/SD_CLK*%
X135225000Y-89300552D02*
X135225000Y-88619448D01*
X137937776Y-84937776D02*
X136500000Y-83500000D01*
X136154448Y-90230000D02*
X135225000Y-89300552D01*
X136500000Y-90230000D02*
X136154448Y-90230000D01*
X135484448Y-88360000D02*
X137515552Y-88360000D01*
X137515552Y-88360000D02*
X137937776Y-87937776D01*
X135225000Y-88619448D02*
X135484448Y-88360000D01*
X137937776Y-87937776D02*
X137937776Y-84937776D01*
%TO.N,/SD_D1*%
X128400000Y-94184744D02*
X128400000Y-94100000D01*
X134601886Y-93398114D02*
X136500000Y-91500000D01*
X129101886Y-93398114D02*
X134601886Y-93398114D01*
X128084744Y-94500000D02*
X128400000Y-94184744D01*
X127500000Y-95000000D02*
X128000000Y-94500000D01*
X128400000Y-94100000D02*
X129101886Y-93398114D01*
X127500000Y-96625000D02*
X127500000Y-95000000D01*
X128000000Y-94500000D02*
X128084744Y-94500000D01*
%TO.N,/SD_D2*%
X130826886Y-96000000D02*
X133814314Y-96000000D01*
X133814314Y-96000000D02*
X138000000Y-91814314D01*
X130000000Y-96173114D02*
X130285614Y-95887500D01*
X130000000Y-96625000D02*
X130000000Y-96173114D01*
X130714386Y-95887500D02*
X130826886Y-96000000D01*
X137960000Y-88960000D02*
X136500000Y-88960000D01*
X130285614Y-95887500D02*
X130714386Y-95887500D01*
X138000000Y-89000000D02*
X137960000Y-88960000D01*
X138000000Y-91814314D02*
X138000000Y-89000000D01*
%TO.N,/SD_D3*%
X130575001Y-90230000D02*
X131895552Y-90230000D01*
X132000000Y-95000000D02*
X131400000Y-95600000D01*
X132000000Y-94500000D02*
X132000000Y-95000000D01*
X131895552Y-90230000D02*
X133500000Y-91834448D01*
X130880072Y-95487500D02*
X130119928Y-95487500D01*
X131550000Y-90230000D02*
X130575001Y-90230000D01*
X133500000Y-91834448D02*
X133500000Y-92798114D01*
X131400000Y-95600000D02*
X130992572Y-95600000D01*
X130992572Y-95600000D02*
X130880072Y-95487500D01*
X129500000Y-96107428D02*
X129500000Y-96625000D01*
X130119928Y-95487500D02*
X129500000Y-96107428D01*
%TO.N,/SD_D0*%
X128165686Y-94900000D02*
X128000000Y-95065686D01*
X128000000Y-95065686D02*
X128000000Y-96625000D01*
X129500000Y-90000000D02*
X130540000Y-88960000D01*
X128250430Y-94900000D02*
X128165686Y-94900000D01*
X128800000Y-94350430D02*
X128250430Y-94900000D01*
X129065686Y-94000000D02*
X128800000Y-94265686D01*
X129500000Y-94000000D02*
X129065686Y-94000000D01*
X128800000Y-94265686D02*
X128800000Y-94350430D01*
X130540000Y-88960000D02*
X131550000Y-88960000D01*
%TO.N,/SD_CMD*%
X129000000Y-96041743D02*
X129000000Y-96625000D01*
X131550000Y-87690000D02*
X130810000Y-87690000D01*
X130541743Y-94500000D02*
X129000000Y-96041743D01*
X131000000Y-94500000D02*
X130541743Y-94500000D01*
X128900000Y-91598114D02*
X130100000Y-92798114D01*
X130810000Y-87690000D02*
X128900000Y-89600000D01*
X128900000Y-89600000D02*
X128900000Y-91598114D01*
%TO.N,+3.3V*%
X124600000Y-102007428D02*
X124600000Y-101007428D01*
X134000000Y-96539268D02*
X134023198Y-96562466D01*
X125637500Y-84137500D02*
X125000000Y-83500000D01*
X126312500Y-99312500D02*
X126294928Y-99312500D01*
X125794928Y-99812500D02*
X126312500Y-99812500D01*
X128500000Y-101500000D02*
X128500000Y-102500000D01*
X125303714Y-100303714D02*
X125794928Y-99812500D01*
X127000000Y-101500000D02*
X126899681Y-101600319D01*
X134000000Y-96500000D02*
X134000000Y-96539268D01*
X131187500Y-99812500D02*
X133312500Y-99812500D01*
X124000000Y-103500000D02*
X124000000Y-102607428D01*
X128362500Y-82137500D02*
X128000000Y-82500000D01*
X128500000Y-102500000D02*
X128000000Y-103000000D01*
X131000000Y-107000000D02*
X128000000Y-104000000D01*
X130500000Y-82137500D02*
X128362500Y-82137500D01*
X125637500Y-85000000D02*
X125637500Y-84137500D01*
X124600000Y-101007428D02*
X125303714Y-100303714D01*
X128000000Y-104000000D02*
X128000000Y-103000000D01*
X125637500Y-89000000D02*
X125637500Y-88137500D01*
X130500000Y-96625000D02*
X130625000Y-96500000D01*
X126294928Y-99312500D02*
X125303714Y-100303714D01*
X133312500Y-99812500D02*
X133500000Y-100000000D01*
X130947500Y-82137500D02*
X130500000Y-82137500D01*
X124000000Y-102607428D02*
X124600000Y-102007428D01*
X126899681Y-101600319D02*
X126899681Y-102800000D01*
X136500000Y-87690000D02*
X130947500Y-82137500D01*
X128000000Y-101500000D02*
X128000000Y-103000000D01*
X126312500Y-99312500D02*
X126312500Y-99812500D01*
X125637500Y-88137500D02*
X125000000Y-87500000D01*
X130625000Y-96500000D02*
X134000000Y-96500000D01*
%TO.N,Net-(U1-LNA)*%
X129137500Y-109500000D02*
X129137500Y-107475000D01*
X127500000Y-105837500D02*
X127500000Y-101900000D01*
X128162500Y-106500000D02*
X127500000Y-105837500D01*
X129137500Y-107475000D02*
X128162500Y-106500000D01*
%TD*%
D11*
%TO.P,J1,1,Pin_1*%
%TO.N,+3.3V*%
X115000000Y-103160000D03*
D12*
%TO.P,J1,2,Pin_2*%
%TO.N,/RST*%
X115000000Y-100620000D03*
%TO.P,J1,3,Pin_3*%
%TO.N,/U0RXD*%
X115000000Y-98080000D03*
%TO.P,J1,4,Pin_4*%
%TO.N,/U0TXD*%
X115000000Y-95540000D03*
%TO.P,J1,5,Pin_5*%
%TO.N,/ADC_IN*%
X115000000Y-93000000D03*
%TO.P,J1,6,Pin_6*%
%TO.N,/CHIP_EN*%
X115000000Y-90460000D03*
%TO.P,J1,7,Pin_7*%
%TO.N,/GPIO16*%
X115000000Y-87920000D03*
%TO.P,J1,8,Pin_8*%
%TO.N,/GPI05*%
X115000000Y-85380000D03*
%TO.P,J1,9,Pin_9*%
%TO.N,GND*%
X115000000Y-82840000D03*
%TD*%
D11*
%TO.P,J3,1,Pin_1*%
%TO.N,/ANT*%
X130540000Y-113500000D03*
D12*
%TO.P,J3,2,Pin_2*%
%TO.N,GND*%
X128000000Y-113500000D03*
%TD*%
D11*
%TO.P,J2,1,Pin_1*%
%TO.N,/GPIO14*%
X142500000Y-103120000D03*
D12*
%TO.P,J2,2,Pin_2*%
%TO.N,/GPIO12*%
X142500000Y-100580000D03*
%TO.P,J2,3,Pin_3*%
%TO.N,/GPIO13*%
X142500000Y-98040000D03*
%TO.P,J2,4,Pin_4*%
%TO.N,/GPIO15*%
X142500000Y-95500000D03*
%TO.P,J2,5,Pin_5*%
%TO.N,/GPIO2*%
X142500000Y-92960000D03*
%TO.P,J2,6,Pin_6*%
%TO.N,/GPIO0*%
X142500000Y-90420000D03*
%TO.P,J2,7,Pin_7*%
%TO.N,/GPIO4*%
X142500000Y-87880000D03*
%TO.P,J2,8,Pin_8*%
%TO.N,GND*%
X142500000Y-85340000D03*
%TO.P,J2,9,Pin_9*%
X142500000Y-82800000D03*
%TD*%
D22*
%TO.N,GND*%
X131500000Y-92500000D03*
X129000000Y-88500000D03*
X125000000Y-91500000D03*
X120000000Y-101000000D03*
X129420101Y-102900000D03*
X138637500Y-107500000D03*
X120500000Y-108500000D03*
X120155735Y-97155735D03*
X131000000Y-85500000D03*
X129000000Y-85500000D03*
%TO.N,/ADC_IN*%
X129500000Y-104000000D03*
%TO.N,/CHIP_EN*%
X126500000Y-104400000D03*
X132250000Y-105250000D03*
%TO.N,/GPIO16*%
X132000000Y-103500000D03*
%TO.N,/U0TXD*%
X118500000Y-97500000D03*
%TO.N,Net-(U1-RES12K)*%
X117500000Y-93000000D03*
X121500000Y-90000000D03*
%TO.N,Net-(U1-SD_CLK)*%
X139500000Y-92500000D03*
X136087108Y-95141422D03*
X139000000Y-90000000D03*
X134000000Y-93998114D03*
%TO.N,/SD_D3*%
X132000000Y-94500000D03*
X133500000Y-92798114D03*
%TO.N,/SD_D0*%
X129500000Y-90000000D03*
X129500000Y-94000000D03*
%TO.N,/SD_CMD*%
X130100000Y-92798114D03*
X131000000Y-94500000D03*
%TO.N,+3.3V*%
X125000000Y-83500000D03*
X128000000Y-82500000D03*
X131000000Y-107000000D03*
X134023198Y-96562466D03*
X124000000Y-103500000D03*
X125000000Y-87500000D03*
X126899681Y-102800000D03*
X133500000Y-100000000D03*
%TD*%
D23*
%TO.N,/ADC_IN*%
X125485785Y-104000000D02*
X124434314Y-104000000D01*
X119100000Y-97100000D02*
X115000000Y-93000000D01*
X119100000Y-97900000D02*
X119100000Y-97100000D01*
X118500000Y-102500000D02*
X120717157Y-104717157D01*
X118500000Y-98500000D02*
X119100000Y-97900000D01*
X126914215Y-103400000D02*
X126085785Y-103400000D01*
X124434314Y-104000000D02*
X123717157Y-104717157D01*
X126085785Y-103400000D02*
X125485785Y-104000000D01*
X120717157Y-104717157D02*
X123717157Y-104717157D01*
X127514215Y-104000000D02*
X126914215Y-103400000D01*
X118500000Y-102500000D02*
X118500000Y-98500000D01*
X129500000Y-104000000D02*
X127514215Y-104000000D01*
%TO.N,/CHIP_EN*%
X129750000Y-105250000D02*
X132250000Y-105250000D01*
X126500000Y-104400000D02*
X127100000Y-105000000D01*
X129500000Y-105000000D02*
X129750000Y-105250000D01*
X127100000Y-105000000D02*
X129500000Y-105000000D01*
%TO.N,/GPIO16*%
X113797919Y-89122081D02*
X113797919Y-104797919D01*
X122000000Y-107000000D02*
X124500000Y-104500000D01*
X126251471Y-103800000D02*
X126748529Y-103800000D01*
X124500000Y-104500000D02*
X125900000Y-104500000D01*
X116000000Y-107000000D02*
X122000000Y-107000000D01*
X130900000Y-104600000D02*
X132000000Y-103500000D01*
X127548529Y-104600000D02*
X130900000Y-104600000D01*
X126748529Y-103800000D02*
X127548529Y-104600000D01*
X115000000Y-87920000D02*
X113797919Y-89122081D01*
X125900000Y-104500000D02*
X125900000Y-104151471D01*
X113797919Y-104797919D02*
X116000000Y-107000000D01*
X125900000Y-104151471D02*
X126251471Y-103800000D01*
%TO.N,/U0TXD*%
X115000000Y-95540000D02*
X116540000Y-95540000D01*
X116540000Y-95540000D02*
X118500000Y-97500000D01*
%TO.N,Net-(U1-RES12K)*%
X120500000Y-90000000D02*
X117500000Y-93000000D01*
X121500000Y-90000000D02*
X120500000Y-90000000D01*
%TO.N,Net-(U1-SD_CLK)*%
X135001886Y-95000000D02*
X135945686Y-95000000D01*
X139000000Y-92000000D02*
X139500000Y-92500000D01*
X134000000Y-93998114D02*
X135001886Y-95000000D01*
X139000000Y-90000000D02*
X139000000Y-92000000D01*
X135945686Y-95000000D02*
X136087108Y-95141422D01*
%TO.N,/SD_D3*%
X132000000Y-94298114D02*
X132000000Y-94500000D01*
X133500000Y-92798114D02*
X132000000Y-94298114D01*
%TO.N,/SD_D0*%
X129500000Y-94000000D02*
X129500000Y-90000000D01*
%TO.N,/SD_CMD*%
X130100000Y-93600000D02*
X131000000Y-94500000D01*
X130100000Y-92798114D02*
X130100000Y-93600000D01*
%TO.N,+3.3V*%
X126899681Y-102800000D02*
X124700000Y-102800000D01*
X124700000Y-102800000D02*
X124000000Y-103500000D01*
%TD*%
M02*
