%TF.GenerationSoftware,KiCad,Pcbnew,8.0.3*%
%TF.CreationDate,2024-07-01T13:41:45+02:00*%
%TF.ProjectId,ESP8266,45535038-3236-4362-9e6b-696361645f70,rev?*%
%TF.SameCoordinates,Original*%
%TF.FileFunction,Copper,L3,Inr*%
%TF.FilePolarity,Positive*%
%FSLAX46Y46*%
G04 Gerber Fmt 4.6, Leading zero omitted, Abs format (unit mm)*
G04 Created by KiCad (PCBNEW 8.0.3) date 2024-07-01 13:41:45*
%MOMM*%
%LPD*%
G01*
G04 APERTURE LIST*
%TA.AperFunction,ComponentPad*%
%ADD10R,1.700000X1.700000*%
%TD*%
%TA.AperFunction,ComponentPad*%
%ADD11O,1.700000X1.700000*%
%TD*%
%TA.AperFunction,ViaPad*%
%ADD12C,0.600000*%
%TD*%
%TA.AperFunction,Conductor*%
%ADD13C,0.200000*%
%TD*%
G04 APERTURE END LIST*
D10*
%TO.N,+3.3V*%
%TO.C,J1*%
X115000000Y-103160000D03*
D11*
%TO.N,/RST*%
X115000000Y-100620000D03*
%TO.N,/U0RXD*%
X115000000Y-98080000D03*
%TO.N,/U0TXD*%
X115000000Y-95540000D03*
%TO.N,/ADC_IN*%
X115000000Y-93000000D03*
%TO.N,/CHIP_EN*%
X115000000Y-90460000D03*
%TO.N,/GPIO16*%
X115000000Y-87920000D03*
%TO.N,/GPI05*%
X115000000Y-85380000D03*
%TO.N,GND*%
X115000000Y-82840000D03*
%TD*%
D10*
%TO.N,/ANT*%
%TO.C,J3*%
X130540000Y-113500000D03*
D11*
%TO.N,GND*%
X128000000Y-113500000D03*
%TD*%
D10*
%TO.N,/GPIO14*%
%TO.C,J2*%
X142500000Y-103120000D03*
D11*
%TO.N,/GPIO12*%
X142500000Y-100580000D03*
%TO.N,/GPIO13*%
X142500000Y-98040000D03*
%TO.N,/GPIO15*%
X142500000Y-95500000D03*
%TO.N,/GPIO2*%
X142500000Y-92960000D03*
%TO.N,/GPIO0*%
X142500000Y-90420000D03*
%TO.N,/GPIO4*%
X142500000Y-87880000D03*
%TO.N,GND*%
X142500000Y-85340000D03*
X142500000Y-82800000D03*
%TD*%
D12*
%TO.N,GND*%
X131500000Y-92500000D03*
X129000000Y-88500000D03*
X125000000Y-91500000D03*
X120000000Y-101000000D03*
X129420101Y-102900000D03*
X138637500Y-107500000D03*
X120500000Y-108500000D03*
X120155735Y-97155735D03*
X131000000Y-85500000D03*
X129000000Y-85500000D03*
%TO.N,/ADC_IN*%
X129500000Y-104000000D03*
%TO.N,/CHIP_EN*%
X126500000Y-104400000D03*
X132250000Y-105250000D03*
%TO.N,/GPIO16*%
X132000000Y-103500000D03*
%TO.N,/U0TXD*%
X118500000Y-97500000D03*
%TO.N,Net-(U1-RES12K)*%
X117500000Y-93000000D03*
X121500000Y-90000000D03*
%TO.N,Net-(U1-SD_CLK)*%
X139500000Y-92500000D03*
X136087108Y-95141422D03*
X139000000Y-90000000D03*
X134000000Y-93998114D03*
%TO.N,/SD_D3*%
X132000000Y-94500000D03*
X133500000Y-92798114D03*
%TO.N,/SD_D0*%
X129500000Y-90000000D03*
X129500000Y-94000000D03*
%TO.N,/SD_CMD*%
X130100000Y-92798114D03*
X131000000Y-94500000D03*
%TO.N,+3.3V*%
X125000000Y-83500000D03*
X128000000Y-82500000D03*
X131000000Y-107000000D03*
X134023198Y-96562466D03*
X124000000Y-103500000D03*
X125000000Y-87500000D03*
X126899681Y-102800000D03*
X133500000Y-100000000D03*
%TD*%
D13*
%TO.N,+3.3V*%
X126899681Y-102800000D02*
X126539681Y-103160000D01*
X127000000Y-83500000D02*
X128000000Y-82500000D01*
X115000000Y-103160000D02*
X121840000Y-103160000D01*
X115000000Y-103160000D02*
X122000000Y-96160000D01*
X121840000Y-103160000D02*
X124000000Y-101000000D01*
X122000000Y-90848529D02*
X123924264Y-88924264D01*
X123924264Y-88924264D02*
X123924264Y-84575736D01*
X126539681Y-103160000D02*
X121840000Y-103160000D01*
X123924264Y-88924264D02*
X125000000Y-87848529D01*
X122000000Y-96160000D02*
X122000000Y-90848529D01*
X123924264Y-84575736D02*
X125000000Y-83500000D01*
X125000000Y-87848529D02*
X125000000Y-87500000D01*
X125000000Y-83500000D02*
X127000000Y-83500000D01*
%TD*%
%TA.AperFunction,Conductor*%
%TO.N,+3.3V*%
G36*
X143942539Y-81019685D02*
G01*
X143988294Y-81072489D01*
X143999500Y-81124000D01*
X143999500Y-82260803D01*
X143979815Y-82327842D01*
X143927011Y-82373597D01*
X143857853Y-82383541D01*
X143794297Y-82354516D01*
X143763118Y-82313208D01*
X143674035Y-82122171D01*
X143674034Y-82122169D01*
X143538494Y-81928597D01*
X143371402Y-81761506D01*
X143371395Y-81761501D01*
X143177834Y-81625967D01*
X143177830Y-81625965D01*
X143177828Y-81625964D01*
X142963663Y-81526097D01*
X142963659Y-81526096D01*
X142963655Y-81526094D01*
X142735413Y-81464938D01*
X142735403Y-81464936D01*
X142500001Y-81444341D01*
X142499999Y-81444341D01*
X142264596Y-81464936D01*
X142264586Y-81464938D01*
X142036344Y-81526094D01*
X142036335Y-81526098D01*
X141822171Y-81625964D01*
X141822169Y-81625965D01*
X141628597Y-81761505D01*
X141461505Y-81928597D01*
X141325965Y-82122169D01*
X141325964Y-82122171D01*
X141226098Y-82336335D01*
X141226094Y-82336344D01*
X141164938Y-82564586D01*
X141164936Y-82564596D01*
X141144341Y-82799999D01*
X141144341Y-82800000D01*
X141164936Y-83035403D01*
X141164938Y-83035413D01*
X141226094Y-83263655D01*
X141226096Y-83263659D01*
X141226097Y-83263663D01*
X141261319Y-83339196D01*
X141325965Y-83477830D01*
X141325967Y-83477834D01*
X141461501Y-83671395D01*
X141461506Y-83671402D01*
X141628597Y-83838493D01*
X141628603Y-83838498D01*
X141814158Y-83968425D01*
X141857783Y-84023002D01*
X141864977Y-84092500D01*
X141833454Y-84154855D01*
X141814158Y-84171575D01*
X141628597Y-84301505D01*
X141461505Y-84468597D01*
X141325965Y-84662169D01*
X141325964Y-84662171D01*
X141226098Y-84876335D01*
X141226094Y-84876344D01*
X141164938Y-85104586D01*
X141164936Y-85104596D01*
X141144341Y-85339999D01*
X141144341Y-85340000D01*
X141164936Y-85575403D01*
X141164938Y-85575413D01*
X141226094Y-85803655D01*
X141226096Y-85803659D01*
X141226097Y-85803663D01*
X141261319Y-85879196D01*
X141325965Y-86017830D01*
X141325967Y-86017834D01*
X141461501Y-86211395D01*
X141461506Y-86211402D01*
X141628597Y-86378493D01*
X141628603Y-86378498D01*
X141814158Y-86508425D01*
X141857783Y-86563002D01*
X141864977Y-86632500D01*
X141833454Y-86694855D01*
X141814158Y-86711575D01*
X141628597Y-86841505D01*
X141461505Y-87008597D01*
X141325965Y-87202169D01*
X141325964Y-87202171D01*
X141226098Y-87416335D01*
X141226094Y-87416344D01*
X141164938Y-87644586D01*
X141164936Y-87644596D01*
X141144341Y-87879999D01*
X141144341Y-87880000D01*
X141164936Y-88115403D01*
X141164938Y-88115413D01*
X141226094Y-88343655D01*
X141226096Y-88343659D01*
X141226097Y-88343663D01*
X141298998Y-88500000D01*
X141325965Y-88557830D01*
X141325967Y-88557834D01*
X141461501Y-88751395D01*
X141461506Y-88751402D01*
X141628597Y-88918493D01*
X141628603Y-88918498D01*
X141814158Y-89048425D01*
X141857783Y-89103002D01*
X141864977Y-89172500D01*
X141833454Y-89234855D01*
X141814158Y-89251575D01*
X141628597Y-89381505D01*
X141461505Y-89548597D01*
X141325965Y-89742169D01*
X141325964Y-89742171D01*
X141226098Y-89956335D01*
X141226094Y-89956344D01*
X141164938Y-90184586D01*
X141164936Y-90184596D01*
X141144341Y-90419999D01*
X141144341Y-90420000D01*
X141164936Y-90655403D01*
X141164938Y-90655413D01*
X141226094Y-90883655D01*
X141226096Y-90883659D01*
X141226097Y-90883663D01*
X141261319Y-90959196D01*
X141325965Y-91097830D01*
X141325967Y-91097834D01*
X141461501Y-91291395D01*
X141461506Y-91291402D01*
X141628597Y-91458493D01*
X141628603Y-91458498D01*
X141814158Y-91588425D01*
X141857783Y-91643002D01*
X141864977Y-91712500D01*
X141833454Y-91774855D01*
X141814158Y-91791575D01*
X141628597Y-91921505D01*
X141461505Y-92088597D01*
X141325965Y-92282169D01*
X141325964Y-92282171D01*
X141226098Y-92496335D01*
X141226094Y-92496344D01*
X141164938Y-92724586D01*
X141164936Y-92724596D01*
X141144341Y-92959999D01*
X141144341Y-92960000D01*
X141164936Y-93195403D01*
X141164938Y-93195413D01*
X141226094Y-93423655D01*
X141226096Y-93423659D01*
X141226097Y-93423663D01*
X141272840Y-93523903D01*
X141325965Y-93637830D01*
X141325967Y-93637834D01*
X141421459Y-93774209D01*
X141452726Y-93818864D01*
X141461501Y-93831395D01*
X141461506Y-93831402D01*
X141628597Y-93998493D01*
X141628603Y-93998498D01*
X141814158Y-94128425D01*
X141857783Y-94183002D01*
X141864977Y-94252500D01*
X141833454Y-94314855D01*
X141814158Y-94331575D01*
X141628597Y-94461505D01*
X141461505Y-94628597D01*
X141325965Y-94822169D01*
X141325964Y-94822171D01*
X141226098Y-95036335D01*
X141226094Y-95036344D01*
X141164938Y-95264586D01*
X141164936Y-95264596D01*
X141144341Y-95499999D01*
X141144341Y-95500000D01*
X141164936Y-95735403D01*
X141164938Y-95735413D01*
X141226094Y-95963655D01*
X141226096Y-95963659D01*
X141226097Y-95963663D01*
X141261319Y-96039196D01*
X141325965Y-96177830D01*
X141325967Y-96177834D01*
X141461501Y-96371395D01*
X141461506Y-96371402D01*
X141628597Y-96538493D01*
X141628603Y-96538498D01*
X141814158Y-96668425D01*
X141857783Y-96723002D01*
X141864977Y-96792500D01*
X141833454Y-96854855D01*
X141814158Y-96871575D01*
X141628597Y-97001505D01*
X141461505Y-97168597D01*
X141325965Y-97362169D01*
X141325964Y-97362171D01*
X141226098Y-97576335D01*
X141226094Y-97576344D01*
X141164938Y-97804586D01*
X141164936Y-97804596D01*
X141144341Y-98039999D01*
X141144341Y-98040000D01*
X141164936Y-98275403D01*
X141164938Y-98275413D01*
X141226094Y-98503655D01*
X141226096Y-98503659D01*
X141226097Y-98503663D01*
X141261319Y-98579196D01*
X141325965Y-98717830D01*
X141325967Y-98717834D01*
X141461501Y-98911395D01*
X141461506Y-98911402D01*
X141628597Y-99078493D01*
X141628603Y-99078498D01*
X141814158Y-99208425D01*
X141857783Y-99263002D01*
X141864977Y-99332500D01*
X141833454Y-99394855D01*
X141814158Y-99411575D01*
X141628597Y-99541505D01*
X141461505Y-99708597D01*
X141325965Y-99902169D01*
X141325964Y-99902171D01*
X141226098Y-100116335D01*
X141226094Y-100116344D01*
X141164938Y-100344586D01*
X141164936Y-100344596D01*
X141144341Y-100579999D01*
X141144341Y-100580000D01*
X141164936Y-100815403D01*
X141164938Y-100815413D01*
X141226094Y-101043655D01*
X141226096Y-101043659D01*
X141226097Y-101043663D01*
X141261319Y-101119196D01*
X141325965Y-101257830D01*
X141325967Y-101257834D01*
X141353973Y-101297830D01*
X141461501Y-101451396D01*
X141461506Y-101451402D01*
X141583430Y-101573326D01*
X141616915Y-101634649D01*
X141611931Y-101704341D01*
X141570059Y-101760274D01*
X141539083Y-101777189D01*
X141407669Y-101826203D01*
X141407664Y-101826206D01*
X141292455Y-101912452D01*
X141292452Y-101912455D01*
X141206206Y-102027664D01*
X141206202Y-102027671D01*
X141155908Y-102162517D01*
X141149501Y-102222116D01*
X141149500Y-102222135D01*
X141149500Y-104017870D01*
X141149501Y-104017876D01*
X141155908Y-104077483D01*
X141206202Y-104212328D01*
X141206206Y-104212335D01*
X141292452Y-104327544D01*
X141292455Y-104327547D01*
X141407664Y-104413793D01*
X141407671Y-104413797D01*
X141542517Y-104464091D01*
X141542516Y-104464091D01*
X141547549Y-104464632D01*
X141602127Y-104470500D01*
X143397872Y-104470499D01*
X143457483Y-104464091D01*
X143592331Y-104413796D01*
X143707546Y-104327546D01*
X143776234Y-104235789D01*
X143832167Y-104193920D01*
X143901859Y-104188936D01*
X143963182Y-104222421D01*
X143996666Y-104283745D01*
X143999500Y-104310102D01*
X143999500Y-113876000D01*
X143979815Y-113943039D01*
X143927011Y-113988794D01*
X143875500Y-114000000D01*
X132514500Y-114000000D01*
X132447461Y-113980315D01*
X132401706Y-113927511D01*
X132390500Y-113876000D01*
X132390499Y-112102129D01*
X132390498Y-112102123D01*
X132384091Y-112042516D01*
X132333797Y-111907671D01*
X132333793Y-111907664D01*
X132247547Y-111792455D01*
X132247544Y-111792452D01*
X132132335Y-111706206D01*
X132132328Y-111706202D01*
X131997482Y-111655908D01*
X131997483Y-111655908D01*
X131937883Y-111649501D01*
X131937881Y-111649500D01*
X131937873Y-111649500D01*
X131937864Y-111649500D01*
X130142129Y-111649500D01*
X130142123Y-111649501D01*
X130082516Y-111655908D01*
X129947671Y-111706202D01*
X129947664Y-111706206D01*
X129832455Y-111792452D01*
X129832452Y-111792455D01*
X129746206Y-111907664D01*
X129746203Y-111907669D01*
X129697189Y-112039083D01*
X129655317Y-112095016D01*
X129589853Y-112119433D01*
X129521580Y-112104581D01*
X129493326Y-112083430D01*
X129371402Y-111961506D01*
X129371395Y-111961501D01*
X129177834Y-111825967D01*
X129177830Y-111825965D01*
X129177828Y-111825964D01*
X128963663Y-111726097D01*
X128963659Y-111726096D01*
X128963655Y-111726094D01*
X128735413Y-111664938D01*
X128735403Y-111664936D01*
X128500001Y-111644341D01*
X128499999Y-111644341D01*
X128264596Y-111664936D01*
X128264586Y-111664938D01*
X128036344Y-111726094D01*
X128036335Y-111726098D01*
X127822171Y-111825964D01*
X127822169Y-111825965D01*
X127628597Y-111961505D01*
X127461505Y-112128597D01*
X127325965Y-112322169D01*
X127325964Y-112322171D01*
X127226098Y-112536335D01*
X127226094Y-112536344D01*
X127164938Y-112764586D01*
X127164936Y-112764596D01*
X127144341Y-112999999D01*
X127144341Y-113000000D01*
X127164936Y-113235403D01*
X127164938Y-113235413D01*
X127226094Y-113463655D01*
X127226096Y-113463659D01*
X127226097Y-113463663D01*
X127310499Y-113644663D01*
X127325965Y-113677830D01*
X127325967Y-113677834D01*
X127414924Y-113804877D01*
X127437251Y-113871083D01*
X127420241Y-113938850D01*
X127369293Y-113986663D01*
X127313349Y-114000000D01*
X113624500Y-114000000D01*
X113557461Y-113980315D01*
X113511706Y-113927511D01*
X113500500Y-113876000D01*
X113500500Y-108499996D01*
X119694435Y-108499996D01*
X119694435Y-108500003D01*
X119714630Y-108679249D01*
X119714631Y-108679254D01*
X119774211Y-108849523D01*
X119870184Y-109002262D01*
X119997738Y-109129816D01*
X120150478Y-109225789D01*
X120320745Y-109285368D01*
X120320750Y-109285369D01*
X120499996Y-109305565D01*
X120500000Y-109305565D01*
X120500004Y-109305565D01*
X120679249Y-109285369D01*
X120679252Y-109285368D01*
X120679255Y-109285368D01*
X120849522Y-109225789D01*
X121002262Y-109129816D01*
X121129816Y-109002262D01*
X121225789Y-108849522D01*
X121285368Y-108679255D01*
X121305565Y-108500000D01*
X121285368Y-108320745D01*
X121225789Y-108150478D01*
X121129816Y-107997738D01*
X121002262Y-107870184D01*
X120969379Y-107849522D01*
X120849523Y-107774211D01*
X120679254Y-107714631D01*
X120679249Y-107714630D01*
X120500004Y-107694435D01*
X120499996Y-107694435D01*
X120320750Y-107714630D01*
X120320745Y-107714631D01*
X120150476Y-107774211D01*
X119997737Y-107870184D01*
X119870184Y-107997737D01*
X119774211Y-108150476D01*
X119714631Y-108320745D01*
X119714630Y-108320750D01*
X119694435Y-108499996D01*
X113500500Y-108499996D01*
X113500500Y-107499996D01*
X137831935Y-107499996D01*
X137831935Y-107500003D01*
X137852130Y-107679249D01*
X137852131Y-107679254D01*
X137911711Y-107849523D01*
X138004841Y-107997737D01*
X138007684Y-108002262D01*
X138135238Y-108129816D01*
X138287978Y-108225789D01*
X138458245Y-108285368D01*
X138458250Y-108285369D01*
X138637496Y-108305565D01*
X138637500Y-108305565D01*
X138637504Y-108305565D01*
X138816749Y-108285369D01*
X138816752Y-108285368D01*
X138816755Y-108285368D01*
X138987022Y-108225789D01*
X139139762Y-108129816D01*
X139267316Y-108002262D01*
X139363289Y-107849522D01*
X139422868Y-107679255D01*
X139443065Y-107500000D01*
X139422868Y-107320745D01*
X139363289Y-107150478D01*
X139267316Y-106997738D01*
X139139762Y-106870184D01*
X138987023Y-106774211D01*
X138816754Y-106714631D01*
X138816749Y-106714630D01*
X138637504Y-106694435D01*
X138637496Y-106694435D01*
X138458250Y-106714630D01*
X138458245Y-106714631D01*
X138287976Y-106774211D01*
X138135237Y-106870184D01*
X138007684Y-106997737D01*
X137911711Y-107150476D01*
X137852131Y-107320745D01*
X137852130Y-107320750D01*
X137831935Y-107499996D01*
X113500500Y-107499996D01*
X113500500Y-104349269D01*
X113520185Y-104282230D01*
X113572989Y-104236475D01*
X113642147Y-104226531D01*
X113705703Y-104255556D01*
X113723766Y-104274958D01*
X113792809Y-104367187D01*
X113792812Y-104367190D01*
X113907906Y-104453350D01*
X113907913Y-104453354D01*
X114042620Y-104503596D01*
X114042627Y-104503598D01*
X114102155Y-104509999D01*
X114102172Y-104510000D01*
X114750000Y-104510000D01*
X114750000Y-103593012D01*
X114807007Y-103625925D01*
X114934174Y-103660000D01*
X115065826Y-103660000D01*
X115192993Y-103625925D01*
X115250000Y-103593012D01*
X115250000Y-104510000D01*
X115897828Y-104510000D01*
X115897844Y-104509999D01*
X115957372Y-104503598D01*
X115957379Y-104503596D01*
X116092086Y-104453354D01*
X116092093Y-104453350D01*
X116163364Y-104399996D01*
X125694435Y-104399996D01*
X125694435Y-104400003D01*
X125714630Y-104579249D01*
X125714631Y-104579254D01*
X125774211Y-104749523D01*
X125796735Y-104785369D01*
X125870184Y-104902262D01*
X125997738Y-105029816D01*
X126150478Y-105125789D01*
X126320745Y-105185368D01*
X126320750Y-105185369D01*
X126499996Y-105205565D01*
X126500000Y-105205565D01*
X126500004Y-105205565D01*
X126679249Y-105185369D01*
X126679252Y-105185368D01*
X126679255Y-105185368D01*
X126849522Y-105125789D01*
X127002262Y-105029816D01*
X127129816Y-104902262D01*
X127225789Y-104749522D01*
X127285368Y-104579255D01*
X127291570Y-104524211D01*
X127305565Y-104400003D01*
X127305565Y-104399996D01*
X127285369Y-104220750D01*
X127285368Y-104220745D01*
X127282423Y-104212328D01*
X127225789Y-104050478D01*
X127129816Y-103897738D01*
X127002262Y-103770184D01*
X126849523Y-103674211D01*
X126679254Y-103614631D01*
X126679249Y-103614630D01*
X126500004Y-103594435D01*
X126499996Y-103594435D01*
X126320750Y-103614630D01*
X126320745Y-103614631D01*
X126150476Y-103674211D01*
X125997737Y-103770184D01*
X125870184Y-103897737D01*
X125774211Y-104050476D01*
X125714631Y-104220745D01*
X125714630Y-104220750D01*
X125694435Y-104399996D01*
X116163364Y-104399996D01*
X116207187Y-104367190D01*
X116207190Y-104367187D01*
X116293350Y-104252093D01*
X116293354Y-104252086D01*
X116343596Y-104117379D01*
X116343598Y-104117372D01*
X116349999Y-104057844D01*
X116350000Y-104057827D01*
X116350000Y-103410000D01*
X115433012Y-103410000D01*
X115465925Y-103352993D01*
X115500000Y-103225826D01*
X115500000Y-103094174D01*
X115465925Y-102967007D01*
X115433012Y-102910000D01*
X116350000Y-102910000D01*
X116350000Y-102899996D01*
X128614536Y-102899996D01*
X128614536Y-102900003D01*
X128634731Y-103079249D01*
X128634732Y-103079254D01*
X128694312Y-103249523D01*
X128790285Y-103402262D01*
X128806271Y-103418248D01*
X128839756Y-103479571D01*
X128834772Y-103549263D01*
X128823584Y-103571901D01*
X128774211Y-103650476D01*
X128714631Y-103820745D01*
X128714630Y-103820750D01*
X128694435Y-103999996D01*
X128694435Y-104000003D01*
X128714630Y-104179249D01*
X128714631Y-104179254D01*
X128774211Y-104349523D01*
X128870184Y-104502262D01*
X128997738Y-104629816D01*
X129150478Y-104725789D01*
X129218306Y-104749523D01*
X129320745Y-104785368D01*
X129320750Y-104785369D01*
X129499996Y-104805565D01*
X129500000Y-104805565D01*
X129500004Y-104805565D01*
X129679249Y-104785369D01*
X129679252Y-104785368D01*
X129679255Y-104785368D01*
X129849522Y-104725789D01*
X130002262Y-104629816D01*
X130129816Y-104502262D01*
X130225789Y-104349522D01*
X130285368Y-104179255D01*
X130285369Y-104179249D01*
X130305565Y-104000003D01*
X130305565Y-103999996D01*
X130285369Y-103820750D01*
X130285368Y-103820745D01*
X130267676Y-103770184D01*
X130225789Y-103650478D01*
X130203265Y-103614632D01*
X130131237Y-103500000D01*
X130131234Y-103499996D01*
X131194435Y-103499996D01*
X131194435Y-103500003D01*
X131214630Y-103679249D01*
X131214631Y-103679254D01*
X131274211Y-103849523D01*
X131304507Y-103897738D01*
X131370184Y-104002262D01*
X131497738Y-104129816D01*
X131576410Y-104179249D01*
X131645117Y-104222421D01*
X131650478Y-104225789D01*
X131820745Y-104285368D01*
X131859577Y-104289743D01*
X131923989Y-104316808D01*
X131963545Y-104374402D01*
X131965684Y-104444239D01*
X131929727Y-104504146D01*
X131906156Y-104520160D01*
X131906374Y-104520506D01*
X131747737Y-104620184D01*
X131620184Y-104747737D01*
X131524211Y-104900476D01*
X131464631Y-105070745D01*
X131464630Y-105070750D01*
X131444435Y-105249996D01*
X131444435Y-105250003D01*
X131464630Y-105429249D01*
X131464631Y-105429254D01*
X131524211Y-105599523D01*
X131620184Y-105752262D01*
X131747738Y-105879816D01*
X131900478Y-105975789D01*
X132070745Y-106035368D01*
X132070750Y-106035369D01*
X132249996Y-106055565D01*
X132250000Y-106055565D01*
X132250004Y-106055565D01*
X132429249Y-106035369D01*
X132429252Y-106035368D01*
X132429255Y-106035368D01*
X132599522Y-105975789D01*
X132752262Y-105879816D01*
X132879816Y-105752262D01*
X132975789Y-105599522D01*
X133035368Y-105429255D01*
X133055565Y-105250000D01*
X133050558Y-105205565D01*
X133035369Y-105070750D01*
X133035368Y-105070745D01*
X132975788Y-104900476D01*
X132903461Y-104785369D01*
X132879816Y-104747738D01*
X132752262Y-104620184D01*
X132687124Y-104579255D01*
X132599523Y-104524211D01*
X132429254Y-104464631D01*
X132429250Y-104464630D01*
X132390422Y-104460256D01*
X132326008Y-104433190D01*
X132286453Y-104375595D01*
X132284316Y-104305758D01*
X132320274Y-104245851D01*
X132343844Y-104229841D01*
X132343626Y-104229494D01*
X132423580Y-104179255D01*
X132502262Y-104129816D01*
X132629816Y-104002262D01*
X132725789Y-103849522D01*
X132785368Y-103679255D01*
X132785369Y-103679249D01*
X132805565Y-103500003D01*
X132805565Y-103499996D01*
X132785369Y-103320750D01*
X132785368Y-103320745D01*
X132725788Y-103150476D01*
X132629815Y-102997737D01*
X132502262Y-102870184D01*
X132349523Y-102774211D01*
X132179254Y-102714631D01*
X132179249Y-102714630D01*
X132000004Y-102694435D01*
X131999996Y-102694435D01*
X131820750Y-102714630D01*
X131820745Y-102714631D01*
X131650476Y-102774211D01*
X131497737Y-102870184D01*
X131370184Y-102997737D01*
X131274211Y-103150476D01*
X131214631Y-103320745D01*
X131214630Y-103320750D01*
X131194435Y-103499996D01*
X130131234Y-103499996D01*
X130129816Y-103497738D01*
X130113829Y-103481751D01*
X130080344Y-103420428D01*
X130085328Y-103350736D01*
X130096510Y-103328108D01*
X130145890Y-103249522D01*
X130205469Y-103079255D01*
X130214654Y-102997737D01*
X130225666Y-102900003D01*
X130225666Y-102899996D01*
X130205470Y-102720750D01*
X130205469Y-102720745D01*
X130145889Y-102550476D01*
X130049916Y-102397737D01*
X129922363Y-102270184D01*
X129769624Y-102174211D01*
X129599355Y-102114631D01*
X129599350Y-102114630D01*
X129420105Y-102094435D01*
X129420097Y-102094435D01*
X129240851Y-102114630D01*
X129240846Y-102114631D01*
X129070577Y-102174211D01*
X128917838Y-102270184D01*
X128790285Y-102397737D01*
X128694312Y-102550476D01*
X128634732Y-102720745D01*
X128634731Y-102720750D01*
X128614536Y-102899996D01*
X116350000Y-102899996D01*
X116350000Y-102262172D01*
X116349999Y-102262155D01*
X116343598Y-102202627D01*
X116343596Y-102202620D01*
X116293354Y-102067913D01*
X116293350Y-102067906D01*
X116207190Y-101952812D01*
X116207187Y-101952809D01*
X116092093Y-101866649D01*
X116092088Y-101866646D01*
X115960528Y-101817577D01*
X115904595Y-101775705D01*
X115880178Y-101710241D01*
X115895030Y-101641968D01*
X115916175Y-101613720D01*
X116038495Y-101491401D01*
X116174035Y-101297830D01*
X116273903Y-101083663D01*
X116296321Y-100999996D01*
X119194435Y-100999996D01*
X119194435Y-101000003D01*
X119214630Y-101179249D01*
X119214631Y-101179254D01*
X119274211Y-101349523D01*
X119363356Y-101491395D01*
X119370184Y-101502262D01*
X119497738Y-101629816D01*
X119569707Y-101675037D01*
X119625733Y-101710241D01*
X119650478Y-101725789D01*
X119775397Y-101769500D01*
X119820745Y-101785368D01*
X119820750Y-101785369D01*
X119999996Y-101805565D01*
X120000000Y-101805565D01*
X120000004Y-101805565D01*
X120179249Y-101785369D01*
X120179252Y-101785368D01*
X120179255Y-101785368D01*
X120349522Y-101725789D01*
X120502262Y-101629816D01*
X120629816Y-101502262D01*
X120725789Y-101349522D01*
X120785368Y-101179255D01*
X120793533Y-101106791D01*
X120805565Y-101000003D01*
X120805565Y-100999996D01*
X120785369Y-100820750D01*
X120785367Y-100820742D01*
X120725788Y-100650476D01*
X120629815Y-100497737D01*
X120502262Y-100370184D01*
X120349523Y-100274211D01*
X120179254Y-100214631D01*
X120179249Y-100214630D01*
X120000004Y-100194435D01*
X119999996Y-100194435D01*
X119820750Y-100214630D01*
X119820745Y-100214631D01*
X119650476Y-100274211D01*
X119497737Y-100370184D01*
X119370184Y-100497737D01*
X119274211Y-100650476D01*
X119214633Y-100820742D01*
X119214630Y-100820750D01*
X119194435Y-100999996D01*
X116296321Y-100999996D01*
X116335063Y-100855408D01*
X116355659Y-100620000D01*
X116335063Y-100384592D01*
X116284111Y-100194435D01*
X116273905Y-100156344D01*
X116273904Y-100156343D01*
X116273903Y-100156337D01*
X116174035Y-99942171D01*
X116146026Y-99902169D01*
X116038494Y-99748597D01*
X115871402Y-99581506D01*
X115871396Y-99581501D01*
X115685842Y-99451575D01*
X115642217Y-99396998D01*
X115635023Y-99327500D01*
X115666546Y-99265145D01*
X115685842Y-99248425D01*
X115742968Y-99208425D01*
X115871401Y-99118495D01*
X116038495Y-98951401D01*
X116174035Y-98757830D01*
X116273903Y-98543663D01*
X116335063Y-98315408D01*
X116355659Y-98080000D01*
X116335063Y-97844592D01*
X116285065Y-97657994D01*
X116273905Y-97616344D01*
X116273904Y-97616343D01*
X116273903Y-97616337D01*
X116219652Y-97499996D01*
X117694435Y-97499996D01*
X117694435Y-97500003D01*
X117714630Y-97679249D01*
X117714631Y-97679254D01*
X117774211Y-97849523D01*
X117794319Y-97881524D01*
X117870184Y-98002262D01*
X117997738Y-98129816D01*
X118150478Y-98225789D01*
X118292267Y-98275403D01*
X118320745Y-98285368D01*
X118320750Y-98285369D01*
X118499996Y-98305565D01*
X118500000Y-98305565D01*
X118500004Y-98305565D01*
X118679249Y-98285369D01*
X118679252Y-98285368D01*
X118679255Y-98285368D01*
X118849522Y-98225789D01*
X119002262Y-98129816D01*
X119129816Y-98002262D01*
X119225789Y-97849522D01*
X119285368Y-97679255D01*
X119285368Y-97679253D01*
X119285369Y-97679251D01*
X119286407Y-97674703D01*
X119320510Y-97613721D01*
X119382169Y-97580858D01*
X119451806Y-97586547D01*
X119507314Y-97628982D01*
X119512293Y-97636312D01*
X119525919Y-97657997D01*
X119653473Y-97785551D01*
X119806213Y-97881524D01*
X119976480Y-97941103D01*
X119976485Y-97941104D01*
X120155731Y-97961300D01*
X120155735Y-97961300D01*
X120155739Y-97961300D01*
X120334984Y-97941104D01*
X120334987Y-97941103D01*
X120334990Y-97941103D01*
X120505257Y-97881524D01*
X120657997Y-97785551D01*
X120785551Y-97657997D01*
X120881524Y-97505257D01*
X120941103Y-97334990D01*
X120941104Y-97334984D01*
X120961300Y-97155738D01*
X120961300Y-97155731D01*
X120941104Y-96976485D01*
X120941103Y-96976480D01*
X120899294Y-96856998D01*
X120881524Y-96806213D01*
X120785551Y-96653473D01*
X120657997Y-96525919D01*
X120505258Y-96429946D01*
X120334989Y-96370366D01*
X120334984Y-96370365D01*
X120155739Y-96350170D01*
X120155731Y-96350170D01*
X119976485Y-96370365D01*
X119976480Y-96370366D01*
X119806211Y-96429946D01*
X119653472Y-96525919D01*
X119525919Y-96653472D01*
X119429946Y-96806211D01*
X119370366Y-96976481D01*
X119369325Y-96981044D01*
X119335215Y-97042022D01*
X119273553Y-97074878D01*
X119203916Y-97069182D01*
X119148413Y-97026741D01*
X119143440Y-97019421D01*
X119129816Y-96997738D01*
X119002262Y-96870184D01*
X118977866Y-96854855D01*
X118849523Y-96774211D01*
X118679254Y-96714631D01*
X118679249Y-96714630D01*
X118500004Y-96694435D01*
X118499996Y-96694435D01*
X118320750Y-96714630D01*
X118320745Y-96714631D01*
X118150476Y-96774211D01*
X117997737Y-96870184D01*
X117870184Y-96997737D01*
X117774211Y-97150476D01*
X117714631Y-97320745D01*
X117714630Y-97320750D01*
X117694435Y-97499996D01*
X116219652Y-97499996D01*
X116174035Y-97402171D01*
X116146026Y-97362169D01*
X116038494Y-97208597D01*
X115871402Y-97041506D01*
X115871396Y-97041501D01*
X115685842Y-96911575D01*
X115642217Y-96856998D01*
X115635023Y-96787500D01*
X115666546Y-96725145D01*
X115685842Y-96708425D01*
X115764323Y-96653472D01*
X115871401Y-96578495D01*
X116038495Y-96411401D01*
X116174035Y-96217830D01*
X116273903Y-96003663D01*
X116335063Y-95775408D01*
X116355659Y-95540000D01*
X116335063Y-95304592D01*
X116286888Y-95124799D01*
X116273905Y-95076344D01*
X116273904Y-95076343D01*
X116273903Y-95076337D01*
X116174035Y-94862171D01*
X116165179Y-94849522D01*
X116038494Y-94668597D01*
X115871402Y-94501506D01*
X115871396Y-94501501D01*
X115685842Y-94371575D01*
X115642217Y-94316998D01*
X115635023Y-94247500D01*
X115666546Y-94185145D01*
X115685842Y-94168425D01*
X115751352Y-94122554D01*
X115871401Y-94038495D01*
X115909900Y-93999996D01*
X128694435Y-93999996D01*
X128694435Y-94000003D01*
X128714630Y-94179249D01*
X128714631Y-94179254D01*
X128774211Y-94349523D01*
X128844575Y-94461506D01*
X128870184Y-94502262D01*
X128997738Y-94629816D01*
X129012609Y-94639160D01*
X129147474Y-94723902D01*
X129150478Y-94725789D01*
X129315355Y-94783482D01*
X129320745Y-94785368D01*
X129320750Y-94785369D01*
X129499996Y-94805565D01*
X129500000Y-94805565D01*
X129500004Y-94805565D01*
X129679249Y-94785369D01*
X129679252Y-94785368D01*
X129679255Y-94785368D01*
X129849522Y-94725789D01*
X130002262Y-94629816D01*
X130007331Y-94624746D01*
X130068649Y-94591261D01*
X130138341Y-94596242D01*
X130194276Y-94638111D01*
X130210573Y-94673297D01*
X130212332Y-94672682D01*
X130274211Y-94849523D01*
X130344994Y-94962172D01*
X130370184Y-95002262D01*
X130497738Y-95129816D01*
X130650478Y-95225789D01*
X130761371Y-95264592D01*
X130820745Y-95285368D01*
X130820750Y-95285369D01*
X130999996Y-95305565D01*
X131000000Y-95305565D01*
X131000004Y-95305565D01*
X131179249Y-95285369D01*
X131179252Y-95285368D01*
X131179255Y-95285368D01*
X131349522Y-95225789D01*
X131434027Y-95172691D01*
X131501264Y-95153690D01*
X131565973Y-95172691D01*
X131650475Y-95225788D01*
X131820745Y-95285368D01*
X131820750Y-95285369D01*
X131999996Y-95305565D01*
X132000000Y-95305565D01*
X132000004Y-95305565D01*
X132179249Y-95285369D01*
X132179252Y-95285368D01*
X132179255Y-95285368D01*
X132349522Y-95225789D01*
X132483798Y-95141418D01*
X135281543Y-95141418D01*
X135281543Y-95141425D01*
X135301738Y-95320671D01*
X135301739Y-95320676D01*
X135361319Y-95490945D01*
X135367009Y-95500000D01*
X135457292Y-95643684D01*
X135584846Y-95771238D01*
X135737586Y-95867211D01*
X135874731Y-95915200D01*
X135907853Y-95926790D01*
X135907858Y-95926791D01*
X136087104Y-95946987D01*
X136087108Y-95946987D01*
X136087112Y-95946987D01*
X136266357Y-95926791D01*
X136266360Y-95926790D01*
X136266363Y-95926790D01*
X136436630Y-95867211D01*
X136589370Y-95771238D01*
X136716924Y-95643684D01*
X136812897Y-95490944D01*
X136872476Y-95320677D01*
X136874288Y-95304596D01*
X136892673Y-95141425D01*
X136892673Y-95141418D01*
X136872477Y-94962172D01*
X136872476Y-94962167D01*
X136823489Y-94822171D01*
X136812897Y-94791900D01*
X136808793Y-94785369D01*
X136742117Y-94679254D01*
X136716924Y-94639160D01*
X136589370Y-94511606D01*
X136570893Y-94499996D01*
X136436631Y-94415633D01*
X136266362Y-94356053D01*
X136266357Y-94356052D01*
X136087112Y-94335857D01*
X136087104Y-94335857D01*
X135907858Y-94356052D01*
X135907853Y-94356053D01*
X135737584Y-94415633D01*
X135584845Y-94511606D01*
X135457292Y-94639159D01*
X135361319Y-94791898D01*
X135301739Y-94962167D01*
X135301738Y-94962172D01*
X135281543Y-95141418D01*
X132483798Y-95141418D01*
X132502262Y-95129816D01*
X132629816Y-95002262D01*
X132725789Y-94849522D01*
X132785368Y-94679255D01*
X132785369Y-94679249D01*
X132805565Y-94500003D01*
X132805565Y-94499996D01*
X132785369Y-94320750D01*
X132785368Y-94320745D01*
X132770060Y-94276998D01*
X132725789Y-94150478D01*
X132629816Y-93997738D01*
X132502262Y-93870184D01*
X132440541Y-93831402D01*
X132349523Y-93774211D01*
X132179254Y-93714631D01*
X132179249Y-93714630D01*
X132000004Y-93694435D01*
X131999996Y-93694435D01*
X131820750Y-93714630D01*
X131820737Y-93714633D01*
X131650479Y-93774209D01*
X131565971Y-93827309D01*
X131498734Y-93846309D01*
X131434029Y-93827309D01*
X131349520Y-93774209D01*
X131179262Y-93714633D01*
X131179249Y-93714630D01*
X131000004Y-93694435D01*
X130999996Y-93694435D01*
X130820750Y-93714630D01*
X130820745Y-93714631D01*
X130650476Y-93774211D01*
X130497738Y-93870183D01*
X130492663Y-93875259D01*
X130431338Y-93908741D01*
X130361647Y-93903753D01*
X130305715Y-93861878D01*
X130289436Y-93826699D01*
X130287669Y-93827318D01*
X130251691Y-93724500D01*
X130248129Y-93654721D01*
X130282857Y-93594094D01*
X130327778Y-93566503D01*
X130449522Y-93523903D01*
X130602262Y-93427930D01*
X130729816Y-93300376D01*
X130816825Y-93161901D01*
X130869160Y-93115611D01*
X130938213Y-93104963D01*
X130990993Y-93127460D01*
X130991842Y-93126111D01*
X130997737Y-93129815D01*
X130997738Y-93129816D01*
X131026100Y-93147637D01*
X131132721Y-93214632D01*
X131150478Y-93225789D01*
X131283470Y-93272325D01*
X131320745Y-93285368D01*
X131320750Y-93285369D01*
X131499996Y-93305565D01*
X131500000Y-93305565D01*
X131500004Y-93305565D01*
X131679249Y-93285369D01*
X131679252Y-93285368D01*
X131679255Y-93285368D01*
X131849522Y-93225789D01*
X132002262Y-93129816D01*
X132129816Y-93002262D01*
X132225789Y-92849522D01*
X132243779Y-92798110D01*
X132694435Y-92798110D01*
X132694435Y-92798117D01*
X132714630Y-92977363D01*
X132714631Y-92977368D01*
X132774211Y-93147637D01*
X132829362Y-93235408D01*
X132870184Y-93300376D01*
X132997738Y-93427930D01*
X133027755Y-93446791D01*
X133116036Y-93502262D01*
X133150478Y-93523903D01*
X133182543Y-93535123D01*
X133239319Y-93575845D01*
X133265066Y-93640798D01*
X133258630Y-93693120D01*
X133214631Y-93818859D01*
X133214630Y-93818864D01*
X133194435Y-93998110D01*
X133194435Y-93998117D01*
X133214630Y-94177363D01*
X133214631Y-94177368D01*
X133274211Y-94347637D01*
X133292941Y-94377445D01*
X133370184Y-94500376D01*
X133497738Y-94627930D01*
X133650478Y-94723903D01*
X133820745Y-94783482D01*
X133820750Y-94783483D01*
X133999996Y-94803679D01*
X134000000Y-94803679D01*
X134000004Y-94803679D01*
X134179249Y-94783483D01*
X134179252Y-94783482D01*
X134179255Y-94783482D01*
X134349522Y-94723903D01*
X134502262Y-94627930D01*
X134629816Y-94500376D01*
X134725789Y-94347636D01*
X134785368Y-94177369D01*
X134801015Y-94038498D01*
X134805565Y-93998117D01*
X134805565Y-93998110D01*
X134785369Y-93818864D01*
X134785368Y-93818859D01*
X134736020Y-93677830D01*
X134725789Y-93648592D01*
X134719029Y-93637834D01*
X134657051Y-93539196D01*
X134629816Y-93495852D01*
X134502262Y-93368298D01*
X134394165Y-93300376D01*
X134349524Y-93272326D01*
X134349523Y-93272325D01*
X134317455Y-93261104D01*
X134260679Y-93220381D01*
X134234933Y-93155428D01*
X134241370Y-93103108D01*
X134285366Y-92977376D01*
X134285369Y-92977363D01*
X134305565Y-92798117D01*
X134305565Y-92798110D01*
X134285369Y-92618864D01*
X134285368Y-92618859D01*
X134256492Y-92536337D01*
X134243776Y-92499996D01*
X138694435Y-92499996D01*
X138694435Y-92500003D01*
X138714630Y-92679249D01*
X138714631Y-92679254D01*
X138774211Y-92849523D01*
X138843628Y-92959999D01*
X138870184Y-93002262D01*
X138997738Y-93129816D01*
X139048803Y-93161902D01*
X139132721Y-93214632D01*
X139150478Y-93225789D01*
X139283470Y-93272325D01*
X139320745Y-93285368D01*
X139320750Y-93285369D01*
X139499996Y-93305565D01*
X139500000Y-93305565D01*
X139500004Y-93305565D01*
X139679249Y-93285369D01*
X139679252Y-93285368D01*
X139679255Y-93285368D01*
X139849522Y-93225789D01*
X140002262Y-93129816D01*
X140129816Y-93002262D01*
X140225789Y-92849522D01*
X140285368Y-92679255D01*
X140285369Y-92679249D01*
X140305565Y-92500003D01*
X140305565Y-92499996D01*
X140285369Y-92320750D01*
X140285368Y-92320745D01*
X140241170Y-92194435D01*
X140225789Y-92150478D01*
X140212041Y-92128599D01*
X140139246Y-92012746D01*
X140129816Y-91997738D01*
X140002262Y-91870184D01*
X139969379Y-91849522D01*
X139849523Y-91774211D01*
X139679254Y-91714631D01*
X139679249Y-91714630D01*
X139500004Y-91694435D01*
X139499996Y-91694435D01*
X139320750Y-91714630D01*
X139320745Y-91714631D01*
X139150476Y-91774211D01*
X138997737Y-91870184D01*
X138870184Y-91997737D01*
X138774211Y-92150476D01*
X138714631Y-92320745D01*
X138714630Y-92320750D01*
X138694435Y-92499996D01*
X134243776Y-92499996D01*
X134225789Y-92448592D01*
X134129816Y-92295852D01*
X134002262Y-92168298D01*
X133973902Y-92150478D01*
X133849523Y-92072325D01*
X133679254Y-92012745D01*
X133679249Y-92012744D01*
X133500004Y-91992549D01*
X133499996Y-91992549D01*
X133320750Y-92012744D01*
X133320745Y-92012745D01*
X133150476Y-92072325D01*
X132997737Y-92168298D01*
X132870184Y-92295851D01*
X132774211Y-92448590D01*
X132714631Y-92618859D01*
X132714630Y-92618864D01*
X132694435Y-92798110D01*
X132243779Y-92798110D01*
X132285368Y-92679255D01*
X132285369Y-92679249D01*
X132305565Y-92500003D01*
X132305565Y-92499996D01*
X132285369Y-92320750D01*
X132285368Y-92320745D01*
X132241170Y-92194435D01*
X132225789Y-92150478D01*
X132212041Y-92128599D01*
X132139246Y-92012746D01*
X132129816Y-91997738D01*
X132002262Y-91870184D01*
X131969379Y-91849522D01*
X131849523Y-91774211D01*
X131679254Y-91714631D01*
X131679249Y-91714630D01*
X131500004Y-91694435D01*
X131499996Y-91694435D01*
X131320750Y-91714630D01*
X131320745Y-91714631D01*
X131150476Y-91774211D01*
X130997737Y-91870184D01*
X130870184Y-91997737D01*
X130870182Y-91997740D01*
X130783173Y-92136212D01*
X130730838Y-92182503D01*
X130661785Y-92193150D01*
X130609005Y-92170653D01*
X130608158Y-92172003D01*
X130449523Y-92072325D01*
X130279254Y-92012745D01*
X130279249Y-92012744D01*
X130100004Y-91992549D01*
X130099996Y-91992549D01*
X129920750Y-92012744D01*
X129920745Y-92012745D01*
X129750476Y-92072325D01*
X129597737Y-92168298D01*
X129470184Y-92295851D01*
X129374211Y-92448590D01*
X129314631Y-92618859D01*
X129314630Y-92618864D01*
X129294435Y-92798110D01*
X129294435Y-92798117D01*
X129314630Y-92977363D01*
X129314632Y-92977371D01*
X129348309Y-93073615D01*
X129351870Y-93143394D01*
X129317141Y-93204021D01*
X129272222Y-93231611D01*
X129150476Y-93274211D01*
X128997737Y-93370184D01*
X128870184Y-93497737D01*
X128774211Y-93650476D01*
X128714631Y-93820745D01*
X128714630Y-93820750D01*
X128694435Y-93999996D01*
X115909900Y-93999996D01*
X116038495Y-93871401D01*
X116174035Y-93677830D01*
X116273903Y-93463663D01*
X116335063Y-93235408D01*
X116355659Y-93000000D01*
X116355659Y-92999996D01*
X116694435Y-92999996D01*
X116694435Y-93000003D01*
X116714630Y-93179249D01*
X116714631Y-93179254D01*
X116774211Y-93349523D01*
X116870184Y-93502262D01*
X116997738Y-93629816D01*
X117037374Y-93654721D01*
X117148426Y-93724500D01*
X117150478Y-93725789D01*
X117288860Y-93774211D01*
X117320745Y-93785368D01*
X117320750Y-93785369D01*
X117499996Y-93805565D01*
X117500000Y-93805565D01*
X117500004Y-93805565D01*
X117679249Y-93785369D01*
X117679252Y-93785368D01*
X117679255Y-93785368D01*
X117849522Y-93725789D01*
X118002262Y-93629816D01*
X118129816Y-93502262D01*
X118225789Y-93349522D01*
X118285368Y-93179255D01*
X118285369Y-93179249D01*
X118305565Y-93000003D01*
X118305565Y-92999996D01*
X118285369Y-92820750D01*
X118285368Y-92820745D01*
X118251724Y-92724596D01*
X118225789Y-92650478D01*
X118205921Y-92618859D01*
X118172486Y-92565647D01*
X118129816Y-92497738D01*
X118002262Y-92370184D01*
X117925847Y-92322169D01*
X117849523Y-92274211D01*
X117679254Y-92214631D01*
X117679249Y-92214630D01*
X117500004Y-92194435D01*
X117499996Y-92194435D01*
X117320750Y-92214630D01*
X117320745Y-92214631D01*
X117150476Y-92274211D01*
X116997737Y-92370184D01*
X116870184Y-92497737D01*
X116774211Y-92650476D01*
X116714631Y-92820745D01*
X116714630Y-92820750D01*
X116694435Y-92999996D01*
X116355659Y-92999996D01*
X116353678Y-92977363D01*
X116351539Y-92952918D01*
X116335063Y-92764592D01*
X116286888Y-92584799D01*
X116273905Y-92536344D01*
X116273904Y-92536343D01*
X116273903Y-92536337D01*
X116174035Y-92322171D01*
X116162408Y-92305565D01*
X116038494Y-92128597D01*
X115871402Y-91961506D01*
X115871396Y-91961501D01*
X115685842Y-91831575D01*
X115642217Y-91776998D01*
X115635023Y-91707500D01*
X115666546Y-91645145D01*
X115685842Y-91628425D01*
X115869247Y-91500003D01*
X115869257Y-91499996D01*
X124194435Y-91499996D01*
X124194435Y-91500003D01*
X124214630Y-91679249D01*
X124214631Y-91679254D01*
X124274211Y-91849523D01*
X124344575Y-91961506D01*
X124370184Y-92002262D01*
X124497738Y-92129816D01*
X124558982Y-92168298D01*
X124632721Y-92214632D01*
X124650478Y-92225789D01*
X124820745Y-92285368D01*
X124820750Y-92285369D01*
X124999996Y-92305565D01*
X125000000Y-92305565D01*
X125000004Y-92305565D01*
X125179249Y-92285369D01*
X125179252Y-92285368D01*
X125179255Y-92285368D01*
X125349522Y-92225789D01*
X125502262Y-92129816D01*
X125629816Y-92002262D01*
X125725789Y-91849522D01*
X125785368Y-91679255D01*
X125785369Y-91679249D01*
X125805565Y-91500003D01*
X125805565Y-91499996D01*
X125785369Y-91320750D01*
X125785368Y-91320745D01*
X125725788Y-91150476D01*
X125629815Y-90997737D01*
X125502262Y-90870184D01*
X125349523Y-90774211D01*
X125179254Y-90714631D01*
X125179249Y-90714630D01*
X125000004Y-90694435D01*
X124999996Y-90694435D01*
X124820750Y-90714630D01*
X124820745Y-90714631D01*
X124650476Y-90774211D01*
X124497737Y-90870184D01*
X124370184Y-90997737D01*
X124274211Y-91150476D01*
X124214631Y-91320745D01*
X124214630Y-91320750D01*
X124194435Y-91499996D01*
X115869257Y-91499996D01*
X115871401Y-91498495D01*
X116038495Y-91331401D01*
X116174035Y-91137830D01*
X116273903Y-90923663D01*
X116335063Y-90695408D01*
X116355659Y-90460000D01*
X116335063Y-90224592D01*
X116286888Y-90044799D01*
X116274884Y-89999996D01*
X120694435Y-89999996D01*
X120694435Y-90000003D01*
X120714630Y-90179249D01*
X120714631Y-90179254D01*
X120774211Y-90349523D01*
X120818495Y-90420000D01*
X120870184Y-90502262D01*
X120997738Y-90629816D01*
X121088080Y-90686582D01*
X121132721Y-90714632D01*
X121150478Y-90725789D01*
X121288860Y-90774211D01*
X121320745Y-90785368D01*
X121320750Y-90785369D01*
X121499996Y-90805565D01*
X121500000Y-90805565D01*
X121500004Y-90805565D01*
X121679249Y-90785369D01*
X121679252Y-90785368D01*
X121679255Y-90785368D01*
X121849522Y-90725789D01*
X122002262Y-90629816D01*
X122129816Y-90502262D01*
X122225789Y-90349522D01*
X122285368Y-90179255D01*
X122285369Y-90179249D01*
X122305565Y-90000003D01*
X122305565Y-89999996D01*
X122285369Y-89820750D01*
X122285368Y-89820745D01*
X122225788Y-89650476D01*
X122129815Y-89497737D01*
X122002262Y-89370184D01*
X121849523Y-89274211D01*
X121679254Y-89214631D01*
X121679249Y-89214630D01*
X121500004Y-89194435D01*
X121499996Y-89194435D01*
X121320750Y-89214630D01*
X121320745Y-89214631D01*
X121150476Y-89274211D01*
X120997737Y-89370184D01*
X120870184Y-89497737D01*
X120774211Y-89650476D01*
X120714631Y-89820745D01*
X120714630Y-89820750D01*
X120694435Y-89999996D01*
X116274884Y-89999996D01*
X116273905Y-89996344D01*
X116273904Y-89996343D01*
X116273903Y-89996337D01*
X116174035Y-89782171D01*
X116146026Y-89742169D01*
X116038494Y-89588597D01*
X115871402Y-89421506D01*
X115871396Y-89421501D01*
X115685842Y-89291575D01*
X115642217Y-89236998D01*
X115635023Y-89167500D01*
X115666546Y-89105145D01*
X115685842Y-89088425D01*
X115742968Y-89048425D01*
X115871401Y-88958495D01*
X116038495Y-88791401D01*
X116174035Y-88597830D01*
X116219656Y-88499996D01*
X128194435Y-88499996D01*
X128194435Y-88500003D01*
X128214630Y-88679249D01*
X128214631Y-88679254D01*
X128274211Y-88849523D01*
X128342682Y-88958493D01*
X128370184Y-89002262D01*
X128497738Y-89129816D01*
X128529861Y-89150000D01*
X128632721Y-89214632D01*
X128650478Y-89225789D01*
X128788860Y-89274211D01*
X128827318Y-89287668D01*
X128826373Y-89290367D01*
X128876132Y-89318192D01*
X128908998Y-89379848D01*
X128903313Y-89449486D01*
X128875259Y-89492663D01*
X128870183Y-89497738D01*
X128774211Y-89650476D01*
X128714631Y-89820745D01*
X128714630Y-89820750D01*
X128694435Y-89999996D01*
X128694435Y-90000003D01*
X128714630Y-90179249D01*
X128714631Y-90179254D01*
X128774211Y-90349523D01*
X128818495Y-90420000D01*
X128870184Y-90502262D01*
X128997738Y-90629816D01*
X129088080Y-90686582D01*
X129132721Y-90714632D01*
X129150478Y-90725789D01*
X129288860Y-90774211D01*
X129320745Y-90785368D01*
X129320750Y-90785369D01*
X129499996Y-90805565D01*
X129500000Y-90805565D01*
X129500004Y-90805565D01*
X129679249Y-90785369D01*
X129679252Y-90785368D01*
X129679255Y-90785368D01*
X129849522Y-90725789D01*
X130002262Y-90629816D01*
X130129816Y-90502262D01*
X130225789Y-90349522D01*
X130285368Y-90179255D01*
X130285369Y-90179249D01*
X130305565Y-90000003D01*
X130305565Y-89999996D01*
X138194435Y-89999996D01*
X138194435Y-90000003D01*
X138214630Y-90179249D01*
X138214631Y-90179254D01*
X138274211Y-90349523D01*
X138318495Y-90420000D01*
X138370184Y-90502262D01*
X138497738Y-90629816D01*
X138588080Y-90686582D01*
X138632721Y-90714632D01*
X138650478Y-90725789D01*
X138788860Y-90774211D01*
X138820745Y-90785368D01*
X138820750Y-90785369D01*
X138999996Y-90805565D01*
X139000000Y-90805565D01*
X139000004Y-90805565D01*
X139179249Y-90785369D01*
X139179252Y-90785368D01*
X139179255Y-90785368D01*
X139349522Y-90725789D01*
X139502262Y-90629816D01*
X139629816Y-90502262D01*
X139725789Y-90349522D01*
X139785368Y-90179255D01*
X139785369Y-90179249D01*
X139805565Y-90000003D01*
X139805565Y-89999996D01*
X139785369Y-89820750D01*
X139785368Y-89820745D01*
X139725788Y-89650476D01*
X139629815Y-89497737D01*
X139502262Y-89370184D01*
X139349523Y-89274211D01*
X139179254Y-89214631D01*
X139179249Y-89214630D01*
X139000004Y-89194435D01*
X138999996Y-89194435D01*
X138820750Y-89214630D01*
X138820745Y-89214631D01*
X138650476Y-89274211D01*
X138497737Y-89370184D01*
X138370184Y-89497737D01*
X138274211Y-89650476D01*
X138214631Y-89820745D01*
X138214630Y-89820750D01*
X138194435Y-89999996D01*
X130305565Y-89999996D01*
X130285369Y-89820750D01*
X130285368Y-89820745D01*
X130225788Y-89650476D01*
X130129815Y-89497737D01*
X130002262Y-89370184D01*
X129849523Y-89274211D01*
X129672682Y-89212332D01*
X129673622Y-89209644D01*
X129623814Y-89181754D01*
X129590985Y-89120077D01*
X129596713Y-89050442D01*
X129624745Y-89007332D01*
X129629816Y-89002262D01*
X129725789Y-88849522D01*
X129785368Y-88679255D01*
X129794542Y-88597834D01*
X129805565Y-88500003D01*
X129805565Y-88499996D01*
X129785369Y-88320750D01*
X129785368Y-88320745D01*
X129725788Y-88150476D01*
X129629815Y-87997737D01*
X129502262Y-87870184D01*
X129349523Y-87774211D01*
X129179254Y-87714631D01*
X129179249Y-87714630D01*
X129000004Y-87694435D01*
X128999996Y-87694435D01*
X128820750Y-87714630D01*
X128820745Y-87714631D01*
X128650476Y-87774211D01*
X128497737Y-87870184D01*
X128370184Y-87997737D01*
X128274211Y-88150476D01*
X128214631Y-88320745D01*
X128214630Y-88320750D01*
X128194435Y-88499996D01*
X116219656Y-88499996D01*
X116273903Y-88383663D01*
X116335063Y-88155408D01*
X116355659Y-87920000D01*
X116335063Y-87684592D01*
X116286888Y-87504799D01*
X116273905Y-87456344D01*
X116273904Y-87456343D01*
X116273903Y-87456337D01*
X116174035Y-87242171D01*
X116146026Y-87202169D01*
X116038494Y-87048597D01*
X115871402Y-86881506D01*
X115871396Y-86881501D01*
X115685842Y-86751575D01*
X115642217Y-86696998D01*
X115635023Y-86627500D01*
X115666546Y-86565145D01*
X115685842Y-86548425D01*
X115742968Y-86508425D01*
X115871401Y-86418495D01*
X116038495Y-86251401D01*
X116174035Y-86057830D01*
X116273903Y-85843663D01*
X116335063Y-85615408D01*
X116345160Y-85499996D01*
X128194435Y-85499996D01*
X128194435Y-85500003D01*
X128214630Y-85679249D01*
X128214631Y-85679254D01*
X128274211Y-85849523D01*
X128292856Y-85879196D01*
X128370184Y-86002262D01*
X128497738Y-86129816D01*
X128588080Y-86186582D01*
X128627579Y-86211401D01*
X128650478Y-86225789D01*
X128723656Y-86251395D01*
X128820745Y-86285368D01*
X128820750Y-86285369D01*
X128999996Y-86305565D01*
X129000000Y-86305565D01*
X129000004Y-86305565D01*
X129179249Y-86285369D01*
X129179252Y-86285368D01*
X129179255Y-86285368D01*
X129349522Y-86225789D01*
X129502262Y-86129816D01*
X129629816Y-86002262D01*
X129725789Y-85849522D01*
X129785368Y-85679255D01*
X129785369Y-85679249D01*
X129805565Y-85500003D01*
X129805565Y-85499996D01*
X130194435Y-85499996D01*
X130194435Y-85500003D01*
X130214630Y-85679249D01*
X130214631Y-85679254D01*
X130274211Y-85849523D01*
X130292856Y-85879196D01*
X130370184Y-86002262D01*
X130497738Y-86129816D01*
X130588080Y-86186582D01*
X130627579Y-86211401D01*
X130650478Y-86225789D01*
X130723656Y-86251395D01*
X130820745Y-86285368D01*
X130820750Y-86285369D01*
X130999996Y-86305565D01*
X131000000Y-86305565D01*
X131000004Y-86305565D01*
X131179249Y-86285369D01*
X131179252Y-86285368D01*
X131179255Y-86285368D01*
X131349522Y-86225789D01*
X131502262Y-86129816D01*
X131629816Y-86002262D01*
X131725789Y-85849522D01*
X131785368Y-85679255D01*
X131785369Y-85679249D01*
X131805565Y-85500003D01*
X131805565Y-85499996D01*
X131785369Y-85320750D01*
X131785368Y-85320745D01*
X131725788Y-85150476D01*
X131629815Y-84997737D01*
X131502262Y-84870184D01*
X131349523Y-84774211D01*
X131179254Y-84714631D01*
X131179249Y-84714630D01*
X131000004Y-84694435D01*
X130999996Y-84694435D01*
X130820750Y-84714630D01*
X130820745Y-84714631D01*
X130650476Y-84774211D01*
X130497737Y-84870184D01*
X130370184Y-84997737D01*
X130274211Y-85150476D01*
X130214631Y-85320745D01*
X130214630Y-85320750D01*
X130194435Y-85499996D01*
X129805565Y-85499996D01*
X129785369Y-85320750D01*
X129785368Y-85320745D01*
X129725788Y-85150476D01*
X129629815Y-84997737D01*
X129502262Y-84870184D01*
X129349523Y-84774211D01*
X129179254Y-84714631D01*
X129179249Y-84714630D01*
X129000004Y-84694435D01*
X128999996Y-84694435D01*
X128820750Y-84714630D01*
X128820745Y-84714631D01*
X128650476Y-84774211D01*
X128497737Y-84870184D01*
X128370184Y-84997737D01*
X128274211Y-85150476D01*
X128214631Y-85320745D01*
X128214630Y-85320750D01*
X128194435Y-85499996D01*
X116345160Y-85499996D01*
X116355659Y-85380000D01*
X116335063Y-85144592D01*
X116286888Y-84964799D01*
X116273905Y-84916344D01*
X116273904Y-84916343D01*
X116273903Y-84916337D01*
X116174035Y-84702171D01*
X116168619Y-84694435D01*
X116038494Y-84508597D01*
X115871402Y-84341506D01*
X115871396Y-84341501D01*
X115685842Y-84211575D01*
X115642217Y-84156998D01*
X115635023Y-84087500D01*
X115666546Y-84025145D01*
X115685842Y-84008425D01*
X115742968Y-83968425D01*
X115871401Y-83878495D01*
X116038495Y-83711401D01*
X116174035Y-83517830D01*
X116273903Y-83303663D01*
X116335063Y-83075408D01*
X116355659Y-82840000D01*
X116335063Y-82604592D01*
X116286888Y-82424799D01*
X116273905Y-82376344D01*
X116273904Y-82376343D01*
X116273903Y-82376337D01*
X116174035Y-82162171D01*
X116146026Y-82122169D01*
X116038494Y-81968597D01*
X115871402Y-81801506D01*
X115871395Y-81801501D01*
X115677834Y-81665967D01*
X115677830Y-81665965D01*
X115592050Y-81625965D01*
X115463663Y-81566097D01*
X115463659Y-81566096D01*
X115463655Y-81566094D01*
X115235413Y-81504938D01*
X115235403Y-81504936D01*
X115000001Y-81484341D01*
X114999999Y-81484341D01*
X114764596Y-81504936D01*
X114764586Y-81504938D01*
X114536344Y-81566094D01*
X114536335Y-81566098D01*
X114322171Y-81665964D01*
X114322169Y-81665965D01*
X114128597Y-81801505D01*
X113961505Y-81968597D01*
X113825965Y-82162169D01*
X113825964Y-82162171D01*
X113736882Y-82353208D01*
X113690709Y-82405647D01*
X113623516Y-82424799D01*
X113556635Y-82404583D01*
X113511300Y-82351418D01*
X113500500Y-82300803D01*
X113500500Y-81124000D01*
X113520185Y-81056961D01*
X113572989Y-81011206D01*
X113624500Y-81000000D01*
X143875500Y-81000000D01*
X143942539Y-81019685D01*
G37*
%TD.AperFunction*%
%TD*%
D10*
%TO.P,J1,1,Pin_1*%
%TO.N,+3.3V*%
X115000000Y-103160000D03*
D11*
%TO.P,J1,2,Pin_2*%
%TO.N,/RST*%
X115000000Y-100620000D03*
%TO.P,J1,3,Pin_3*%
%TO.N,/U0RXD*%
X115000000Y-98080000D03*
%TO.P,J1,4,Pin_4*%
%TO.N,/U0TXD*%
X115000000Y-95540000D03*
%TO.P,J1,5,Pin_5*%
%TO.N,/ADC_IN*%
X115000000Y-93000000D03*
%TO.P,J1,6,Pin_6*%
%TO.N,/CHIP_EN*%
X115000000Y-90460000D03*
%TO.P,J1,7,Pin_7*%
%TO.N,/GPIO16*%
X115000000Y-87920000D03*
%TO.P,J1,8,Pin_8*%
%TO.N,/GPI05*%
X115000000Y-85380000D03*
%TO.P,J1,9,Pin_9*%
%TO.N,GND*%
X115000000Y-82840000D03*
%TD*%
D10*
%TO.P,J3,1,Pin_1*%
%TO.N,/ANT*%
X130540000Y-113500000D03*
D11*
%TO.P,J3,2,Pin_2*%
%TO.N,GND*%
X128000000Y-113500000D03*
%TD*%
D10*
%TO.P,J2,1,Pin_1*%
%TO.N,/GPIO14*%
X142500000Y-103120000D03*
D11*
%TO.P,J2,2,Pin_2*%
%TO.N,/GPIO12*%
X142500000Y-100580000D03*
%TO.P,J2,3,Pin_3*%
%TO.N,/GPIO13*%
X142500000Y-98040000D03*
%TO.P,J2,4,Pin_4*%
%TO.N,/GPIO15*%
X142500000Y-95500000D03*
%TO.P,J2,5,Pin_5*%
%TO.N,/GPIO2*%
X142500000Y-92960000D03*
%TO.P,J2,6,Pin_6*%
%TO.N,/GPIO0*%
X142500000Y-90420000D03*
%TO.P,J2,7,Pin_7*%
%TO.N,/GPIO4*%
X142500000Y-87880000D03*
%TO.P,J2,8,Pin_8*%
%TO.N,GND*%
X142500000Y-85340000D03*
%TO.P,J2,9,Pin_9*%
X142500000Y-82800000D03*
%TD*%
D12*
%TO.N,GND*%
X131500000Y-92500000D03*
X129000000Y-88500000D03*
X125000000Y-91500000D03*
X120000000Y-101000000D03*
X129420101Y-102900000D03*
X138637500Y-107500000D03*
X120500000Y-108500000D03*
X120155735Y-97155735D03*
X131000000Y-85500000D03*
X129000000Y-85500000D03*
%TO.N,/ADC_IN*%
X129500000Y-104000000D03*
%TO.N,/CHIP_EN*%
X126500000Y-104400000D03*
X132250000Y-105250000D03*
%TO.N,/GPIO16*%
X132000000Y-103500000D03*
%TO.N,/U0TXD*%
X118500000Y-97500000D03*
%TO.N,Net-(U1-RES12K)*%
X117500000Y-93000000D03*
X121500000Y-90000000D03*
%TO.N,Net-(U1-SD_CLK)*%
X139500000Y-92500000D03*
X136087108Y-95141422D03*
X139000000Y-90000000D03*
X134000000Y-93998114D03*
%TO.N,/SD_D3*%
X132000000Y-94500000D03*
X133500000Y-92798114D03*
%TO.N,/SD_D0*%
X129500000Y-90000000D03*
X129500000Y-94000000D03*
%TO.N,/SD_CMD*%
X130100000Y-92798114D03*
X131000000Y-94500000D03*
%TO.N,+3.3V*%
X125000000Y-83500000D03*
X128000000Y-82500000D03*
X131000000Y-107000000D03*
X134023198Y-96562466D03*
X124000000Y-103500000D03*
X125000000Y-87500000D03*
X126899681Y-102800000D03*
X133500000Y-100000000D03*
%TD*%
D13*
%TO.N,/ADC_IN*%
X125485785Y-104000000D02*
X124434314Y-104000000D01*
X119100000Y-97100000D02*
X115000000Y-93000000D01*
X119100000Y-97900000D02*
X119100000Y-97100000D01*
X118500000Y-102500000D02*
X120717157Y-104717157D01*
X118500000Y-98500000D02*
X119100000Y-97900000D01*
X126914215Y-103400000D02*
X126085785Y-103400000D01*
X124434314Y-104000000D02*
X123717157Y-104717157D01*
X126085785Y-103400000D02*
X125485785Y-104000000D01*
X120717157Y-104717157D02*
X123717157Y-104717157D01*
X127514215Y-104000000D02*
X126914215Y-103400000D01*
X118500000Y-102500000D02*
X118500000Y-98500000D01*
X129500000Y-104000000D02*
X127514215Y-104000000D01*
%TO.N,/CHIP_EN*%
X129750000Y-105250000D02*
X132250000Y-105250000D01*
X126500000Y-104400000D02*
X127100000Y-105000000D01*
X129500000Y-105000000D02*
X129750000Y-105250000D01*
X127100000Y-105000000D02*
X129500000Y-105000000D01*
%TO.N,/GPIO16*%
X113797919Y-89122081D02*
X113797919Y-104797919D01*
X122000000Y-107000000D02*
X124500000Y-104500000D01*
X126251471Y-103800000D02*
X126748529Y-103800000D01*
X124500000Y-104500000D02*
X125900000Y-104500000D01*
X116000000Y-107000000D02*
X122000000Y-107000000D01*
X130900000Y-104600000D02*
X132000000Y-103500000D01*
X127548529Y-104600000D02*
X130900000Y-104600000D01*
X126748529Y-103800000D02*
X127548529Y-104600000D01*
X115000000Y-87920000D02*
X113797919Y-89122081D01*
X125900000Y-104500000D02*
X125900000Y-104151471D01*
X113797919Y-104797919D02*
X116000000Y-107000000D01*
X125900000Y-104151471D02*
X126251471Y-103800000D01*
%TO.N,/U0TXD*%
X115000000Y-95540000D02*
X116540000Y-95540000D01*
X116540000Y-95540000D02*
X118500000Y-97500000D01*
%TO.N,Net-(U1-RES12K)*%
X120500000Y-90000000D02*
X117500000Y-93000000D01*
X121500000Y-90000000D02*
X120500000Y-90000000D01*
%TO.N,Net-(U1-SD_CLK)*%
X135001886Y-95000000D02*
X135945686Y-95000000D01*
X139000000Y-92000000D02*
X139500000Y-92500000D01*
X134000000Y-93998114D02*
X135001886Y-95000000D01*
X139000000Y-90000000D02*
X139000000Y-92000000D01*
X135945686Y-95000000D02*
X136087108Y-95141422D01*
%TO.N,/SD_D3*%
X132000000Y-94298114D02*
X132000000Y-94500000D01*
X133500000Y-92798114D02*
X132000000Y-94298114D01*
%TO.N,/SD_D0*%
X129500000Y-94000000D02*
X129500000Y-90000000D01*
%TO.N,/SD_CMD*%
X130100000Y-93600000D02*
X131000000Y-94500000D01*
X130100000Y-92798114D02*
X130100000Y-93600000D01*
%TO.N,+3.3V*%
X126899681Y-102800000D02*
X124700000Y-102800000D01*
X124700000Y-102800000D02*
X124000000Y-103500000D01*
%TD*%
M02*
