M48
; DRILL file {KiCad 8.0.3} date 2024-07-01T13:41:57+0200
; FORMAT={-:-/ absolute / inch / decimal}
; #@! TF.CreationDate,2024-07-01T13:41:57+02:00
; #@! TF.GenerationSoftware,Kicad,Pcbnew,8.0.3
; #@! TF.FileFunction,Plated,1,4,PTH
FMAT,2
INCH
; #@! TA.AperFunction,Plated,PTH,ViaDrill
T1C0.0118
; #@! TA.AperFunction,Plated,PTH,ComponentDrill
T2C0.0394
%
G90
G05
T1
X4.626Y-3.6614
X4.6654Y-3.8386
X4.7244Y-3.9764
X4.7305Y-3.825
X4.7441Y-4.2717
X4.7835Y-3.5433
X4.8819Y-4.0748
X4.9213Y-3.2874
X4.9213Y-3.4449
X4.9213Y-3.6024
X4.9803Y-4.1102
X4.9961Y-4.0472
X5.0394Y-3.248
X5.0787Y-3.3661
X5.0787Y-3.4843
X5.0953Y-4.0512
X5.0984Y-3.5433
X5.0984Y-3.7008
X5.0984Y-4.0945
X5.122Y-3.6535
X5.1575Y-3.3661
X5.1575Y-3.7205
X5.1575Y-4.2126
X5.1772Y-3.6417
X5.1969Y-3.7205
X5.1969Y-4.0748
X5.2067Y-4.1437
X5.2559Y-3.6535
X5.2559Y-3.937
X5.2756Y-3.7007
X5.2765Y-3.8017
X5.3578Y-3.7457
X5.4582Y-4.2323
X5.4724Y-3.5433
X5.4921Y-3.6417
T2
X4.5276Y-3.2614
X4.5276Y-3.3614
X4.5276Y-3.4614
X4.5276Y-3.5614
X4.5276Y-3.6614
X4.5276Y-3.7614
X4.5276Y-3.8614
X4.5276Y-3.9614
X4.5276Y-4.0614
X5.0394Y-4.4685
X5.1394Y-4.4685
X5.6102Y-3.2598
X5.6102Y-3.3598
X5.6102Y-3.4598
X5.6102Y-3.5598
X5.6102Y-3.6598
X5.6102Y-3.7598
X5.6102Y-3.8598
X5.6102Y-3.9598
X5.6102Y-4.0598
M30
