%TF.GenerationSoftware,KiCad,Pcbnew,8.0.3*%
%TF.CreationDate,2024-07-01T13:41:45+02:00*%
%TF.ProjectId,ESP8266,45535038-3236-4362-9e6b-696361645f70,rev?*%
%TF.SameCoordinates,Original*%
%TF.FileFunction,Legend,Top*%
%TF.FilePolarity,Positive*%
%FSLAX46Y46*%
G04 Gerber Fmt 4.6, Leading zero omitted, Abs format (unit mm)*
G04 Created by KiCad (PCBNEW 8.0.3) date 2024-07-01 13:41:45*
%MOMM*%
%LPD*%
G01*
G04 APERTURE LIST*
%ADD10C,0.100000*%
%ADD11C,0.097600*%
%ADD12C,0.150000*%
%ADD13C,0.120000*%
%TA.AperFunction,ComponentPad*%
%ADD14R,1.700000X1.700000*%
%TD*%
%TA.AperFunction,ComponentPad*%
%ADD15O,1.700000X1.700000*%
%TD*%
%TA.AperFunction,ViaPad*%
%ADD16C,0.600000*%
%TD*%
%TA.AperFunction,Conductor*%
%ADD17C,0.200000*%
%TD*%
G04 APERTURE END LIST*
D10*
X116959998Y-90420038D02*
X116910722Y-90372419D01*
X116910722Y-90372419D02*
X116836808Y-90372419D01*
X116836808Y-90372419D02*
X116762893Y-90420038D01*
X116762893Y-90420038D02*
X116713617Y-90515276D01*
X116713617Y-90515276D02*
X116688979Y-90610514D01*
X116688979Y-90610514D02*
X116664341Y-90800990D01*
X116664341Y-90800990D02*
X116664341Y-90943847D01*
X116664341Y-90943847D02*
X116688979Y-91134323D01*
X116688979Y-91134323D02*
X116713617Y-91229561D01*
X116713617Y-91229561D02*
X116762893Y-91324800D01*
X116762893Y-91324800D02*
X116836808Y-91372419D01*
X116836808Y-91372419D02*
X116886084Y-91372419D01*
X116886084Y-91372419D02*
X116959998Y-91324800D01*
X116959998Y-91324800D02*
X116984636Y-91277180D01*
X116984636Y-91277180D02*
X116984636Y-90943847D01*
X116984636Y-90943847D02*
X116886084Y-90943847D01*
X117206379Y-91372419D02*
X117206379Y-90372419D01*
X117206379Y-90372419D02*
X117502036Y-91372419D01*
X117502036Y-91372419D02*
X117502036Y-90372419D01*
X117748417Y-91372419D02*
X117748417Y-90372419D01*
X117748417Y-90372419D02*
X117871607Y-90372419D01*
X117871607Y-90372419D02*
X117945522Y-90420038D01*
X117945522Y-90420038D02*
X117994798Y-90515276D01*
X117994798Y-90515276D02*
X118019436Y-90610514D01*
X118019436Y-90610514D02*
X118044074Y-90800990D01*
X118044074Y-90800990D02*
X118044074Y-90943847D01*
X118044074Y-90943847D02*
X118019436Y-91134323D01*
X118019436Y-91134323D02*
X117994798Y-91229561D01*
X117994798Y-91229561D02*
X117945522Y-91324800D01*
X117945522Y-91324800D02*
X117871607Y-91372419D01*
X117871607Y-91372419D02*
X117748417Y-91372419D01*
X116959998Y-82920038D02*
X116910722Y-82872419D01*
X116910722Y-82872419D02*
X116836808Y-82872419D01*
X116836808Y-82872419D02*
X116762893Y-82920038D01*
X116762893Y-82920038D02*
X116713617Y-83015276D01*
X116713617Y-83015276D02*
X116688979Y-83110514D01*
X116688979Y-83110514D02*
X116664341Y-83300990D01*
X116664341Y-83300990D02*
X116664341Y-83443847D01*
X116664341Y-83443847D02*
X116688979Y-83634323D01*
X116688979Y-83634323D02*
X116713617Y-83729561D01*
X116713617Y-83729561D02*
X116762893Y-83824800D01*
X116762893Y-83824800D02*
X116836808Y-83872419D01*
X116836808Y-83872419D02*
X116886084Y-83872419D01*
X116886084Y-83872419D02*
X116959998Y-83824800D01*
X116959998Y-83824800D02*
X116984636Y-83777180D01*
X116984636Y-83777180D02*
X116984636Y-83443847D01*
X116984636Y-83443847D02*
X116886084Y-83443847D01*
X117206379Y-83872419D02*
X117206379Y-82872419D01*
X117206379Y-82872419D02*
X117502036Y-83872419D01*
X117502036Y-83872419D02*
X117502036Y-82872419D01*
X117748417Y-83872419D02*
X117748417Y-82872419D01*
X117748417Y-82872419D02*
X117871607Y-82872419D01*
X117871607Y-82872419D02*
X117945522Y-82920038D01*
X117945522Y-82920038D02*
X117994798Y-83015276D01*
X117994798Y-83015276D02*
X118019436Y-83110514D01*
X118019436Y-83110514D02*
X118044074Y-83300990D01*
X118044074Y-83300990D02*
X118044074Y-83443847D01*
X118044074Y-83443847D02*
X118019436Y-83634323D01*
X118019436Y-83634323D02*
X117994798Y-83729561D01*
X117994798Y-83729561D02*
X117945522Y-83824800D01*
X117945522Y-83824800D02*
X117871607Y-83872419D01*
X117871607Y-83872419D02*
X117748417Y-83872419D01*
X139959998Y-82920038D02*
X139910722Y-82872419D01*
X139910722Y-82872419D02*
X139836808Y-82872419D01*
X139836808Y-82872419D02*
X139762893Y-82920038D01*
X139762893Y-82920038D02*
X139713617Y-83015276D01*
X139713617Y-83015276D02*
X139688979Y-83110514D01*
X139688979Y-83110514D02*
X139664341Y-83300990D01*
X139664341Y-83300990D02*
X139664341Y-83443847D01*
X139664341Y-83443847D02*
X139688979Y-83634323D01*
X139688979Y-83634323D02*
X139713617Y-83729561D01*
X139713617Y-83729561D02*
X139762893Y-83824800D01*
X139762893Y-83824800D02*
X139836808Y-83872419D01*
X139836808Y-83872419D02*
X139886084Y-83872419D01*
X139886084Y-83872419D02*
X139959998Y-83824800D01*
X139959998Y-83824800D02*
X139984636Y-83777180D01*
X139984636Y-83777180D02*
X139984636Y-83443847D01*
X139984636Y-83443847D02*
X139886084Y-83443847D01*
X140206379Y-83872419D02*
X140206379Y-82872419D01*
X140206379Y-82872419D02*
X140502036Y-83872419D01*
X140502036Y-83872419D02*
X140502036Y-82872419D01*
X140748417Y-83872419D02*
X140748417Y-82872419D01*
X140748417Y-82872419D02*
X140871607Y-82872419D01*
X140871607Y-82872419D02*
X140945522Y-82920038D01*
X140945522Y-82920038D02*
X140994798Y-83015276D01*
X140994798Y-83015276D02*
X141019436Y-83110514D01*
X141019436Y-83110514D02*
X141044074Y-83300990D01*
X141044074Y-83300990D02*
X141044074Y-83443847D01*
X141044074Y-83443847D02*
X141019436Y-83634323D01*
X141019436Y-83634323D02*
X140994798Y-83729561D01*
X140994798Y-83729561D02*
X140945522Y-83824800D01*
X140945522Y-83824800D02*
X140871607Y-83872419D01*
X140871607Y-83872419D02*
X140748417Y-83872419D01*
D11*
X127861657Y-110920162D02*
X127824476Y-110872543D01*
X127824476Y-110872543D02*
X127768705Y-110872543D01*
X127768705Y-110872543D02*
X127712933Y-110920162D01*
X127712933Y-110920162D02*
X127675752Y-111015400D01*
X127675752Y-111015400D02*
X127657162Y-111110638D01*
X127657162Y-111110638D02*
X127638571Y-111301114D01*
X127638571Y-111301114D02*
X127638571Y-111443971D01*
X127638571Y-111443971D02*
X127657162Y-111634447D01*
X127657162Y-111634447D02*
X127675752Y-111729685D01*
X127675752Y-111729685D02*
X127712933Y-111824924D01*
X127712933Y-111824924D02*
X127768705Y-111872543D01*
X127768705Y-111872543D02*
X127805886Y-111872543D01*
X127805886Y-111872543D02*
X127861657Y-111824924D01*
X127861657Y-111824924D02*
X127880248Y-111777304D01*
X127880248Y-111777304D02*
X127880248Y-111443971D01*
X127880248Y-111443971D02*
X127805886Y-111443971D01*
X128047562Y-111872543D02*
X128047562Y-110872543D01*
X128047562Y-110872543D02*
X128270648Y-111872543D01*
X128270648Y-111872543D02*
X128270648Y-110872543D01*
X128456552Y-111872543D02*
X128456552Y-110872543D01*
X128456552Y-110872543D02*
X128549504Y-110872543D01*
X128549504Y-110872543D02*
X128605276Y-110920162D01*
X128605276Y-110920162D02*
X128642457Y-111015400D01*
X128642457Y-111015400D02*
X128661047Y-111110638D01*
X128661047Y-111110638D02*
X128679638Y-111301114D01*
X128679638Y-111301114D02*
X128679638Y-111443971D01*
X128679638Y-111443971D02*
X128661047Y-111634447D01*
X128661047Y-111634447D02*
X128642457Y-111729685D01*
X128642457Y-111729685D02*
X128605276Y-111824924D01*
X128605276Y-111824924D02*
X128549504Y-111872543D01*
X128549504Y-111872543D02*
X128456552Y-111872543D01*
D10*
X116688979Y-97872419D02*
X116688979Y-98681942D01*
X116688979Y-98681942D02*
X116713617Y-98777180D01*
X116713617Y-98777180D02*
X116738255Y-98824800D01*
X116738255Y-98824800D02*
X116787531Y-98872419D01*
X116787531Y-98872419D02*
X116886084Y-98872419D01*
X116886084Y-98872419D02*
X116935360Y-98824800D01*
X116935360Y-98824800D02*
X116959998Y-98777180D01*
X116959998Y-98777180D02*
X116984636Y-98681942D01*
X116984636Y-98681942D02*
X116984636Y-97872419D01*
X117329569Y-97872419D02*
X117378846Y-97872419D01*
X117378846Y-97872419D02*
X117428122Y-97920038D01*
X117428122Y-97920038D02*
X117452760Y-97967657D01*
X117452760Y-97967657D02*
X117477398Y-98062895D01*
X117477398Y-98062895D02*
X117502036Y-98253371D01*
X117502036Y-98253371D02*
X117502036Y-98491466D01*
X117502036Y-98491466D02*
X117477398Y-98681942D01*
X117477398Y-98681942D02*
X117452760Y-98777180D01*
X117452760Y-98777180D02*
X117428122Y-98824800D01*
X117428122Y-98824800D02*
X117378846Y-98872419D01*
X117378846Y-98872419D02*
X117329569Y-98872419D01*
X117329569Y-98872419D02*
X117280293Y-98824800D01*
X117280293Y-98824800D02*
X117255655Y-98777180D01*
X117255655Y-98777180D02*
X117231017Y-98681942D01*
X117231017Y-98681942D02*
X117206379Y-98491466D01*
X117206379Y-98491466D02*
X117206379Y-98253371D01*
X117206379Y-98253371D02*
X117231017Y-98062895D01*
X117231017Y-98062895D02*
X117255655Y-97967657D01*
X117255655Y-97967657D02*
X117280293Y-97920038D01*
X117280293Y-97920038D02*
X117329569Y-97872419D01*
X118019436Y-98872419D02*
X117846969Y-98396228D01*
X117723779Y-98872419D02*
X117723779Y-97872419D01*
X117723779Y-97872419D02*
X117920884Y-97872419D01*
X117920884Y-97872419D02*
X117970160Y-97920038D01*
X117970160Y-97920038D02*
X117994798Y-97967657D01*
X117994798Y-97967657D02*
X118019436Y-98062895D01*
X118019436Y-98062895D02*
X118019436Y-98205752D01*
X118019436Y-98205752D02*
X117994798Y-98300990D01*
X117994798Y-98300990D02*
X117970160Y-98348609D01*
X117970160Y-98348609D02*
X117920884Y-98396228D01*
X117920884Y-98396228D02*
X117723779Y-98396228D01*
X118191903Y-97872419D02*
X118536836Y-98872419D01*
X118536836Y-97872419D02*
X118191903Y-98872419D01*
X118733941Y-98872419D02*
X118733941Y-97872419D01*
X118733941Y-97872419D02*
X118857131Y-97872419D01*
X118857131Y-97872419D02*
X118931046Y-97920038D01*
X118931046Y-97920038D02*
X118980322Y-98015276D01*
X118980322Y-98015276D02*
X119004960Y-98110514D01*
X119004960Y-98110514D02*
X119029598Y-98300990D01*
X119029598Y-98300990D02*
X119029598Y-98443847D01*
X119029598Y-98443847D02*
X119004960Y-98634323D01*
X119004960Y-98634323D02*
X118980322Y-98729561D01*
X118980322Y-98729561D02*
X118931046Y-98824800D01*
X118931046Y-98824800D02*
X118857131Y-98872419D01*
X118857131Y-98872419D02*
X118733941Y-98872419D01*
X116688979Y-103991466D02*
X117083189Y-103991466D01*
X116886084Y-104372419D02*
X116886084Y-103610514D01*
X117280293Y-103372419D02*
X117600588Y-103372419D01*
X117600588Y-103372419D02*
X117428121Y-103753371D01*
X117428121Y-103753371D02*
X117502036Y-103753371D01*
X117502036Y-103753371D02*
X117551312Y-103800990D01*
X117551312Y-103800990D02*
X117575950Y-103848609D01*
X117575950Y-103848609D02*
X117600588Y-103943847D01*
X117600588Y-103943847D02*
X117600588Y-104181942D01*
X117600588Y-104181942D02*
X117575950Y-104277180D01*
X117575950Y-104277180D02*
X117551312Y-104324800D01*
X117551312Y-104324800D02*
X117502036Y-104372419D01*
X117502036Y-104372419D02*
X117354207Y-104372419D01*
X117354207Y-104372419D02*
X117304931Y-104324800D01*
X117304931Y-104324800D02*
X117280293Y-104277180D01*
X117822331Y-104277180D02*
X117846969Y-104324800D01*
X117846969Y-104324800D02*
X117822331Y-104372419D01*
X117822331Y-104372419D02*
X117797693Y-104324800D01*
X117797693Y-104324800D02*
X117822331Y-104277180D01*
X117822331Y-104277180D02*
X117822331Y-104372419D01*
X118019436Y-103372419D02*
X118339731Y-103372419D01*
X118339731Y-103372419D02*
X118167264Y-103753371D01*
X118167264Y-103753371D02*
X118241179Y-103753371D01*
X118241179Y-103753371D02*
X118290455Y-103800990D01*
X118290455Y-103800990D02*
X118315093Y-103848609D01*
X118315093Y-103848609D02*
X118339731Y-103943847D01*
X118339731Y-103943847D02*
X118339731Y-104181942D01*
X118339731Y-104181942D02*
X118315093Y-104277180D01*
X118315093Y-104277180D02*
X118290455Y-104324800D01*
X118290455Y-104324800D02*
X118241179Y-104372419D01*
X118241179Y-104372419D02*
X118093350Y-104372419D01*
X118093350Y-104372419D02*
X118044074Y-104324800D01*
X118044074Y-104324800D02*
X118019436Y-104277180D01*
X118487560Y-103372419D02*
X118660026Y-104372419D01*
X118660026Y-104372419D02*
X118832493Y-103372419D01*
X116688979Y-95372419D02*
X116688979Y-96181942D01*
X116688979Y-96181942D02*
X116713617Y-96277180D01*
X116713617Y-96277180D02*
X116738255Y-96324800D01*
X116738255Y-96324800D02*
X116787531Y-96372419D01*
X116787531Y-96372419D02*
X116886084Y-96372419D01*
X116886084Y-96372419D02*
X116935360Y-96324800D01*
X116935360Y-96324800D02*
X116959998Y-96277180D01*
X116959998Y-96277180D02*
X116984636Y-96181942D01*
X116984636Y-96181942D02*
X116984636Y-95372419D01*
X117329569Y-95372419D02*
X117378846Y-95372419D01*
X117378846Y-95372419D02*
X117428122Y-95420038D01*
X117428122Y-95420038D02*
X117452760Y-95467657D01*
X117452760Y-95467657D02*
X117477398Y-95562895D01*
X117477398Y-95562895D02*
X117502036Y-95753371D01*
X117502036Y-95753371D02*
X117502036Y-95991466D01*
X117502036Y-95991466D02*
X117477398Y-96181942D01*
X117477398Y-96181942D02*
X117452760Y-96277180D01*
X117452760Y-96277180D02*
X117428122Y-96324800D01*
X117428122Y-96324800D02*
X117378846Y-96372419D01*
X117378846Y-96372419D02*
X117329569Y-96372419D01*
X117329569Y-96372419D02*
X117280293Y-96324800D01*
X117280293Y-96324800D02*
X117255655Y-96277180D01*
X117255655Y-96277180D02*
X117231017Y-96181942D01*
X117231017Y-96181942D02*
X117206379Y-95991466D01*
X117206379Y-95991466D02*
X117206379Y-95753371D01*
X117206379Y-95753371D02*
X117231017Y-95562895D01*
X117231017Y-95562895D02*
X117255655Y-95467657D01*
X117255655Y-95467657D02*
X117280293Y-95420038D01*
X117280293Y-95420038D02*
X117329569Y-95372419D01*
X117649865Y-95372419D02*
X117945522Y-95372419D01*
X117797693Y-96372419D02*
X117797693Y-95372419D01*
X118068713Y-95372419D02*
X118413646Y-96372419D01*
X118413646Y-95372419D02*
X118068713Y-96372419D01*
X118610751Y-96372419D02*
X118610751Y-95372419D01*
X118610751Y-95372419D02*
X118733941Y-95372419D01*
X118733941Y-95372419D02*
X118807856Y-95420038D01*
X118807856Y-95420038D02*
X118857132Y-95515276D01*
X118857132Y-95515276D02*
X118881770Y-95610514D01*
X118881770Y-95610514D02*
X118906408Y-95800990D01*
X118906408Y-95800990D02*
X118906408Y-95943847D01*
X118906408Y-95943847D02*
X118881770Y-96134323D01*
X118881770Y-96134323D02*
X118857132Y-96229561D01*
X118857132Y-96229561D02*
X118807856Y-96324800D01*
X118807856Y-96324800D02*
X118733941Y-96372419D01*
X118733941Y-96372419D02*
X118610751Y-96372419D01*
X138459998Y-100310094D02*
X138410722Y-100262475D01*
X138410722Y-100262475D02*
X138336808Y-100262475D01*
X138336808Y-100262475D02*
X138262893Y-100310094D01*
X138262893Y-100310094D02*
X138213617Y-100405332D01*
X138213617Y-100405332D02*
X138188979Y-100500570D01*
X138188979Y-100500570D02*
X138164341Y-100691046D01*
X138164341Y-100691046D02*
X138164341Y-100833903D01*
X138164341Y-100833903D02*
X138188979Y-101024379D01*
X138188979Y-101024379D02*
X138213617Y-101119617D01*
X138213617Y-101119617D02*
X138262893Y-101214856D01*
X138262893Y-101214856D02*
X138336808Y-101262475D01*
X138336808Y-101262475D02*
X138386084Y-101262475D01*
X138386084Y-101262475D02*
X138459998Y-101214856D01*
X138459998Y-101214856D02*
X138484636Y-101167236D01*
X138484636Y-101167236D02*
X138484636Y-100833903D01*
X138484636Y-100833903D02*
X138386084Y-100833903D01*
X138706379Y-101262475D02*
X138706379Y-100262475D01*
X138706379Y-100262475D02*
X138903484Y-100262475D01*
X138903484Y-100262475D02*
X138952760Y-100310094D01*
X138952760Y-100310094D02*
X138977398Y-100357713D01*
X138977398Y-100357713D02*
X139002036Y-100452951D01*
X139002036Y-100452951D02*
X139002036Y-100595808D01*
X139002036Y-100595808D02*
X138977398Y-100691046D01*
X138977398Y-100691046D02*
X138952760Y-100738665D01*
X138952760Y-100738665D02*
X138903484Y-100786284D01*
X138903484Y-100786284D02*
X138706379Y-100786284D01*
X139223779Y-101262475D02*
X139223779Y-100262475D01*
X139568712Y-100262475D02*
X139617989Y-100262475D01*
X139617989Y-100262475D02*
X139667265Y-100310094D01*
X139667265Y-100310094D02*
X139691903Y-100357713D01*
X139691903Y-100357713D02*
X139716541Y-100452951D01*
X139716541Y-100452951D02*
X139741179Y-100643427D01*
X139741179Y-100643427D02*
X139741179Y-100881522D01*
X139741179Y-100881522D02*
X139716541Y-101071998D01*
X139716541Y-101071998D02*
X139691903Y-101167236D01*
X139691903Y-101167236D02*
X139667265Y-101214856D01*
X139667265Y-101214856D02*
X139617989Y-101262475D01*
X139617989Y-101262475D02*
X139568712Y-101262475D01*
X139568712Y-101262475D02*
X139519436Y-101214856D01*
X139519436Y-101214856D02*
X139494798Y-101167236D01*
X139494798Y-101167236D02*
X139470160Y-101071998D01*
X139470160Y-101071998D02*
X139445522Y-100881522D01*
X139445522Y-100881522D02*
X139445522Y-100643427D01*
X139445522Y-100643427D02*
X139470160Y-100452951D01*
X139470160Y-100452951D02*
X139494798Y-100357713D01*
X139494798Y-100357713D02*
X139519436Y-100310094D01*
X139519436Y-100310094D02*
X139568712Y-100262475D01*
X140233941Y-101262475D02*
X139938284Y-101262475D01*
X140086112Y-101262475D02*
X140086112Y-100262475D01*
X140086112Y-100262475D02*
X140036836Y-100405332D01*
X140036836Y-100405332D02*
X139987560Y-100500570D01*
X139987560Y-100500570D02*
X139938284Y-100548189D01*
X140431046Y-100357713D02*
X140455684Y-100310094D01*
X140455684Y-100310094D02*
X140504960Y-100262475D01*
X140504960Y-100262475D02*
X140628151Y-100262475D01*
X140628151Y-100262475D02*
X140677427Y-100310094D01*
X140677427Y-100310094D02*
X140702065Y-100357713D01*
X140702065Y-100357713D02*
X140726703Y-100452951D01*
X140726703Y-100452951D02*
X140726703Y-100548189D01*
X140726703Y-100548189D02*
X140702065Y-100691046D01*
X140702065Y-100691046D02*
X140406408Y-101262475D01*
X140406408Y-101262475D02*
X140726703Y-101262475D01*
X138459998Y-103310094D02*
X138410722Y-103262475D01*
X138410722Y-103262475D02*
X138336808Y-103262475D01*
X138336808Y-103262475D02*
X138262893Y-103310094D01*
X138262893Y-103310094D02*
X138213617Y-103405332D01*
X138213617Y-103405332D02*
X138188979Y-103500570D01*
X138188979Y-103500570D02*
X138164341Y-103691046D01*
X138164341Y-103691046D02*
X138164341Y-103833903D01*
X138164341Y-103833903D02*
X138188979Y-104024379D01*
X138188979Y-104024379D02*
X138213617Y-104119617D01*
X138213617Y-104119617D02*
X138262893Y-104214856D01*
X138262893Y-104214856D02*
X138336808Y-104262475D01*
X138336808Y-104262475D02*
X138386084Y-104262475D01*
X138386084Y-104262475D02*
X138459998Y-104214856D01*
X138459998Y-104214856D02*
X138484636Y-104167236D01*
X138484636Y-104167236D02*
X138484636Y-103833903D01*
X138484636Y-103833903D02*
X138386084Y-103833903D01*
X138706379Y-104262475D02*
X138706379Y-103262475D01*
X138706379Y-103262475D02*
X138903484Y-103262475D01*
X138903484Y-103262475D02*
X138952760Y-103310094D01*
X138952760Y-103310094D02*
X138977398Y-103357713D01*
X138977398Y-103357713D02*
X139002036Y-103452951D01*
X139002036Y-103452951D02*
X139002036Y-103595808D01*
X139002036Y-103595808D02*
X138977398Y-103691046D01*
X138977398Y-103691046D02*
X138952760Y-103738665D01*
X138952760Y-103738665D02*
X138903484Y-103786284D01*
X138903484Y-103786284D02*
X138706379Y-103786284D01*
X139223779Y-104262475D02*
X139223779Y-103262475D01*
X139568712Y-103262475D02*
X139617989Y-103262475D01*
X139617989Y-103262475D02*
X139667265Y-103310094D01*
X139667265Y-103310094D02*
X139691903Y-103357713D01*
X139691903Y-103357713D02*
X139716541Y-103452951D01*
X139716541Y-103452951D02*
X139741179Y-103643427D01*
X139741179Y-103643427D02*
X139741179Y-103881522D01*
X139741179Y-103881522D02*
X139716541Y-104071998D01*
X139716541Y-104071998D02*
X139691903Y-104167236D01*
X139691903Y-104167236D02*
X139667265Y-104214856D01*
X139667265Y-104214856D02*
X139617989Y-104262475D01*
X139617989Y-104262475D02*
X139568712Y-104262475D01*
X139568712Y-104262475D02*
X139519436Y-104214856D01*
X139519436Y-104214856D02*
X139494798Y-104167236D01*
X139494798Y-104167236D02*
X139470160Y-104071998D01*
X139470160Y-104071998D02*
X139445522Y-103881522D01*
X139445522Y-103881522D02*
X139445522Y-103643427D01*
X139445522Y-103643427D02*
X139470160Y-103452951D01*
X139470160Y-103452951D02*
X139494798Y-103357713D01*
X139494798Y-103357713D02*
X139519436Y-103310094D01*
X139519436Y-103310094D02*
X139568712Y-103262475D01*
X140233941Y-104262475D02*
X139938284Y-104262475D01*
X140086112Y-104262475D02*
X140086112Y-103262475D01*
X140086112Y-103262475D02*
X140036836Y-103405332D01*
X140036836Y-103405332D02*
X139987560Y-103500570D01*
X139987560Y-103500570D02*
X139938284Y-103548189D01*
X140677427Y-103595808D02*
X140677427Y-104262475D01*
X140554236Y-103214856D02*
X140431046Y-103929141D01*
X140431046Y-103929141D02*
X140751341Y-103929141D01*
D11*
X130138571Y-111586828D02*
X130324476Y-111586828D01*
X130101390Y-111872543D02*
X130231524Y-110872543D01*
X130231524Y-110872543D02*
X130361657Y-111872543D01*
X130491791Y-111872543D02*
X130491791Y-110872543D01*
X130491791Y-110872543D02*
X130714877Y-111872543D01*
X130714877Y-111872543D02*
X130714877Y-110872543D01*
X130845009Y-110872543D02*
X131068095Y-110872543D01*
X130956552Y-111872543D02*
X130956552Y-110872543D01*
D10*
X116959998Y-87920038D02*
X116910722Y-87872419D01*
X116910722Y-87872419D02*
X116836808Y-87872419D01*
X116836808Y-87872419D02*
X116762893Y-87920038D01*
X116762893Y-87920038D02*
X116713617Y-88015276D01*
X116713617Y-88015276D02*
X116688979Y-88110514D01*
X116688979Y-88110514D02*
X116664341Y-88300990D01*
X116664341Y-88300990D02*
X116664341Y-88443847D01*
X116664341Y-88443847D02*
X116688979Y-88634323D01*
X116688979Y-88634323D02*
X116713617Y-88729561D01*
X116713617Y-88729561D02*
X116762893Y-88824800D01*
X116762893Y-88824800D02*
X116836808Y-88872419D01*
X116836808Y-88872419D02*
X116886084Y-88872419D01*
X116886084Y-88872419D02*
X116959998Y-88824800D01*
X116959998Y-88824800D02*
X116984636Y-88777180D01*
X116984636Y-88777180D02*
X116984636Y-88443847D01*
X116984636Y-88443847D02*
X116886084Y-88443847D01*
X117206379Y-88872419D02*
X117206379Y-87872419D01*
X117206379Y-87872419D02*
X117403484Y-87872419D01*
X117403484Y-87872419D02*
X117452760Y-87920038D01*
X117452760Y-87920038D02*
X117477398Y-87967657D01*
X117477398Y-87967657D02*
X117502036Y-88062895D01*
X117502036Y-88062895D02*
X117502036Y-88205752D01*
X117502036Y-88205752D02*
X117477398Y-88300990D01*
X117477398Y-88300990D02*
X117452760Y-88348609D01*
X117452760Y-88348609D02*
X117403484Y-88396228D01*
X117403484Y-88396228D02*
X117206379Y-88396228D01*
X117723779Y-88872419D02*
X117723779Y-87872419D01*
X118068712Y-87872419D02*
X118117989Y-87872419D01*
X118117989Y-87872419D02*
X118167265Y-87920038D01*
X118167265Y-87920038D02*
X118191903Y-87967657D01*
X118191903Y-87967657D02*
X118216541Y-88062895D01*
X118216541Y-88062895D02*
X118241179Y-88253371D01*
X118241179Y-88253371D02*
X118241179Y-88491466D01*
X118241179Y-88491466D02*
X118216541Y-88681942D01*
X118216541Y-88681942D02*
X118191903Y-88777180D01*
X118191903Y-88777180D02*
X118167265Y-88824800D01*
X118167265Y-88824800D02*
X118117989Y-88872419D01*
X118117989Y-88872419D02*
X118068712Y-88872419D01*
X118068712Y-88872419D02*
X118019436Y-88824800D01*
X118019436Y-88824800D02*
X117994798Y-88777180D01*
X117994798Y-88777180D02*
X117970160Y-88681942D01*
X117970160Y-88681942D02*
X117945522Y-88491466D01*
X117945522Y-88491466D02*
X117945522Y-88253371D01*
X117945522Y-88253371D02*
X117970160Y-88062895D01*
X117970160Y-88062895D02*
X117994798Y-87967657D01*
X117994798Y-87967657D02*
X118019436Y-87920038D01*
X118019436Y-87920038D02*
X118068712Y-87872419D01*
X118733941Y-88872419D02*
X118438284Y-88872419D01*
X118586112Y-88872419D02*
X118586112Y-87872419D01*
X118586112Y-87872419D02*
X118536836Y-88015276D01*
X118536836Y-88015276D02*
X118487560Y-88110514D01*
X118487560Y-88110514D02*
X118438284Y-88158133D01*
X119177427Y-87872419D02*
X119078874Y-87872419D01*
X119078874Y-87872419D02*
X119029598Y-87920038D01*
X119029598Y-87920038D02*
X119004960Y-87967657D01*
X119004960Y-87967657D02*
X118955684Y-88110514D01*
X118955684Y-88110514D02*
X118931046Y-88300990D01*
X118931046Y-88300990D02*
X118931046Y-88681942D01*
X118931046Y-88681942D02*
X118955684Y-88777180D01*
X118955684Y-88777180D02*
X118980322Y-88824800D01*
X118980322Y-88824800D02*
X119029598Y-88872419D01*
X119029598Y-88872419D02*
X119128151Y-88872419D01*
X119128151Y-88872419D02*
X119177427Y-88824800D01*
X119177427Y-88824800D02*
X119202065Y-88777180D01*
X119202065Y-88777180D02*
X119226703Y-88681942D01*
X119226703Y-88681942D02*
X119226703Y-88443847D01*
X119226703Y-88443847D02*
X119202065Y-88348609D01*
X119202065Y-88348609D02*
X119177427Y-88300990D01*
X119177427Y-88300990D02*
X119128151Y-88253371D01*
X119128151Y-88253371D02*
X119029598Y-88253371D01*
X119029598Y-88253371D02*
X118980322Y-88300990D01*
X118980322Y-88300990D02*
X118955684Y-88348609D01*
X118955684Y-88348609D02*
X118931046Y-88443847D01*
X138459998Y-95420038D02*
X138410722Y-95372419D01*
X138410722Y-95372419D02*
X138336808Y-95372419D01*
X138336808Y-95372419D02*
X138262893Y-95420038D01*
X138262893Y-95420038D02*
X138213617Y-95515276D01*
X138213617Y-95515276D02*
X138188979Y-95610514D01*
X138188979Y-95610514D02*
X138164341Y-95800990D01*
X138164341Y-95800990D02*
X138164341Y-95943847D01*
X138164341Y-95943847D02*
X138188979Y-96134323D01*
X138188979Y-96134323D02*
X138213617Y-96229561D01*
X138213617Y-96229561D02*
X138262893Y-96324800D01*
X138262893Y-96324800D02*
X138336808Y-96372419D01*
X138336808Y-96372419D02*
X138386084Y-96372419D01*
X138386084Y-96372419D02*
X138459998Y-96324800D01*
X138459998Y-96324800D02*
X138484636Y-96277180D01*
X138484636Y-96277180D02*
X138484636Y-95943847D01*
X138484636Y-95943847D02*
X138386084Y-95943847D01*
X138706379Y-96372419D02*
X138706379Y-95372419D01*
X138706379Y-95372419D02*
X138903484Y-95372419D01*
X138903484Y-95372419D02*
X138952760Y-95420038D01*
X138952760Y-95420038D02*
X138977398Y-95467657D01*
X138977398Y-95467657D02*
X139002036Y-95562895D01*
X139002036Y-95562895D02*
X139002036Y-95705752D01*
X139002036Y-95705752D02*
X138977398Y-95800990D01*
X138977398Y-95800990D02*
X138952760Y-95848609D01*
X138952760Y-95848609D02*
X138903484Y-95896228D01*
X138903484Y-95896228D02*
X138706379Y-95896228D01*
X139223779Y-96372419D02*
X139223779Y-95372419D01*
X139568712Y-95372419D02*
X139617989Y-95372419D01*
X139617989Y-95372419D02*
X139667265Y-95420038D01*
X139667265Y-95420038D02*
X139691903Y-95467657D01*
X139691903Y-95467657D02*
X139716541Y-95562895D01*
X139716541Y-95562895D02*
X139741179Y-95753371D01*
X139741179Y-95753371D02*
X139741179Y-95991466D01*
X139741179Y-95991466D02*
X139716541Y-96181942D01*
X139716541Y-96181942D02*
X139691903Y-96277180D01*
X139691903Y-96277180D02*
X139667265Y-96324800D01*
X139667265Y-96324800D02*
X139617989Y-96372419D01*
X139617989Y-96372419D02*
X139568712Y-96372419D01*
X139568712Y-96372419D02*
X139519436Y-96324800D01*
X139519436Y-96324800D02*
X139494798Y-96277180D01*
X139494798Y-96277180D02*
X139470160Y-96181942D01*
X139470160Y-96181942D02*
X139445522Y-95991466D01*
X139445522Y-95991466D02*
X139445522Y-95753371D01*
X139445522Y-95753371D02*
X139470160Y-95562895D01*
X139470160Y-95562895D02*
X139494798Y-95467657D01*
X139494798Y-95467657D02*
X139519436Y-95420038D01*
X139519436Y-95420038D02*
X139568712Y-95372419D01*
X140233941Y-96372419D02*
X139938284Y-96372419D01*
X140086112Y-96372419D02*
X140086112Y-95372419D01*
X140086112Y-95372419D02*
X140036836Y-95515276D01*
X140036836Y-95515276D02*
X139987560Y-95610514D01*
X139987560Y-95610514D02*
X139938284Y-95658133D01*
X140702065Y-95372419D02*
X140455684Y-95372419D01*
X140455684Y-95372419D02*
X140431046Y-95848609D01*
X140431046Y-95848609D02*
X140455684Y-95800990D01*
X140455684Y-95800990D02*
X140504960Y-95753371D01*
X140504960Y-95753371D02*
X140628151Y-95753371D01*
X140628151Y-95753371D02*
X140677427Y-95800990D01*
X140677427Y-95800990D02*
X140702065Y-95848609D01*
X140702065Y-95848609D02*
X140726703Y-95943847D01*
X140726703Y-95943847D02*
X140726703Y-96181942D01*
X140726703Y-96181942D02*
X140702065Y-96277180D01*
X140702065Y-96277180D02*
X140677427Y-96324800D01*
X140677427Y-96324800D02*
X140628151Y-96372419D01*
X140628151Y-96372419D02*
X140504960Y-96372419D01*
X140504960Y-96372419D02*
X140455684Y-96324800D01*
X140455684Y-96324800D02*
X140431046Y-96277180D01*
X138959998Y-87920038D02*
X138910722Y-87872419D01*
X138910722Y-87872419D02*
X138836808Y-87872419D01*
X138836808Y-87872419D02*
X138762893Y-87920038D01*
X138762893Y-87920038D02*
X138713617Y-88015276D01*
X138713617Y-88015276D02*
X138688979Y-88110514D01*
X138688979Y-88110514D02*
X138664341Y-88300990D01*
X138664341Y-88300990D02*
X138664341Y-88443847D01*
X138664341Y-88443847D02*
X138688979Y-88634323D01*
X138688979Y-88634323D02*
X138713617Y-88729561D01*
X138713617Y-88729561D02*
X138762893Y-88824800D01*
X138762893Y-88824800D02*
X138836808Y-88872419D01*
X138836808Y-88872419D02*
X138886084Y-88872419D01*
X138886084Y-88872419D02*
X138959998Y-88824800D01*
X138959998Y-88824800D02*
X138984636Y-88777180D01*
X138984636Y-88777180D02*
X138984636Y-88443847D01*
X138984636Y-88443847D02*
X138886084Y-88443847D01*
X139206379Y-88872419D02*
X139206379Y-87872419D01*
X139206379Y-87872419D02*
X139403484Y-87872419D01*
X139403484Y-87872419D02*
X139452760Y-87920038D01*
X139452760Y-87920038D02*
X139477398Y-87967657D01*
X139477398Y-87967657D02*
X139502036Y-88062895D01*
X139502036Y-88062895D02*
X139502036Y-88205752D01*
X139502036Y-88205752D02*
X139477398Y-88300990D01*
X139477398Y-88300990D02*
X139452760Y-88348609D01*
X139452760Y-88348609D02*
X139403484Y-88396228D01*
X139403484Y-88396228D02*
X139206379Y-88396228D01*
X139723779Y-88872419D02*
X139723779Y-87872419D01*
X140068712Y-87872419D02*
X140117989Y-87872419D01*
X140117989Y-87872419D02*
X140167265Y-87920038D01*
X140167265Y-87920038D02*
X140191903Y-87967657D01*
X140191903Y-87967657D02*
X140216541Y-88062895D01*
X140216541Y-88062895D02*
X140241179Y-88253371D01*
X140241179Y-88253371D02*
X140241179Y-88491466D01*
X140241179Y-88491466D02*
X140216541Y-88681942D01*
X140216541Y-88681942D02*
X140191903Y-88777180D01*
X140191903Y-88777180D02*
X140167265Y-88824800D01*
X140167265Y-88824800D02*
X140117989Y-88872419D01*
X140117989Y-88872419D02*
X140068712Y-88872419D01*
X140068712Y-88872419D02*
X140019436Y-88824800D01*
X140019436Y-88824800D02*
X139994798Y-88777180D01*
X139994798Y-88777180D02*
X139970160Y-88681942D01*
X139970160Y-88681942D02*
X139945522Y-88491466D01*
X139945522Y-88491466D02*
X139945522Y-88253371D01*
X139945522Y-88253371D02*
X139970160Y-88062895D01*
X139970160Y-88062895D02*
X139994798Y-87967657D01*
X139994798Y-87967657D02*
X140019436Y-87920038D01*
X140019436Y-87920038D02*
X140068712Y-87872419D01*
X140684665Y-88205752D02*
X140684665Y-88872419D01*
X140561474Y-87824800D02*
X140438284Y-88539085D01*
X140438284Y-88539085D02*
X140758579Y-88539085D01*
X138459998Y-97920038D02*
X138410722Y-97872419D01*
X138410722Y-97872419D02*
X138336808Y-97872419D01*
X138336808Y-97872419D02*
X138262893Y-97920038D01*
X138262893Y-97920038D02*
X138213617Y-98015276D01*
X138213617Y-98015276D02*
X138188979Y-98110514D01*
X138188979Y-98110514D02*
X138164341Y-98300990D01*
X138164341Y-98300990D02*
X138164341Y-98443847D01*
X138164341Y-98443847D02*
X138188979Y-98634323D01*
X138188979Y-98634323D02*
X138213617Y-98729561D01*
X138213617Y-98729561D02*
X138262893Y-98824800D01*
X138262893Y-98824800D02*
X138336808Y-98872419D01*
X138336808Y-98872419D02*
X138386084Y-98872419D01*
X138386084Y-98872419D02*
X138459998Y-98824800D01*
X138459998Y-98824800D02*
X138484636Y-98777180D01*
X138484636Y-98777180D02*
X138484636Y-98443847D01*
X138484636Y-98443847D02*
X138386084Y-98443847D01*
X138706379Y-98872419D02*
X138706379Y-97872419D01*
X138706379Y-97872419D02*
X138903484Y-97872419D01*
X138903484Y-97872419D02*
X138952760Y-97920038D01*
X138952760Y-97920038D02*
X138977398Y-97967657D01*
X138977398Y-97967657D02*
X139002036Y-98062895D01*
X139002036Y-98062895D02*
X139002036Y-98205752D01*
X139002036Y-98205752D02*
X138977398Y-98300990D01*
X138977398Y-98300990D02*
X138952760Y-98348609D01*
X138952760Y-98348609D02*
X138903484Y-98396228D01*
X138903484Y-98396228D02*
X138706379Y-98396228D01*
X139223779Y-98872419D02*
X139223779Y-97872419D01*
X139568712Y-97872419D02*
X139617989Y-97872419D01*
X139617989Y-97872419D02*
X139667265Y-97920038D01*
X139667265Y-97920038D02*
X139691903Y-97967657D01*
X139691903Y-97967657D02*
X139716541Y-98062895D01*
X139716541Y-98062895D02*
X139741179Y-98253371D01*
X139741179Y-98253371D02*
X139741179Y-98491466D01*
X139741179Y-98491466D02*
X139716541Y-98681942D01*
X139716541Y-98681942D02*
X139691903Y-98777180D01*
X139691903Y-98777180D02*
X139667265Y-98824800D01*
X139667265Y-98824800D02*
X139617989Y-98872419D01*
X139617989Y-98872419D02*
X139568712Y-98872419D01*
X139568712Y-98872419D02*
X139519436Y-98824800D01*
X139519436Y-98824800D02*
X139494798Y-98777180D01*
X139494798Y-98777180D02*
X139470160Y-98681942D01*
X139470160Y-98681942D02*
X139445522Y-98491466D01*
X139445522Y-98491466D02*
X139445522Y-98253371D01*
X139445522Y-98253371D02*
X139470160Y-98062895D01*
X139470160Y-98062895D02*
X139494798Y-97967657D01*
X139494798Y-97967657D02*
X139519436Y-97920038D01*
X139519436Y-97920038D02*
X139568712Y-97872419D01*
X140233941Y-98872419D02*
X139938284Y-98872419D01*
X140086112Y-98872419D02*
X140086112Y-97872419D01*
X140086112Y-97872419D02*
X140036836Y-98015276D01*
X140036836Y-98015276D02*
X139987560Y-98110514D01*
X139987560Y-98110514D02*
X139938284Y-98158133D01*
X140406408Y-97872419D02*
X140726703Y-97872419D01*
X140726703Y-97872419D02*
X140554236Y-98253371D01*
X140554236Y-98253371D02*
X140628151Y-98253371D01*
X140628151Y-98253371D02*
X140677427Y-98300990D01*
X140677427Y-98300990D02*
X140702065Y-98348609D01*
X140702065Y-98348609D02*
X140726703Y-98443847D01*
X140726703Y-98443847D02*
X140726703Y-98681942D01*
X140726703Y-98681942D02*
X140702065Y-98777180D01*
X140702065Y-98777180D02*
X140677427Y-98824800D01*
X140677427Y-98824800D02*
X140628151Y-98872419D01*
X140628151Y-98872419D02*
X140480322Y-98872419D01*
X140480322Y-98872419D02*
X140431046Y-98824800D01*
X140431046Y-98824800D02*
X140406408Y-98777180D01*
X139959998Y-85420038D02*
X139910722Y-85372419D01*
X139910722Y-85372419D02*
X139836808Y-85372419D01*
X139836808Y-85372419D02*
X139762893Y-85420038D01*
X139762893Y-85420038D02*
X139713617Y-85515276D01*
X139713617Y-85515276D02*
X139688979Y-85610514D01*
X139688979Y-85610514D02*
X139664341Y-85800990D01*
X139664341Y-85800990D02*
X139664341Y-85943847D01*
X139664341Y-85943847D02*
X139688979Y-86134323D01*
X139688979Y-86134323D02*
X139713617Y-86229561D01*
X139713617Y-86229561D02*
X139762893Y-86324800D01*
X139762893Y-86324800D02*
X139836808Y-86372419D01*
X139836808Y-86372419D02*
X139886084Y-86372419D01*
X139886084Y-86372419D02*
X139959998Y-86324800D01*
X139959998Y-86324800D02*
X139984636Y-86277180D01*
X139984636Y-86277180D02*
X139984636Y-85943847D01*
X139984636Y-85943847D02*
X139886084Y-85943847D01*
X140206379Y-86372419D02*
X140206379Y-85372419D01*
X140206379Y-85372419D02*
X140502036Y-86372419D01*
X140502036Y-86372419D02*
X140502036Y-85372419D01*
X140748417Y-86372419D02*
X140748417Y-85372419D01*
X140748417Y-85372419D02*
X140871607Y-85372419D01*
X140871607Y-85372419D02*
X140945522Y-85420038D01*
X140945522Y-85420038D02*
X140994798Y-85515276D01*
X140994798Y-85515276D02*
X141019436Y-85610514D01*
X141019436Y-85610514D02*
X141044074Y-85800990D01*
X141044074Y-85800990D02*
X141044074Y-85943847D01*
X141044074Y-85943847D02*
X141019436Y-86134323D01*
X141019436Y-86134323D02*
X140994798Y-86229561D01*
X140994798Y-86229561D02*
X140945522Y-86324800D01*
X140945522Y-86324800D02*
X140871607Y-86372419D01*
X140871607Y-86372419D02*
X140748417Y-86372419D01*
X116664341Y-93586704D02*
X116910722Y-93586704D01*
X116615065Y-93872419D02*
X116787531Y-92872419D01*
X116787531Y-92872419D02*
X116959998Y-93872419D01*
X117132465Y-93872419D02*
X117132465Y-92872419D01*
X117132465Y-92872419D02*
X117255655Y-92872419D01*
X117255655Y-92872419D02*
X117329570Y-92920038D01*
X117329570Y-92920038D02*
X117378846Y-93015276D01*
X117378846Y-93015276D02*
X117403484Y-93110514D01*
X117403484Y-93110514D02*
X117428122Y-93300990D01*
X117428122Y-93300990D02*
X117428122Y-93443847D01*
X117428122Y-93443847D02*
X117403484Y-93634323D01*
X117403484Y-93634323D02*
X117378846Y-93729561D01*
X117378846Y-93729561D02*
X117329570Y-93824800D01*
X117329570Y-93824800D02*
X117255655Y-93872419D01*
X117255655Y-93872419D02*
X117132465Y-93872419D01*
X117945522Y-93777180D02*
X117920884Y-93824800D01*
X117920884Y-93824800D02*
X117846970Y-93872419D01*
X117846970Y-93872419D02*
X117797694Y-93872419D01*
X117797694Y-93872419D02*
X117723779Y-93824800D01*
X117723779Y-93824800D02*
X117674503Y-93729561D01*
X117674503Y-93729561D02*
X117649865Y-93634323D01*
X117649865Y-93634323D02*
X117625227Y-93443847D01*
X117625227Y-93443847D02*
X117625227Y-93300990D01*
X117625227Y-93300990D02*
X117649865Y-93110514D01*
X117649865Y-93110514D02*
X117674503Y-93015276D01*
X117674503Y-93015276D02*
X117723779Y-92920038D01*
X117723779Y-92920038D02*
X117797694Y-92872419D01*
X117797694Y-92872419D02*
X117846970Y-92872419D01*
X117846970Y-92872419D02*
X117920884Y-92920038D01*
X117920884Y-92920038D02*
X117945522Y-92967657D01*
X118044075Y-93967657D02*
X118438284Y-93967657D01*
X118561475Y-93872419D02*
X118561475Y-92872419D01*
X118807856Y-93872419D02*
X118807856Y-92872419D01*
X118807856Y-92872419D02*
X119103513Y-93872419D01*
X119103513Y-93872419D02*
X119103513Y-92872419D01*
X138959998Y-92920038D02*
X138910722Y-92872419D01*
X138910722Y-92872419D02*
X138836808Y-92872419D01*
X138836808Y-92872419D02*
X138762893Y-92920038D01*
X138762893Y-92920038D02*
X138713617Y-93015276D01*
X138713617Y-93015276D02*
X138688979Y-93110514D01*
X138688979Y-93110514D02*
X138664341Y-93300990D01*
X138664341Y-93300990D02*
X138664341Y-93443847D01*
X138664341Y-93443847D02*
X138688979Y-93634323D01*
X138688979Y-93634323D02*
X138713617Y-93729561D01*
X138713617Y-93729561D02*
X138762893Y-93824800D01*
X138762893Y-93824800D02*
X138836808Y-93872419D01*
X138836808Y-93872419D02*
X138886084Y-93872419D01*
X138886084Y-93872419D02*
X138959998Y-93824800D01*
X138959998Y-93824800D02*
X138984636Y-93777180D01*
X138984636Y-93777180D02*
X138984636Y-93443847D01*
X138984636Y-93443847D02*
X138886084Y-93443847D01*
X139206379Y-93872419D02*
X139206379Y-92872419D01*
X139206379Y-92872419D02*
X139403484Y-92872419D01*
X139403484Y-92872419D02*
X139452760Y-92920038D01*
X139452760Y-92920038D02*
X139477398Y-92967657D01*
X139477398Y-92967657D02*
X139502036Y-93062895D01*
X139502036Y-93062895D02*
X139502036Y-93205752D01*
X139502036Y-93205752D02*
X139477398Y-93300990D01*
X139477398Y-93300990D02*
X139452760Y-93348609D01*
X139452760Y-93348609D02*
X139403484Y-93396228D01*
X139403484Y-93396228D02*
X139206379Y-93396228D01*
X139723779Y-93872419D02*
X139723779Y-92872419D01*
X140068712Y-92872419D02*
X140117989Y-92872419D01*
X140117989Y-92872419D02*
X140167265Y-92920038D01*
X140167265Y-92920038D02*
X140191903Y-92967657D01*
X140191903Y-92967657D02*
X140216541Y-93062895D01*
X140216541Y-93062895D02*
X140241179Y-93253371D01*
X140241179Y-93253371D02*
X140241179Y-93491466D01*
X140241179Y-93491466D02*
X140216541Y-93681942D01*
X140216541Y-93681942D02*
X140191903Y-93777180D01*
X140191903Y-93777180D02*
X140167265Y-93824800D01*
X140167265Y-93824800D02*
X140117989Y-93872419D01*
X140117989Y-93872419D02*
X140068712Y-93872419D01*
X140068712Y-93872419D02*
X140019436Y-93824800D01*
X140019436Y-93824800D02*
X139994798Y-93777180D01*
X139994798Y-93777180D02*
X139970160Y-93681942D01*
X139970160Y-93681942D02*
X139945522Y-93491466D01*
X139945522Y-93491466D02*
X139945522Y-93253371D01*
X139945522Y-93253371D02*
X139970160Y-93062895D01*
X139970160Y-93062895D02*
X139994798Y-92967657D01*
X139994798Y-92967657D02*
X140019436Y-92920038D01*
X140019436Y-92920038D02*
X140068712Y-92872419D01*
X140438284Y-92967657D02*
X140462922Y-92920038D01*
X140462922Y-92920038D02*
X140512198Y-92872419D01*
X140512198Y-92872419D02*
X140635389Y-92872419D01*
X140635389Y-92872419D02*
X140684665Y-92920038D01*
X140684665Y-92920038D02*
X140709303Y-92967657D01*
X140709303Y-92967657D02*
X140733941Y-93062895D01*
X140733941Y-93062895D02*
X140733941Y-93158133D01*
X140733941Y-93158133D02*
X140709303Y-93300990D01*
X140709303Y-93300990D02*
X140413646Y-93872419D01*
X140413646Y-93872419D02*
X140733941Y-93872419D01*
X138959998Y-90420038D02*
X138910722Y-90372419D01*
X138910722Y-90372419D02*
X138836808Y-90372419D01*
X138836808Y-90372419D02*
X138762893Y-90420038D01*
X138762893Y-90420038D02*
X138713617Y-90515276D01*
X138713617Y-90515276D02*
X138688979Y-90610514D01*
X138688979Y-90610514D02*
X138664341Y-90800990D01*
X138664341Y-90800990D02*
X138664341Y-90943847D01*
X138664341Y-90943847D02*
X138688979Y-91134323D01*
X138688979Y-91134323D02*
X138713617Y-91229561D01*
X138713617Y-91229561D02*
X138762893Y-91324800D01*
X138762893Y-91324800D02*
X138836808Y-91372419D01*
X138836808Y-91372419D02*
X138886084Y-91372419D01*
X138886084Y-91372419D02*
X138959998Y-91324800D01*
X138959998Y-91324800D02*
X138984636Y-91277180D01*
X138984636Y-91277180D02*
X138984636Y-90943847D01*
X138984636Y-90943847D02*
X138886084Y-90943847D01*
X139206379Y-91372419D02*
X139206379Y-90372419D01*
X139206379Y-90372419D02*
X139403484Y-90372419D01*
X139403484Y-90372419D02*
X139452760Y-90420038D01*
X139452760Y-90420038D02*
X139477398Y-90467657D01*
X139477398Y-90467657D02*
X139502036Y-90562895D01*
X139502036Y-90562895D02*
X139502036Y-90705752D01*
X139502036Y-90705752D02*
X139477398Y-90800990D01*
X139477398Y-90800990D02*
X139452760Y-90848609D01*
X139452760Y-90848609D02*
X139403484Y-90896228D01*
X139403484Y-90896228D02*
X139206379Y-90896228D01*
X139723779Y-91372419D02*
X139723779Y-90372419D01*
X140068712Y-90372419D02*
X140117989Y-90372419D01*
X140117989Y-90372419D02*
X140167265Y-90420038D01*
X140167265Y-90420038D02*
X140191903Y-90467657D01*
X140191903Y-90467657D02*
X140216541Y-90562895D01*
X140216541Y-90562895D02*
X140241179Y-90753371D01*
X140241179Y-90753371D02*
X140241179Y-90991466D01*
X140241179Y-90991466D02*
X140216541Y-91181942D01*
X140216541Y-91181942D02*
X140191903Y-91277180D01*
X140191903Y-91277180D02*
X140167265Y-91324800D01*
X140167265Y-91324800D02*
X140117989Y-91372419D01*
X140117989Y-91372419D02*
X140068712Y-91372419D01*
X140068712Y-91372419D02*
X140019436Y-91324800D01*
X140019436Y-91324800D02*
X139994798Y-91277180D01*
X139994798Y-91277180D02*
X139970160Y-91181942D01*
X139970160Y-91181942D02*
X139945522Y-90991466D01*
X139945522Y-90991466D02*
X139945522Y-90753371D01*
X139945522Y-90753371D02*
X139970160Y-90562895D01*
X139970160Y-90562895D02*
X139994798Y-90467657D01*
X139994798Y-90467657D02*
X140019436Y-90420038D01*
X140019436Y-90420038D02*
X140068712Y-90372419D01*
X140536836Y-90800990D02*
X140487560Y-90753371D01*
X140487560Y-90753371D02*
X140462922Y-90705752D01*
X140462922Y-90705752D02*
X140438284Y-90610514D01*
X140438284Y-90610514D02*
X140438284Y-90562895D01*
X140438284Y-90562895D02*
X140462922Y-90467657D01*
X140462922Y-90467657D02*
X140487560Y-90420038D01*
X140487560Y-90420038D02*
X140536836Y-90372419D01*
X140536836Y-90372419D02*
X140635389Y-90372419D01*
X140635389Y-90372419D02*
X140684665Y-90420038D01*
X140684665Y-90420038D02*
X140709303Y-90467657D01*
X140709303Y-90467657D02*
X140733941Y-90562895D01*
X140733941Y-90562895D02*
X140733941Y-90610514D01*
X140733941Y-90610514D02*
X140709303Y-90705752D01*
X140709303Y-90705752D02*
X140684665Y-90753371D01*
X140684665Y-90753371D02*
X140635389Y-90800990D01*
X140635389Y-90800990D02*
X140536836Y-90800990D01*
X140536836Y-90800990D02*
X140487560Y-90848609D01*
X140487560Y-90848609D02*
X140462922Y-90896228D01*
X140462922Y-90896228D02*
X140438284Y-90991466D01*
X140438284Y-90991466D02*
X140438284Y-91181942D01*
X140438284Y-91181942D02*
X140462922Y-91277180D01*
X140462922Y-91277180D02*
X140487560Y-91324800D01*
X140487560Y-91324800D02*
X140536836Y-91372419D01*
X140536836Y-91372419D02*
X140635389Y-91372419D01*
X140635389Y-91372419D02*
X140684665Y-91324800D01*
X140684665Y-91324800D02*
X140709303Y-91277180D01*
X140709303Y-91277180D02*
X140733941Y-91181942D01*
X140733941Y-91181942D02*
X140733941Y-90991466D01*
X140733941Y-90991466D02*
X140709303Y-90896228D01*
X140709303Y-90896228D02*
X140684665Y-90848609D01*
X140684665Y-90848609D02*
X140635389Y-90800990D01*
X116984636Y-101372419D02*
X116812169Y-100896228D01*
X116688979Y-101372419D02*
X116688979Y-100372419D01*
X116688979Y-100372419D02*
X116886084Y-100372419D01*
X116886084Y-100372419D02*
X116935360Y-100420038D01*
X116935360Y-100420038D02*
X116959998Y-100467657D01*
X116959998Y-100467657D02*
X116984636Y-100562895D01*
X116984636Y-100562895D02*
X116984636Y-100705752D01*
X116984636Y-100705752D02*
X116959998Y-100800990D01*
X116959998Y-100800990D02*
X116935360Y-100848609D01*
X116935360Y-100848609D02*
X116886084Y-100896228D01*
X116886084Y-100896228D02*
X116688979Y-100896228D01*
X117181741Y-101324800D02*
X117255655Y-101372419D01*
X117255655Y-101372419D02*
X117378846Y-101372419D01*
X117378846Y-101372419D02*
X117428122Y-101324800D01*
X117428122Y-101324800D02*
X117452760Y-101277180D01*
X117452760Y-101277180D02*
X117477398Y-101181942D01*
X117477398Y-101181942D02*
X117477398Y-101086704D01*
X117477398Y-101086704D02*
X117452760Y-100991466D01*
X117452760Y-100991466D02*
X117428122Y-100943847D01*
X117428122Y-100943847D02*
X117378846Y-100896228D01*
X117378846Y-100896228D02*
X117280293Y-100848609D01*
X117280293Y-100848609D02*
X117231017Y-100800990D01*
X117231017Y-100800990D02*
X117206379Y-100753371D01*
X117206379Y-100753371D02*
X117181741Y-100658133D01*
X117181741Y-100658133D02*
X117181741Y-100562895D01*
X117181741Y-100562895D02*
X117206379Y-100467657D01*
X117206379Y-100467657D02*
X117231017Y-100420038D01*
X117231017Y-100420038D02*
X117280293Y-100372419D01*
X117280293Y-100372419D02*
X117403484Y-100372419D01*
X117403484Y-100372419D02*
X117477398Y-100420038D01*
X117625227Y-100372419D02*
X117920884Y-100372419D01*
X117773055Y-101372419D02*
X117773055Y-100372419D01*
X116959998Y-85420038D02*
X116910722Y-85372419D01*
X116910722Y-85372419D02*
X116836808Y-85372419D01*
X116836808Y-85372419D02*
X116762893Y-85420038D01*
X116762893Y-85420038D02*
X116713617Y-85515276D01*
X116713617Y-85515276D02*
X116688979Y-85610514D01*
X116688979Y-85610514D02*
X116664341Y-85800990D01*
X116664341Y-85800990D02*
X116664341Y-85943847D01*
X116664341Y-85943847D02*
X116688979Y-86134323D01*
X116688979Y-86134323D02*
X116713617Y-86229561D01*
X116713617Y-86229561D02*
X116762893Y-86324800D01*
X116762893Y-86324800D02*
X116836808Y-86372419D01*
X116836808Y-86372419D02*
X116886084Y-86372419D01*
X116886084Y-86372419D02*
X116959998Y-86324800D01*
X116959998Y-86324800D02*
X116984636Y-86277180D01*
X116984636Y-86277180D02*
X116984636Y-85943847D01*
X116984636Y-85943847D02*
X116886084Y-85943847D01*
X117206379Y-86372419D02*
X117206379Y-85372419D01*
X117206379Y-85372419D02*
X117403484Y-85372419D01*
X117403484Y-85372419D02*
X117452760Y-85420038D01*
X117452760Y-85420038D02*
X117477398Y-85467657D01*
X117477398Y-85467657D02*
X117502036Y-85562895D01*
X117502036Y-85562895D02*
X117502036Y-85705752D01*
X117502036Y-85705752D02*
X117477398Y-85800990D01*
X117477398Y-85800990D02*
X117452760Y-85848609D01*
X117452760Y-85848609D02*
X117403484Y-85896228D01*
X117403484Y-85896228D02*
X117206379Y-85896228D01*
X117723779Y-86372419D02*
X117723779Y-85372419D01*
X118068712Y-85372419D02*
X118117989Y-85372419D01*
X118117989Y-85372419D02*
X118167265Y-85420038D01*
X118167265Y-85420038D02*
X118191903Y-85467657D01*
X118191903Y-85467657D02*
X118216541Y-85562895D01*
X118216541Y-85562895D02*
X118241179Y-85753371D01*
X118241179Y-85753371D02*
X118241179Y-85991466D01*
X118241179Y-85991466D02*
X118216541Y-86181942D01*
X118216541Y-86181942D02*
X118191903Y-86277180D01*
X118191903Y-86277180D02*
X118167265Y-86324800D01*
X118167265Y-86324800D02*
X118117989Y-86372419D01*
X118117989Y-86372419D02*
X118068712Y-86372419D01*
X118068712Y-86372419D02*
X118019436Y-86324800D01*
X118019436Y-86324800D02*
X117994798Y-86277180D01*
X117994798Y-86277180D02*
X117970160Y-86181942D01*
X117970160Y-86181942D02*
X117945522Y-85991466D01*
X117945522Y-85991466D02*
X117945522Y-85753371D01*
X117945522Y-85753371D02*
X117970160Y-85562895D01*
X117970160Y-85562895D02*
X117994798Y-85467657D01*
X117994798Y-85467657D02*
X118019436Y-85420038D01*
X118019436Y-85420038D02*
X118068712Y-85372419D01*
X118709303Y-85372419D02*
X118462922Y-85372419D01*
X118462922Y-85372419D02*
X118438284Y-85848609D01*
X118438284Y-85848609D02*
X118462922Y-85800990D01*
X118462922Y-85800990D02*
X118512198Y-85753371D01*
X118512198Y-85753371D02*
X118635389Y-85753371D01*
X118635389Y-85753371D02*
X118684665Y-85800990D01*
X118684665Y-85800990D02*
X118709303Y-85848609D01*
X118709303Y-85848609D02*
X118733941Y-85943847D01*
X118733941Y-85943847D02*
X118733941Y-86181942D01*
X118733941Y-86181942D02*
X118709303Y-86277180D01*
X118709303Y-86277180D02*
X118684665Y-86324800D01*
X118684665Y-86324800D02*
X118635389Y-86372419D01*
X118635389Y-86372419D02*
X118512198Y-86372419D01*
X118512198Y-86372419D02*
X118462922Y-86324800D01*
X118462922Y-86324800D02*
X118438284Y-86277180D01*
D12*
X126333333Y-87929580D02*
X126285714Y-87977200D01*
X126285714Y-87977200D02*
X126142857Y-88024819D01*
X126142857Y-88024819D02*
X126047619Y-88024819D01*
X126047619Y-88024819D02*
X125904762Y-87977200D01*
X125904762Y-87977200D02*
X125809524Y-87881961D01*
X125809524Y-87881961D02*
X125761905Y-87786723D01*
X125761905Y-87786723D02*
X125714286Y-87596247D01*
X125714286Y-87596247D02*
X125714286Y-87453390D01*
X125714286Y-87453390D02*
X125761905Y-87262914D01*
X125761905Y-87262914D02*
X125809524Y-87167676D01*
X125809524Y-87167676D02*
X125904762Y-87072438D01*
X125904762Y-87072438D02*
X126047619Y-87024819D01*
X126047619Y-87024819D02*
X126142857Y-87024819D01*
X126142857Y-87024819D02*
X126285714Y-87072438D01*
X126285714Y-87072438D02*
X126333333Y-87120057D01*
X127238095Y-87024819D02*
X126761905Y-87024819D01*
X126761905Y-87024819D02*
X126714286Y-87501009D01*
X126714286Y-87501009D02*
X126761905Y-87453390D01*
X126761905Y-87453390D02*
X126857143Y-87405771D01*
X126857143Y-87405771D02*
X127095238Y-87405771D01*
X127095238Y-87405771D02*
X127190476Y-87453390D01*
X127190476Y-87453390D02*
X127238095Y-87501009D01*
X127238095Y-87501009D02*
X127285714Y-87596247D01*
X127285714Y-87596247D02*
X127285714Y-87834342D01*
X127285714Y-87834342D02*
X127238095Y-87929580D01*
X127238095Y-87929580D02*
X127190476Y-87977200D01*
X127190476Y-87977200D02*
X127095238Y-88024819D01*
X127095238Y-88024819D02*
X126857143Y-88024819D01*
X126857143Y-88024819D02*
X126761905Y-87977200D01*
X126761905Y-87977200D02*
X126714286Y-87929580D01*
X126333333Y-83929580D02*
X126285714Y-83977200D01*
X126285714Y-83977200D02*
X126142857Y-84024819D01*
X126142857Y-84024819D02*
X126047619Y-84024819D01*
X126047619Y-84024819D02*
X125904762Y-83977200D01*
X125904762Y-83977200D02*
X125809524Y-83881961D01*
X125809524Y-83881961D02*
X125761905Y-83786723D01*
X125761905Y-83786723D02*
X125714286Y-83596247D01*
X125714286Y-83596247D02*
X125714286Y-83453390D01*
X125714286Y-83453390D02*
X125761905Y-83262914D01*
X125761905Y-83262914D02*
X125809524Y-83167676D01*
X125809524Y-83167676D02*
X125904762Y-83072438D01*
X125904762Y-83072438D02*
X126047619Y-83024819D01*
X126047619Y-83024819D02*
X126142857Y-83024819D01*
X126142857Y-83024819D02*
X126285714Y-83072438D01*
X126285714Y-83072438D02*
X126333333Y-83120057D01*
X127190476Y-83358152D02*
X127190476Y-84024819D01*
X126952381Y-82977200D02*
X126714286Y-83691485D01*
X126714286Y-83691485D02*
X127333333Y-83691485D01*
X121695833Y-104359580D02*
X121648214Y-104407200D01*
X121648214Y-104407200D02*
X121505357Y-104454819D01*
X121505357Y-104454819D02*
X121410119Y-104454819D01*
X121410119Y-104454819D02*
X121267262Y-104407200D01*
X121267262Y-104407200D02*
X121172024Y-104311961D01*
X121172024Y-104311961D02*
X121124405Y-104216723D01*
X121124405Y-104216723D02*
X121076786Y-104026247D01*
X121076786Y-104026247D02*
X121076786Y-103883390D01*
X121076786Y-103883390D02*
X121124405Y-103692914D01*
X121124405Y-103692914D02*
X121172024Y-103597676D01*
X121172024Y-103597676D02*
X121267262Y-103502438D01*
X121267262Y-103502438D02*
X121410119Y-103454819D01*
X121410119Y-103454819D02*
X121505357Y-103454819D01*
X121505357Y-103454819D02*
X121648214Y-103502438D01*
X121648214Y-103502438D02*
X121695833Y-103550057D01*
X122648214Y-104454819D02*
X122076786Y-104454819D01*
X122362500Y-104454819D02*
X122362500Y-103454819D01*
X122362500Y-103454819D02*
X122267262Y-103597676D01*
X122267262Y-103597676D02*
X122172024Y-103692914D01*
X122172024Y-103692914D02*
X122076786Y-103740533D01*
X114666666Y-104944819D02*
X114666666Y-105659104D01*
X114666666Y-105659104D02*
X114619047Y-105801961D01*
X114619047Y-105801961D02*
X114523809Y-105897200D01*
X114523809Y-105897200D02*
X114380952Y-105944819D01*
X114380952Y-105944819D02*
X114285714Y-105944819D01*
X115666666Y-105944819D02*
X115095238Y-105944819D01*
X115380952Y-105944819D02*
X115380952Y-104944819D01*
X115380952Y-104944819D02*
X115285714Y-105087676D01*
X115285714Y-105087676D02*
X115190476Y-105182914D01*
X115190476Y-105182914D02*
X115095238Y-105230533D01*
X132633333Y-107954819D02*
X132157143Y-107954819D01*
X132157143Y-107954819D02*
X132157143Y-106954819D01*
X133490476Y-107954819D02*
X132919048Y-107954819D01*
X133204762Y-107954819D02*
X133204762Y-106954819D01*
X133204762Y-106954819D02*
X133109524Y-107097676D01*
X133109524Y-107097676D02*
X133014286Y-107192914D01*
X133014286Y-107192914D02*
X132919048Y-107240533D01*
X133454819Y-102761904D02*
X134264342Y-102761904D01*
X134264342Y-102761904D02*
X134359580Y-102714285D01*
X134359580Y-102714285D02*
X134407200Y-102666666D01*
X134407200Y-102666666D02*
X134454819Y-102571428D01*
X134454819Y-102571428D02*
X134454819Y-102380952D01*
X134454819Y-102380952D02*
X134407200Y-102285714D01*
X134407200Y-102285714D02*
X134359580Y-102238095D01*
X134359580Y-102238095D02*
X134264342Y-102190476D01*
X134264342Y-102190476D02*
X133454819Y-102190476D01*
X134454819Y-101190476D02*
X134454819Y-101761904D01*
X134454819Y-101476190D02*
X133454819Y-101476190D01*
X133454819Y-101476190D02*
X133597676Y-101571428D01*
X133597676Y-101571428D02*
X133692914Y-101666666D01*
X133692914Y-101666666D02*
X133740533Y-101761904D01*
X120970833Y-94929580D02*
X120923214Y-94977200D01*
X120923214Y-94977200D02*
X120780357Y-95024819D01*
X120780357Y-95024819D02*
X120685119Y-95024819D01*
X120685119Y-95024819D02*
X120542262Y-94977200D01*
X120542262Y-94977200D02*
X120447024Y-94881961D01*
X120447024Y-94881961D02*
X120399405Y-94786723D01*
X120399405Y-94786723D02*
X120351786Y-94596247D01*
X120351786Y-94596247D02*
X120351786Y-94453390D01*
X120351786Y-94453390D02*
X120399405Y-94262914D01*
X120399405Y-94262914D02*
X120447024Y-94167676D01*
X120447024Y-94167676D02*
X120542262Y-94072438D01*
X120542262Y-94072438D02*
X120685119Y-94024819D01*
X120685119Y-94024819D02*
X120780357Y-94024819D01*
X120780357Y-94024819D02*
X120923214Y-94072438D01*
X120923214Y-94072438D02*
X120970833Y-94120057D01*
X121351786Y-94120057D02*
X121399405Y-94072438D01*
X121399405Y-94072438D02*
X121494643Y-94024819D01*
X121494643Y-94024819D02*
X121732738Y-94024819D01*
X121732738Y-94024819D02*
X121827976Y-94072438D01*
X121827976Y-94072438D02*
X121875595Y-94120057D01*
X121875595Y-94120057D02*
X121923214Y-94215295D01*
X121923214Y-94215295D02*
X121923214Y-94310533D01*
X121923214Y-94310533D02*
X121875595Y-94453390D01*
X121875595Y-94453390D02*
X121304167Y-95024819D01*
X121304167Y-95024819D02*
X121923214Y-95024819D01*
X129833333Y-108429580D02*
X129785714Y-108477200D01*
X129785714Y-108477200D02*
X129642857Y-108524819D01*
X129642857Y-108524819D02*
X129547619Y-108524819D01*
X129547619Y-108524819D02*
X129404762Y-108477200D01*
X129404762Y-108477200D02*
X129309524Y-108381961D01*
X129309524Y-108381961D02*
X129261905Y-108286723D01*
X129261905Y-108286723D02*
X129214286Y-108096247D01*
X129214286Y-108096247D02*
X129214286Y-107953390D01*
X129214286Y-107953390D02*
X129261905Y-107762914D01*
X129261905Y-107762914D02*
X129309524Y-107667676D01*
X129309524Y-107667676D02*
X129404762Y-107572438D01*
X129404762Y-107572438D02*
X129547619Y-107524819D01*
X129547619Y-107524819D02*
X129642857Y-107524819D01*
X129642857Y-107524819D02*
X129785714Y-107572438D01*
X129785714Y-107572438D02*
X129833333Y-107620057D01*
X130690476Y-107524819D02*
X130500000Y-107524819D01*
X130500000Y-107524819D02*
X130404762Y-107572438D01*
X130404762Y-107572438D02*
X130357143Y-107620057D01*
X130357143Y-107620057D02*
X130261905Y-107762914D01*
X130261905Y-107762914D02*
X130214286Y-107953390D01*
X130214286Y-107953390D02*
X130214286Y-108334342D01*
X130214286Y-108334342D02*
X130261905Y-108429580D01*
X130261905Y-108429580D02*
X130309524Y-108477200D01*
X130309524Y-108477200D02*
X130404762Y-108524819D01*
X130404762Y-108524819D02*
X130595238Y-108524819D01*
X130595238Y-108524819D02*
X130690476Y-108477200D01*
X130690476Y-108477200D02*
X130738095Y-108429580D01*
X130738095Y-108429580D02*
X130785714Y-108334342D01*
X130785714Y-108334342D02*
X130785714Y-108096247D01*
X130785714Y-108096247D02*
X130738095Y-108001009D01*
X130738095Y-108001009D02*
X130690476Y-107953390D01*
X130690476Y-107953390D02*
X130595238Y-107905771D01*
X130595238Y-107905771D02*
X130404762Y-107905771D01*
X130404762Y-107905771D02*
X130309524Y-107953390D01*
X130309524Y-107953390D02*
X130261905Y-108001009D01*
X130261905Y-108001009D02*
X130214286Y-108096247D01*
X132289580Y-83166666D02*
X132337200Y-83214285D01*
X132337200Y-83214285D02*
X132384819Y-83357142D01*
X132384819Y-83357142D02*
X132384819Y-83452380D01*
X132384819Y-83452380D02*
X132337200Y-83595237D01*
X132337200Y-83595237D02*
X132241961Y-83690475D01*
X132241961Y-83690475D02*
X132146723Y-83738094D01*
X132146723Y-83738094D02*
X131956247Y-83785713D01*
X131956247Y-83785713D02*
X131813390Y-83785713D01*
X131813390Y-83785713D02*
X131622914Y-83738094D01*
X131622914Y-83738094D02*
X131527676Y-83690475D01*
X131527676Y-83690475D02*
X131432438Y-83595237D01*
X131432438Y-83595237D02*
X131384819Y-83452380D01*
X131384819Y-83452380D02*
X131384819Y-83357142D01*
X131384819Y-83357142D02*
X131432438Y-83214285D01*
X131432438Y-83214285D02*
X131480057Y-83166666D01*
X131384819Y-82833332D02*
X131384819Y-82214285D01*
X131384819Y-82214285D02*
X131765771Y-82547618D01*
X131765771Y-82547618D02*
X131765771Y-82404761D01*
X131765771Y-82404761D02*
X131813390Y-82309523D01*
X131813390Y-82309523D02*
X131861009Y-82261904D01*
X131861009Y-82261904D02*
X131956247Y-82214285D01*
X131956247Y-82214285D02*
X132194342Y-82214285D01*
X132194342Y-82214285D02*
X132289580Y-82261904D01*
X132289580Y-82261904D02*
X132337200Y-82309523D01*
X132337200Y-82309523D02*
X132384819Y-82404761D01*
X132384819Y-82404761D02*
X132384819Y-82690475D01*
X132384819Y-82690475D02*
X132337200Y-82785713D01*
X132337200Y-82785713D02*
X132289580Y-82833332D01*
X132264819Y-119833333D02*
X132979104Y-119833333D01*
X132979104Y-119833333D02*
X133121961Y-119880952D01*
X133121961Y-119880952D02*
X133217200Y-119976190D01*
X133217200Y-119976190D02*
X133264819Y-120119047D01*
X133264819Y-120119047D02*
X133264819Y-120214285D01*
X132264819Y-119452380D02*
X132264819Y-118833333D01*
X132264819Y-118833333D02*
X132645771Y-119166666D01*
X132645771Y-119166666D02*
X132645771Y-119023809D01*
X132645771Y-119023809D02*
X132693390Y-118928571D01*
X132693390Y-118928571D02*
X132741009Y-118880952D01*
X132741009Y-118880952D02*
X132836247Y-118833333D01*
X132836247Y-118833333D02*
X133074342Y-118833333D01*
X133074342Y-118833333D02*
X133169580Y-118880952D01*
X133169580Y-118880952D02*
X133217200Y-118928571D01*
X133217200Y-118928571D02*
X133264819Y-119023809D01*
X133264819Y-119023809D02*
X133264819Y-119309523D01*
X133264819Y-119309523D02*
X133217200Y-119404761D01*
X133217200Y-119404761D02*
X133169580Y-119452380D01*
X133263095Y-85649819D02*
X133263095Y-86459342D01*
X133263095Y-86459342D02*
X133310714Y-86554580D01*
X133310714Y-86554580D02*
X133358333Y-86602200D01*
X133358333Y-86602200D02*
X133453571Y-86649819D01*
X133453571Y-86649819D02*
X133644047Y-86649819D01*
X133644047Y-86649819D02*
X133739285Y-86602200D01*
X133739285Y-86602200D02*
X133786904Y-86554580D01*
X133786904Y-86554580D02*
X133834523Y-86459342D01*
X133834523Y-86459342D02*
X133834523Y-85649819D01*
X134263095Y-85745057D02*
X134310714Y-85697438D01*
X134310714Y-85697438D02*
X134405952Y-85649819D01*
X134405952Y-85649819D02*
X134644047Y-85649819D01*
X134644047Y-85649819D02*
X134739285Y-85697438D01*
X134739285Y-85697438D02*
X134786904Y-85745057D01*
X134786904Y-85745057D02*
X134834523Y-85840295D01*
X134834523Y-85840295D02*
X134834523Y-85935533D01*
X134834523Y-85935533D02*
X134786904Y-86078390D01*
X134786904Y-86078390D02*
X134215476Y-86649819D01*
X134215476Y-86649819D02*
X134834523Y-86649819D01*
X137454819Y-81666666D02*
X136978628Y-81999999D01*
X137454819Y-82238094D02*
X136454819Y-82238094D01*
X136454819Y-82238094D02*
X136454819Y-81857142D01*
X136454819Y-81857142D02*
X136502438Y-81761904D01*
X136502438Y-81761904D02*
X136550057Y-81714285D01*
X136550057Y-81714285D02*
X136645295Y-81666666D01*
X136645295Y-81666666D02*
X136788152Y-81666666D01*
X136788152Y-81666666D02*
X136883390Y-81714285D01*
X136883390Y-81714285D02*
X136931009Y-81761904D01*
X136931009Y-81761904D02*
X136978628Y-81857142D01*
X136978628Y-81857142D02*
X136978628Y-82238094D01*
X136550057Y-81285713D02*
X136502438Y-81238094D01*
X136502438Y-81238094D02*
X136454819Y-81142856D01*
X136454819Y-81142856D02*
X136454819Y-80904761D01*
X136454819Y-80904761D02*
X136502438Y-80809523D01*
X136502438Y-80809523D02*
X136550057Y-80761904D01*
X136550057Y-80761904D02*
X136645295Y-80714285D01*
X136645295Y-80714285D02*
X136740533Y-80714285D01*
X136740533Y-80714285D02*
X136883390Y-80761904D01*
X136883390Y-80761904D02*
X137454819Y-81333332D01*
X137454819Y-81333332D02*
X137454819Y-80714285D01*
X126333333Y-92304819D02*
X126000000Y-91828628D01*
X125761905Y-92304819D02*
X125761905Y-91304819D01*
X125761905Y-91304819D02*
X126142857Y-91304819D01*
X126142857Y-91304819D02*
X126238095Y-91352438D01*
X126238095Y-91352438D02*
X126285714Y-91400057D01*
X126285714Y-91400057D02*
X126333333Y-91495295D01*
X126333333Y-91495295D02*
X126333333Y-91638152D01*
X126333333Y-91638152D02*
X126285714Y-91733390D01*
X126285714Y-91733390D02*
X126238095Y-91781009D01*
X126238095Y-91781009D02*
X126142857Y-91828628D01*
X126142857Y-91828628D02*
X125761905Y-91828628D01*
X127285714Y-92304819D02*
X126714286Y-92304819D01*
X127000000Y-92304819D02*
X127000000Y-91304819D01*
X127000000Y-91304819D02*
X126904762Y-91447676D01*
X126904762Y-91447676D02*
X126809524Y-91542914D01*
X126809524Y-91542914D02*
X126714286Y-91590533D01*
X120184819Y-100109523D02*
X121184819Y-99442857D01*
X120184819Y-99442857D02*
X121184819Y-100109523D01*
X121184819Y-98538095D02*
X121184819Y-99109523D01*
X121184819Y-98823809D02*
X120184819Y-98823809D01*
X120184819Y-98823809D02*
X120327676Y-98919047D01*
X120327676Y-98919047D02*
X120422914Y-99014285D01*
X120422914Y-99014285D02*
X120470533Y-99109523D01*
X142166666Y-104904819D02*
X142166666Y-105619104D01*
X142166666Y-105619104D02*
X142119047Y-105761961D01*
X142119047Y-105761961D02*
X142023809Y-105857200D01*
X142023809Y-105857200D02*
X141880952Y-105904819D01*
X141880952Y-105904819D02*
X141785714Y-105904819D01*
X142595238Y-105000057D02*
X142642857Y-104952438D01*
X142642857Y-104952438D02*
X142738095Y-104904819D01*
X142738095Y-104904819D02*
X142976190Y-104904819D01*
X142976190Y-104904819D02*
X143071428Y-104952438D01*
X143071428Y-104952438D02*
X143119047Y-105000057D01*
X143119047Y-105000057D02*
X143166666Y-105095295D01*
X143166666Y-105095295D02*
X143166666Y-105190533D01*
X143166666Y-105190533D02*
X143119047Y-105333390D01*
X143119047Y-105333390D02*
X142547619Y-105904819D01*
X142547619Y-105904819D02*
X143166666Y-105904819D01*
X126495833Y-104954819D02*
X126019643Y-104954819D01*
X126019643Y-104954819D02*
X126019643Y-103954819D01*
X126781548Y-104050057D02*
X126829167Y-104002438D01*
X126829167Y-104002438D02*
X126924405Y-103954819D01*
X126924405Y-103954819D02*
X127162500Y-103954819D01*
X127162500Y-103954819D02*
X127257738Y-104002438D01*
X127257738Y-104002438D02*
X127305357Y-104050057D01*
X127305357Y-104050057D02*
X127352976Y-104145295D01*
X127352976Y-104145295D02*
X127352976Y-104240533D01*
X127352976Y-104240533D02*
X127305357Y-104383390D01*
X127305357Y-104383390D02*
X126733929Y-104954819D01*
X126733929Y-104954819D02*
X127352976Y-104954819D01*
D13*
%TO.C,C5*%
X126353733Y-88490000D02*
X126646267Y-88490000D01*
X126353733Y-89510000D02*
X126646267Y-89510000D01*
%TO.C,C4*%
X126353733Y-84490000D02*
X126646267Y-84490000D01*
X126353733Y-85510000D02*
X126646267Y-85510000D01*
%TO.C,C1*%
X121716233Y-101990000D02*
X122008767Y-101990000D01*
X121716233Y-103010000D02*
X122008767Y-103010000D01*
%TO.C,J1*%
X113670000Y-101890000D02*
X113670000Y-81510000D01*
X116330000Y-81510000D02*
X113670000Y-81510000D01*
X116330000Y-101890000D02*
X113670000Y-101890000D01*
X116330000Y-101890000D02*
X116330000Y-81510000D01*
X116330000Y-103160000D02*
X116330000Y-104490000D01*
X116330000Y-104490000D02*
X115000000Y-104490000D01*
%TO.C,L1*%
X135635242Y-108590000D02*
X133964758Y-108590000D01*
X135635242Y-110410000D02*
X133964758Y-110410000D01*
%TO.C,U1*%
X126140000Y-96452500D02*
X126615000Y-96452500D01*
X126140000Y-96927500D02*
X126140000Y-96452500D01*
X126140000Y-101197500D02*
X126140000Y-101372500D01*
X126615000Y-101672500D02*
X126380000Y-101672500D01*
X131360000Y-96452500D02*
X130885000Y-96452500D01*
X131360000Y-96927500D02*
X131360000Y-96452500D01*
X131360000Y-101197500D02*
X131360000Y-101672500D01*
X131360000Y-101672500D02*
X130885000Y-101672500D01*
X126140000Y-101672500D02*
X125810000Y-101912500D01*
X125810000Y-101432500D01*
X126140000Y-101672500D01*
G36*
X126140000Y-101672500D02*
G01*
X125810000Y-101912500D01*
X125810000Y-101432500D01*
X126140000Y-101672500D01*
G37*
%TO.C,C2*%
X120991233Y-95490000D02*
X121283767Y-95490000D01*
X120991233Y-96510000D02*
X121283767Y-96510000D01*
%TO.C,C6*%
X129853733Y-108990000D02*
X130146267Y-108990000D01*
X129853733Y-110010000D02*
X130146267Y-110010000D01*
%TO.C,C3*%
X129990000Y-82853733D02*
X129990000Y-83146267D01*
X131010000Y-82853733D02*
X131010000Y-83146267D01*
%TO.C,J3*%
X126670000Y-114940000D02*
X126670000Y-117600000D01*
X126670000Y-117600000D02*
X131870000Y-117600000D01*
X127620000Y-114542929D02*
X127620000Y-114940000D01*
X127620000Y-123600000D02*
X127620000Y-117600000D01*
X128380000Y-114542929D02*
X128380000Y-114940000D01*
X128380000Y-117600000D02*
X128380000Y-123600000D01*
X128380000Y-123600000D02*
X127620000Y-123600000D01*
X129270000Y-114940000D02*
X129270000Y-117600000D01*
X130160000Y-114610000D02*
X130160000Y-114940000D01*
X130160000Y-123600000D02*
X130160000Y-117600000D01*
X130260000Y-117600000D02*
X130260000Y-123600000D01*
X130380000Y-117600000D02*
X130380000Y-123600000D01*
X130500000Y-117600000D02*
X130500000Y-123600000D01*
X130540000Y-112230000D02*
X131810000Y-112230000D01*
X130620000Y-117600000D02*
X130620000Y-123600000D01*
X130740000Y-117600000D02*
X130740000Y-123600000D01*
X130860000Y-117600000D02*
X130860000Y-123600000D01*
X130920000Y-114610000D02*
X130920000Y-114940000D01*
X130920000Y-117600000D02*
X130920000Y-123600000D01*
X130920000Y-123600000D02*
X130160000Y-123600000D01*
X131810000Y-112230000D02*
X131810000Y-113500000D01*
X131870000Y-114940000D02*
X126670000Y-114940000D01*
X131870000Y-117600000D02*
X131870000Y-114940000D01*
%TO.C,U2*%
X134025000Y-87035000D02*
X132075000Y-87035000D01*
X134025000Y-87035000D02*
X135975000Y-87035000D01*
X134025000Y-92155000D02*
X132075000Y-92155000D01*
X134025000Y-92155000D02*
X135975000Y-92155000D01*
X131325000Y-87130000D02*
X131085000Y-86800000D01*
X131565000Y-86800000D01*
X131325000Y-87130000D01*
G36*
X131325000Y-87130000D02*
G01*
X131085000Y-86800000D01*
X131565000Y-86800000D01*
X131325000Y-87130000D01*
G37*
%TO.C,R2*%
X137272936Y-82765000D02*
X137727064Y-82765000D01*
X137272936Y-84235000D02*
X137727064Y-84235000D01*
%TO.C,R1*%
X126272936Y-92765000D02*
X126727064Y-92765000D01*
X126272936Y-94235000D02*
X126727064Y-94235000D01*
%TO.C,X1*%
X121800000Y-98800000D02*
X122020000Y-98800000D01*
X122020000Y-98800000D02*
X122020000Y-99800000D01*
X123780000Y-98800000D02*
X123780000Y-99800000D01*
%TO.C,J2*%
X141170000Y-101850000D02*
X141170000Y-81470000D01*
X143830000Y-81470000D02*
X141170000Y-81470000D01*
X143830000Y-101850000D02*
X141170000Y-101850000D01*
X143830000Y-101850000D02*
X143830000Y-81470000D01*
X143830000Y-103120000D02*
X143830000Y-104450000D01*
X143830000Y-104450000D02*
X142500000Y-104450000D01*
%TO.C,L2*%
X125664758Y-105590000D02*
X127335242Y-105590000D01*
X125664758Y-107410000D02*
X127335242Y-107410000D01*
%TD*%
D14*
%TO.P,J1,1,Pin_1*%
%TO.N,+3.3V*%
X115000000Y-103160000D03*
D15*
%TO.P,J1,2,Pin_2*%
%TO.N,/RST*%
X115000000Y-100620000D03*
%TO.P,J1,3,Pin_3*%
%TO.N,/U0RXD*%
X115000000Y-98080000D03*
%TO.P,J1,4,Pin_4*%
%TO.N,/U0TXD*%
X115000000Y-95540000D03*
%TO.P,J1,5,Pin_5*%
%TO.N,/ADC_IN*%
X115000000Y-93000000D03*
%TO.P,J1,6,Pin_6*%
%TO.N,/CHIP_EN*%
X115000000Y-90460000D03*
%TO.P,J1,7,Pin_7*%
%TO.N,/GPIO16*%
X115000000Y-87920000D03*
%TO.P,J1,8,Pin_8*%
%TO.N,/GPI05*%
X115000000Y-85380000D03*
%TO.P,J1,9,Pin_9*%
%TO.N,GND*%
X115000000Y-82840000D03*
%TD*%
D14*
%TO.P,J3,1,Pin_1*%
%TO.N,/ANT*%
X130540000Y-113500000D03*
D15*
%TO.P,J3,2,Pin_2*%
%TO.N,GND*%
X128000000Y-113500000D03*
%TD*%
D14*
%TO.P,J2,1,Pin_1*%
%TO.N,/GPIO14*%
X142500000Y-103120000D03*
D15*
%TO.P,J2,2,Pin_2*%
%TO.N,/GPIO12*%
X142500000Y-100580000D03*
%TO.P,J2,3,Pin_3*%
%TO.N,/GPIO13*%
X142500000Y-98040000D03*
%TO.P,J2,4,Pin_4*%
%TO.N,/GPIO15*%
X142500000Y-95500000D03*
%TO.P,J2,5,Pin_5*%
%TO.N,/GPIO2*%
X142500000Y-92960000D03*
%TO.P,J2,6,Pin_6*%
%TO.N,/GPIO0*%
X142500000Y-90420000D03*
%TO.P,J2,7,Pin_7*%
%TO.N,/GPIO4*%
X142500000Y-87880000D03*
%TO.P,J2,8,Pin_8*%
%TO.N,GND*%
X142500000Y-85340000D03*
%TO.P,J2,9,Pin_9*%
X142500000Y-82800000D03*
%TD*%
D16*
%TO.N,GND*%
X131500000Y-92500000D03*
X129000000Y-88500000D03*
X125000000Y-91500000D03*
X120000000Y-101000000D03*
X129420101Y-102900000D03*
X138637500Y-107500000D03*
X120500000Y-108500000D03*
X120155735Y-97155735D03*
X131000000Y-85500000D03*
X129000000Y-85500000D03*
%TO.N,/ADC_IN*%
X129500000Y-104000000D03*
%TO.N,/CHIP_EN*%
X126500000Y-104400000D03*
X132250000Y-105250000D03*
%TO.N,/GPIO16*%
X132000000Y-103500000D03*
%TO.N,/U0TXD*%
X118500000Y-97500000D03*
%TO.N,Net-(U1-RES12K)*%
X117500000Y-93000000D03*
X121500000Y-90000000D03*
%TO.N,Net-(U1-SD_CLK)*%
X139500000Y-92500000D03*
X136087108Y-95141422D03*
X139000000Y-90000000D03*
X134000000Y-93998114D03*
%TO.N,/SD_D3*%
X132000000Y-94500000D03*
X133500000Y-92798114D03*
%TO.N,/SD_D0*%
X129500000Y-90000000D03*
X129500000Y-94000000D03*
%TO.N,/SD_CMD*%
X130100000Y-92798114D03*
X131000000Y-94500000D03*
%TO.N,+3.3V*%
X125000000Y-83500000D03*
X128000000Y-82500000D03*
X131000000Y-107000000D03*
X134023198Y-96562466D03*
X124000000Y-103500000D03*
X125000000Y-87500000D03*
X126899681Y-102800000D03*
X133500000Y-100000000D03*
%TD*%
D17*
%TO.N,/ADC_IN*%
X125485785Y-104000000D02*
X124434314Y-104000000D01*
X119100000Y-97100000D02*
X115000000Y-93000000D01*
X119100000Y-97900000D02*
X119100000Y-97100000D01*
X118500000Y-102500000D02*
X120717157Y-104717157D01*
X118500000Y-98500000D02*
X119100000Y-97900000D01*
X126914215Y-103400000D02*
X126085785Y-103400000D01*
X124434314Y-104000000D02*
X123717157Y-104717157D01*
X126085785Y-103400000D02*
X125485785Y-104000000D01*
X120717157Y-104717157D02*
X123717157Y-104717157D01*
X127514215Y-104000000D02*
X126914215Y-103400000D01*
X118500000Y-102500000D02*
X118500000Y-98500000D01*
X129500000Y-104000000D02*
X127514215Y-104000000D01*
%TO.N,/CHIP_EN*%
X129750000Y-105250000D02*
X132250000Y-105250000D01*
X126500000Y-104400000D02*
X127100000Y-105000000D01*
X129500000Y-105000000D02*
X129750000Y-105250000D01*
X127100000Y-105000000D02*
X129500000Y-105000000D01*
%TO.N,/GPIO16*%
X113797919Y-89122081D02*
X113797919Y-104797919D01*
X122000000Y-107000000D02*
X124500000Y-104500000D01*
X126251471Y-103800000D02*
X126748529Y-103800000D01*
X124500000Y-104500000D02*
X125900000Y-104500000D01*
X116000000Y-107000000D02*
X122000000Y-107000000D01*
X130900000Y-104600000D02*
X132000000Y-103500000D01*
X127548529Y-104600000D02*
X130900000Y-104600000D01*
X126748529Y-103800000D02*
X127548529Y-104600000D01*
X115000000Y-87920000D02*
X113797919Y-89122081D01*
X125900000Y-104500000D02*
X125900000Y-104151471D01*
X113797919Y-104797919D02*
X116000000Y-107000000D01*
X125900000Y-104151471D02*
X126251471Y-103800000D01*
%TO.N,/U0TXD*%
X115000000Y-95540000D02*
X116540000Y-95540000D01*
X116540000Y-95540000D02*
X118500000Y-97500000D01*
%TO.N,Net-(U1-RES12K)*%
X120500000Y-90000000D02*
X117500000Y-93000000D01*
X121500000Y-90000000D02*
X120500000Y-90000000D01*
%TO.N,Net-(U1-SD_CLK)*%
X135001886Y-95000000D02*
X135945686Y-95000000D01*
X139000000Y-92000000D02*
X139500000Y-92500000D01*
X134000000Y-93998114D02*
X135001886Y-95000000D01*
X139000000Y-90000000D02*
X139000000Y-92000000D01*
X135945686Y-95000000D02*
X136087108Y-95141422D01*
%TO.N,/SD_D3*%
X132000000Y-94298114D02*
X132000000Y-94500000D01*
X133500000Y-92798114D02*
X132000000Y-94298114D01*
%TO.N,/SD_D0*%
X129500000Y-94000000D02*
X129500000Y-90000000D01*
%TO.N,/SD_CMD*%
X130100000Y-93600000D02*
X131000000Y-94500000D01*
X130100000Y-92798114D02*
X130100000Y-93600000D01*
%TO.N,+3.3V*%
X126899681Y-102800000D02*
X124700000Y-102800000D01*
X124700000Y-102800000D02*
X124000000Y-103500000D01*
%TD*%
M02*
