%TF.GenerationSoftware,KiCad,Pcbnew,8.0.3*%
%TF.CreationDate,2024-07-01T13:41:45+02:00*%
%TF.ProjectId,ESP8266,45535038-3236-4362-9e6b-696361645f70,rev?*%
%TF.SameCoordinates,Original*%
%TF.FileFunction,Copper,L2,Inr*%
%TF.FilePolarity,Positive*%
%FSLAX46Y46*%
G04 Gerber Fmt 4.6, Leading zero omitted, Abs format (unit mm)*
G04 Created by KiCad (PCBNEW 8.0.3) date 2024-07-01 13:41:45*
%MOMM*%
%LPD*%
G01*
G04 APERTURE LIST*
%TA.AperFunction,ComponentPad*%
%ADD10R,1.700000X1.700000*%
%TD*%
%TA.AperFunction,ComponentPad*%
%ADD11O,1.700000X1.700000*%
%TD*%
%TA.AperFunction,ViaPad*%
%ADD12C,0.600000*%
%TD*%
%TA.AperFunction,Conductor*%
%ADD13C,0.200000*%
%TD*%
G04 APERTURE END LIST*
D10*
%TO.N,+3.3V*%
%TO.C,J1*%
X115000000Y-103160000D03*
D11*
%TO.N,/RST*%
X115000000Y-100620000D03*
%TO.N,/U0RXD*%
X115000000Y-98080000D03*
%TO.N,/U0TXD*%
X115000000Y-95540000D03*
%TO.N,/ADC_IN*%
X115000000Y-93000000D03*
%TO.N,/CHIP_EN*%
X115000000Y-90460000D03*
%TO.N,/GPIO16*%
X115000000Y-87920000D03*
%TO.N,/GPI05*%
X115000000Y-85380000D03*
%TO.N,GND*%
X115000000Y-82840000D03*
%TD*%
D10*
%TO.N,/ANT*%
%TO.C,J3*%
X130540000Y-113500000D03*
D11*
%TO.N,GND*%
X128000000Y-113500000D03*
%TD*%
D10*
%TO.N,/GPIO14*%
%TO.C,J2*%
X142500000Y-103120000D03*
D11*
%TO.N,/GPIO12*%
X142500000Y-100580000D03*
%TO.N,/GPIO13*%
X142500000Y-98040000D03*
%TO.N,/GPIO15*%
X142500000Y-95500000D03*
%TO.N,/GPIO2*%
X142500000Y-92960000D03*
%TO.N,/GPIO0*%
X142500000Y-90420000D03*
%TO.N,/GPIO4*%
X142500000Y-87880000D03*
%TO.N,GND*%
X142500000Y-85340000D03*
X142500000Y-82800000D03*
%TD*%
D12*
%TO.N,GND*%
X131500000Y-92500000D03*
X129000000Y-88500000D03*
X125000000Y-91500000D03*
X120000000Y-101000000D03*
X129420101Y-102900000D03*
X138637500Y-107500000D03*
X120500000Y-108500000D03*
X120155735Y-97155735D03*
X131000000Y-85500000D03*
X129000000Y-85500000D03*
%TO.N,/ADC_IN*%
X129500000Y-104000000D03*
%TO.N,/CHIP_EN*%
X126500000Y-104400000D03*
X132250000Y-105250000D03*
%TO.N,/GPIO16*%
X132000000Y-103500000D03*
%TO.N,/U0TXD*%
X118500000Y-97500000D03*
%TO.N,Net-(U1-RES12K)*%
X117500000Y-93000000D03*
X121500000Y-90000000D03*
%TO.N,Net-(U1-SD_CLK)*%
X139500000Y-92500000D03*
X136087108Y-95141422D03*
X139000000Y-90000000D03*
X134000000Y-93998114D03*
%TO.N,/SD_D3*%
X132000000Y-94500000D03*
X133500000Y-92798114D03*
%TO.N,/SD_D0*%
X129500000Y-90000000D03*
X129500000Y-94000000D03*
%TO.N,/SD_CMD*%
X130100000Y-92798114D03*
X131000000Y-94500000D03*
%TO.N,+3.3V*%
X125000000Y-83500000D03*
X128000000Y-82500000D03*
X131000000Y-107000000D03*
X134023198Y-96562466D03*
X124000000Y-103500000D03*
X125000000Y-87500000D03*
X126899681Y-102800000D03*
X133500000Y-100000000D03*
%TD*%
%TA.AperFunction,Conductor*%
%TO.N,GND*%
G36*
X143942539Y-80520185D02*
G01*
X143988294Y-80572989D01*
X143999500Y-80624500D01*
X143999500Y-82261988D01*
X143979815Y-82329027D01*
X143927011Y-82374782D01*
X143857853Y-82384726D01*
X143794297Y-82355701D01*
X143763118Y-82314393D01*
X143673600Y-82122422D01*
X143673599Y-82122420D01*
X143538113Y-81928926D01*
X143538108Y-81928920D01*
X143371082Y-81761894D01*
X143177578Y-81626399D01*
X142963492Y-81526570D01*
X142963486Y-81526567D01*
X142750000Y-81469364D01*
X142750000Y-82366988D01*
X142692993Y-82334075D01*
X142565826Y-82300000D01*
X142434174Y-82300000D01*
X142307007Y-82334075D01*
X142250000Y-82366988D01*
X142250000Y-81469364D01*
X142249999Y-81469364D01*
X142036513Y-81526567D01*
X142036507Y-81526570D01*
X141822422Y-81626399D01*
X141822420Y-81626400D01*
X141628926Y-81761886D01*
X141628920Y-81761891D01*
X141461891Y-81928920D01*
X141461886Y-81928926D01*
X141326400Y-82122420D01*
X141326399Y-82122422D01*
X141226570Y-82336507D01*
X141226567Y-82336513D01*
X141169364Y-82549999D01*
X141169364Y-82550000D01*
X142066988Y-82550000D01*
X142034075Y-82607007D01*
X142000000Y-82734174D01*
X142000000Y-82865826D01*
X142034075Y-82992993D01*
X142066988Y-83050000D01*
X141169364Y-83050000D01*
X141226567Y-83263486D01*
X141226570Y-83263492D01*
X141326399Y-83477578D01*
X141461894Y-83671082D01*
X141628917Y-83838105D01*
X141815031Y-83968425D01*
X141858656Y-84023003D01*
X141865848Y-84092501D01*
X141834326Y-84154856D01*
X141815031Y-84171575D01*
X141628922Y-84301890D01*
X141628920Y-84301891D01*
X141461891Y-84468920D01*
X141461886Y-84468926D01*
X141326400Y-84662420D01*
X141326399Y-84662422D01*
X141226570Y-84876507D01*
X141226567Y-84876513D01*
X141169364Y-85089999D01*
X141169364Y-85090000D01*
X142066988Y-85090000D01*
X142034075Y-85147007D01*
X142000000Y-85274174D01*
X142000000Y-85405826D01*
X142034075Y-85532993D01*
X142066988Y-85590000D01*
X141169364Y-85590000D01*
X141226567Y-85803486D01*
X141226570Y-85803492D01*
X141326399Y-86017578D01*
X141461894Y-86211082D01*
X141628917Y-86378105D01*
X141814595Y-86508119D01*
X141858219Y-86562696D01*
X141865412Y-86632195D01*
X141833890Y-86694549D01*
X141814595Y-86711269D01*
X141628594Y-86841508D01*
X141461505Y-87008597D01*
X141325965Y-87202169D01*
X141325964Y-87202171D01*
X141226098Y-87416335D01*
X141226094Y-87416344D01*
X141164938Y-87644586D01*
X141164936Y-87644596D01*
X141144341Y-87879999D01*
X141144341Y-87880000D01*
X141164936Y-88115403D01*
X141164938Y-88115413D01*
X141226094Y-88343655D01*
X141226096Y-88343659D01*
X141226097Y-88343663D01*
X141261319Y-88419196D01*
X141325965Y-88557830D01*
X141325967Y-88557834D01*
X141461501Y-88751395D01*
X141461506Y-88751402D01*
X141628597Y-88918493D01*
X141628603Y-88918498D01*
X141814158Y-89048425D01*
X141857783Y-89103002D01*
X141864977Y-89172500D01*
X141833454Y-89234855D01*
X141814158Y-89251575D01*
X141628597Y-89381505D01*
X141461505Y-89548597D01*
X141325965Y-89742169D01*
X141325964Y-89742171D01*
X141226098Y-89956335D01*
X141226094Y-89956344D01*
X141164938Y-90184586D01*
X141164936Y-90184596D01*
X141144341Y-90419999D01*
X141144341Y-90420000D01*
X141164936Y-90655403D01*
X141164938Y-90655413D01*
X141226094Y-90883655D01*
X141226096Y-90883659D01*
X141226097Y-90883663D01*
X141261319Y-90959196D01*
X141325965Y-91097830D01*
X141325967Y-91097834D01*
X141461501Y-91291395D01*
X141461506Y-91291402D01*
X141628597Y-91458493D01*
X141628603Y-91458498D01*
X141814158Y-91588425D01*
X141857783Y-91643002D01*
X141864977Y-91712500D01*
X141833454Y-91774855D01*
X141814158Y-91791575D01*
X141628597Y-91921505D01*
X141461505Y-92088597D01*
X141325965Y-92282169D01*
X141325964Y-92282171D01*
X141226098Y-92496335D01*
X141226094Y-92496344D01*
X141164938Y-92724586D01*
X141164936Y-92724596D01*
X141144341Y-92959999D01*
X141144341Y-92960000D01*
X141164936Y-93195403D01*
X141164938Y-93195413D01*
X141226094Y-93423655D01*
X141226096Y-93423659D01*
X141226097Y-93423663D01*
X141272840Y-93523903D01*
X141325965Y-93637830D01*
X141325967Y-93637834D01*
X141421459Y-93774209D01*
X141452726Y-93818864D01*
X141461501Y-93831395D01*
X141461506Y-93831402D01*
X141628597Y-93998493D01*
X141628603Y-93998498D01*
X141814158Y-94128425D01*
X141857783Y-94183002D01*
X141864977Y-94252500D01*
X141833454Y-94314855D01*
X141814158Y-94331575D01*
X141628597Y-94461505D01*
X141461505Y-94628597D01*
X141325965Y-94822169D01*
X141325964Y-94822171D01*
X141226098Y-95036335D01*
X141226094Y-95036344D01*
X141164938Y-95264586D01*
X141164936Y-95264596D01*
X141144341Y-95499999D01*
X141144341Y-95500000D01*
X141164936Y-95735403D01*
X141164938Y-95735413D01*
X141226094Y-95963655D01*
X141226096Y-95963659D01*
X141226097Y-95963663D01*
X141271115Y-96060204D01*
X141325965Y-96177830D01*
X141325967Y-96177834D01*
X141461501Y-96371395D01*
X141461506Y-96371402D01*
X141628597Y-96538493D01*
X141628603Y-96538498D01*
X141814158Y-96668425D01*
X141857783Y-96723002D01*
X141864977Y-96792500D01*
X141833454Y-96854855D01*
X141814158Y-96871575D01*
X141628597Y-97001505D01*
X141461505Y-97168597D01*
X141325965Y-97362169D01*
X141325964Y-97362171D01*
X141226098Y-97576335D01*
X141226094Y-97576344D01*
X141164938Y-97804586D01*
X141164936Y-97804596D01*
X141144341Y-98039999D01*
X141144341Y-98040000D01*
X141164936Y-98275403D01*
X141164938Y-98275413D01*
X141226094Y-98503655D01*
X141226096Y-98503659D01*
X141226097Y-98503663D01*
X141261319Y-98579196D01*
X141325965Y-98717830D01*
X141325967Y-98717834D01*
X141461501Y-98911395D01*
X141461506Y-98911402D01*
X141628597Y-99078493D01*
X141628603Y-99078498D01*
X141814158Y-99208425D01*
X141857783Y-99263002D01*
X141864977Y-99332500D01*
X141833454Y-99394855D01*
X141814158Y-99411575D01*
X141628597Y-99541505D01*
X141461505Y-99708597D01*
X141325965Y-99902169D01*
X141325964Y-99902171D01*
X141226098Y-100116335D01*
X141226094Y-100116344D01*
X141164938Y-100344586D01*
X141164936Y-100344596D01*
X141144341Y-100579999D01*
X141144341Y-100580000D01*
X141164936Y-100815403D01*
X141164938Y-100815413D01*
X141226094Y-101043655D01*
X141226096Y-101043659D01*
X141226097Y-101043663D01*
X141261319Y-101119196D01*
X141325965Y-101257830D01*
X141325967Y-101257834D01*
X141353973Y-101297830D01*
X141461501Y-101451396D01*
X141461506Y-101451402D01*
X141583430Y-101573326D01*
X141616915Y-101634649D01*
X141611931Y-101704341D01*
X141570059Y-101760274D01*
X141539083Y-101777189D01*
X141407669Y-101826203D01*
X141407664Y-101826206D01*
X141292455Y-101912452D01*
X141292452Y-101912455D01*
X141206206Y-102027664D01*
X141206202Y-102027671D01*
X141155908Y-102162517D01*
X141149501Y-102222116D01*
X141149500Y-102222135D01*
X141149500Y-104017870D01*
X141149501Y-104017876D01*
X141155908Y-104077483D01*
X141206202Y-104212328D01*
X141206206Y-104212335D01*
X141292452Y-104327544D01*
X141292455Y-104327547D01*
X141407664Y-104413793D01*
X141407671Y-104413797D01*
X141542517Y-104464091D01*
X141542516Y-104464091D01*
X141547549Y-104464632D01*
X141602127Y-104470500D01*
X143397872Y-104470499D01*
X143457483Y-104464091D01*
X143592331Y-104413796D01*
X143707546Y-104327546D01*
X143776234Y-104235789D01*
X143832167Y-104193920D01*
X143901859Y-104188936D01*
X143963182Y-104222421D01*
X143996666Y-104283745D01*
X143999500Y-104310102D01*
X143999500Y-113876000D01*
X143979815Y-113943039D01*
X143927011Y-113988794D01*
X143875500Y-114000000D01*
X132514500Y-114000000D01*
X132447461Y-113980315D01*
X132401706Y-113927511D01*
X132390500Y-113876000D01*
X132390499Y-112102129D01*
X132390498Y-112102123D01*
X132384091Y-112042516D01*
X132333797Y-111907671D01*
X132333793Y-111907664D01*
X132247547Y-111792455D01*
X132247544Y-111792452D01*
X132132335Y-111706206D01*
X132132328Y-111706202D01*
X131997482Y-111655908D01*
X131997483Y-111655908D01*
X131937883Y-111649501D01*
X131937881Y-111649500D01*
X131937873Y-111649500D01*
X131937864Y-111649500D01*
X130142129Y-111649500D01*
X130142123Y-111649501D01*
X130082516Y-111655908D01*
X129947671Y-111706202D01*
X129947664Y-111706206D01*
X129832455Y-111792452D01*
X129832452Y-111792455D01*
X129746206Y-111907664D01*
X129746202Y-111907671D01*
X129696997Y-112039598D01*
X129655126Y-112095532D01*
X129589661Y-112119949D01*
X129521388Y-112105097D01*
X129493134Y-112083946D01*
X129371082Y-111961894D01*
X129177578Y-111826399D01*
X128963492Y-111726570D01*
X128963486Y-111726567D01*
X128750000Y-111669364D01*
X128750000Y-112566988D01*
X128692993Y-112534075D01*
X128565826Y-112500000D01*
X128434174Y-112500000D01*
X128307007Y-112534075D01*
X128250000Y-112566988D01*
X128250000Y-111669364D01*
X128249999Y-111669364D01*
X128036513Y-111726567D01*
X128036507Y-111726570D01*
X127822422Y-111826399D01*
X127822420Y-111826400D01*
X127628926Y-111961886D01*
X127628920Y-111961891D01*
X127461891Y-112128920D01*
X127461886Y-112128926D01*
X127326400Y-112322420D01*
X127326399Y-112322422D01*
X127226570Y-112536507D01*
X127226567Y-112536513D01*
X127169364Y-112749999D01*
X127169364Y-112750000D01*
X128066988Y-112750000D01*
X128034075Y-112807007D01*
X128000000Y-112934174D01*
X128000000Y-113065826D01*
X128034075Y-113192993D01*
X128066988Y-113250000D01*
X127169364Y-113250000D01*
X127226567Y-113463486D01*
X127226570Y-113463492D01*
X127326400Y-113677579D01*
X127326404Y-113677585D01*
X127415535Y-113804876D01*
X127437863Y-113871082D01*
X127420853Y-113938849D01*
X127369906Y-113986663D01*
X127313961Y-114000000D01*
X113624500Y-114000000D01*
X113557461Y-113980315D01*
X113511706Y-113927511D01*
X113500500Y-113876000D01*
X113500500Y-106999996D01*
X130194435Y-106999996D01*
X130194435Y-107000003D01*
X130214630Y-107179249D01*
X130214631Y-107179254D01*
X130274211Y-107349523D01*
X130370184Y-107502262D01*
X130497738Y-107629816D01*
X130650478Y-107725789D01*
X130820745Y-107785368D01*
X130820750Y-107785369D01*
X130999996Y-107805565D01*
X131000000Y-107805565D01*
X131000004Y-107805565D01*
X131179249Y-107785369D01*
X131179252Y-107785368D01*
X131179255Y-107785368D01*
X131349522Y-107725789D01*
X131502262Y-107629816D01*
X131629816Y-107502262D01*
X131725789Y-107349522D01*
X131785368Y-107179255D01*
X131805565Y-107000000D01*
X131785368Y-106820745D01*
X131725789Y-106650478D01*
X131629816Y-106497738D01*
X131502262Y-106370184D01*
X131349523Y-106274211D01*
X131179254Y-106214631D01*
X131179249Y-106214630D01*
X131000004Y-106194435D01*
X130999996Y-106194435D01*
X130820750Y-106214630D01*
X130820745Y-106214631D01*
X130650476Y-106274211D01*
X130497737Y-106370184D01*
X130370184Y-106497737D01*
X130274211Y-106650476D01*
X130214631Y-106820745D01*
X130214630Y-106820750D01*
X130194435Y-106999996D01*
X113500500Y-106999996D01*
X113500500Y-104350102D01*
X113520185Y-104283063D01*
X113572989Y-104237308D01*
X113642147Y-104227364D01*
X113705703Y-104256389D01*
X113723762Y-104275786D01*
X113792454Y-104367546D01*
X113835802Y-104399996D01*
X113907664Y-104453793D01*
X113907671Y-104453797D01*
X114042517Y-104504091D01*
X114042516Y-104504091D01*
X114049444Y-104504835D01*
X114102127Y-104510500D01*
X115897872Y-104510499D01*
X115957483Y-104504091D01*
X116092331Y-104453796D01*
X116164198Y-104399996D01*
X125694435Y-104399996D01*
X125694435Y-104400003D01*
X125714630Y-104579249D01*
X125714631Y-104579254D01*
X125774211Y-104749523D01*
X125796735Y-104785369D01*
X125870184Y-104902262D01*
X125997738Y-105029816D01*
X126150478Y-105125789D01*
X126320745Y-105185368D01*
X126320750Y-105185369D01*
X126499996Y-105205565D01*
X126500000Y-105205565D01*
X126500004Y-105205565D01*
X126679249Y-105185369D01*
X126679252Y-105185368D01*
X126679255Y-105185368D01*
X126849522Y-105125789D01*
X127002262Y-105029816D01*
X127129816Y-104902262D01*
X127225789Y-104749522D01*
X127285368Y-104579255D01*
X127291570Y-104524211D01*
X127305565Y-104400003D01*
X127305565Y-104399996D01*
X127285369Y-104220750D01*
X127285368Y-104220745D01*
X127282423Y-104212328D01*
X127225789Y-104050478D01*
X127194069Y-103999996D01*
X128694435Y-103999996D01*
X128694435Y-104000003D01*
X128714630Y-104179249D01*
X128714631Y-104179254D01*
X128774211Y-104349523D01*
X128870184Y-104502262D01*
X128997738Y-104629816D01*
X129150478Y-104725789D01*
X129218306Y-104749523D01*
X129320745Y-104785368D01*
X129320750Y-104785369D01*
X129499996Y-104805565D01*
X129500000Y-104805565D01*
X129500004Y-104805565D01*
X129679249Y-104785369D01*
X129679252Y-104785368D01*
X129679255Y-104785368D01*
X129849522Y-104725789D01*
X130002262Y-104629816D01*
X130129816Y-104502262D01*
X130225789Y-104349522D01*
X130285368Y-104179255D01*
X130285369Y-104179249D01*
X130305565Y-104000003D01*
X130305565Y-103999996D01*
X130285369Y-103820750D01*
X130285368Y-103820745D01*
X130267676Y-103770184D01*
X130225789Y-103650478D01*
X130203265Y-103614632D01*
X130155369Y-103538406D01*
X130131235Y-103499996D01*
X131194435Y-103499996D01*
X131194435Y-103500003D01*
X131214630Y-103679249D01*
X131214631Y-103679254D01*
X131274211Y-103849523D01*
X131304507Y-103897738D01*
X131370184Y-104002262D01*
X131497738Y-104129816D01*
X131576410Y-104179249D01*
X131645117Y-104222421D01*
X131650478Y-104225789D01*
X131820745Y-104285368D01*
X131859577Y-104289743D01*
X131923989Y-104316808D01*
X131963545Y-104374402D01*
X131965684Y-104444239D01*
X131929727Y-104504146D01*
X131906156Y-104520160D01*
X131906374Y-104520506D01*
X131747737Y-104620184D01*
X131620184Y-104747737D01*
X131524211Y-104900476D01*
X131464631Y-105070745D01*
X131464630Y-105070750D01*
X131444435Y-105249996D01*
X131444435Y-105250003D01*
X131464630Y-105429249D01*
X131464631Y-105429254D01*
X131524211Y-105599523D01*
X131620184Y-105752262D01*
X131747738Y-105879816D01*
X131900478Y-105975789D01*
X132070745Y-106035368D01*
X132070750Y-106035369D01*
X132249996Y-106055565D01*
X132250000Y-106055565D01*
X132250004Y-106055565D01*
X132429249Y-106035369D01*
X132429252Y-106035368D01*
X132429255Y-106035368D01*
X132599522Y-105975789D01*
X132752262Y-105879816D01*
X132879816Y-105752262D01*
X132975789Y-105599522D01*
X133035368Y-105429255D01*
X133055565Y-105250000D01*
X133050558Y-105205565D01*
X133035369Y-105070750D01*
X133035368Y-105070745D01*
X132975788Y-104900476D01*
X132903461Y-104785369D01*
X132879816Y-104747738D01*
X132752262Y-104620184D01*
X132687124Y-104579255D01*
X132599523Y-104524211D01*
X132429254Y-104464631D01*
X132429250Y-104464630D01*
X132390422Y-104460256D01*
X132326008Y-104433190D01*
X132286453Y-104375595D01*
X132284316Y-104305758D01*
X132320274Y-104245851D01*
X132343844Y-104229841D01*
X132343626Y-104229494D01*
X132423580Y-104179255D01*
X132502262Y-104129816D01*
X132629816Y-104002262D01*
X132725789Y-103849522D01*
X132785368Y-103679255D01*
X132785369Y-103679249D01*
X132805565Y-103500003D01*
X132805565Y-103499996D01*
X132785369Y-103320750D01*
X132785368Y-103320745D01*
X132725789Y-103150478D01*
X132725188Y-103149522D01*
X132629815Y-102997737D01*
X132502262Y-102870184D01*
X132349523Y-102774211D01*
X132179254Y-102714631D01*
X132179249Y-102714630D01*
X132000004Y-102694435D01*
X131999996Y-102694435D01*
X131820750Y-102714630D01*
X131820745Y-102714631D01*
X131650476Y-102774211D01*
X131497737Y-102870184D01*
X131370184Y-102997737D01*
X131274211Y-103150476D01*
X131214631Y-103320745D01*
X131214630Y-103320750D01*
X131194435Y-103499996D01*
X130131235Y-103499996D01*
X130129816Y-103497738D01*
X130002262Y-103370184D01*
X129849523Y-103274211D01*
X129679254Y-103214631D01*
X129679249Y-103214630D01*
X129500004Y-103194435D01*
X129499996Y-103194435D01*
X129320750Y-103214630D01*
X129320745Y-103214631D01*
X129150476Y-103274211D01*
X128997737Y-103370184D01*
X128870184Y-103497737D01*
X128774211Y-103650476D01*
X128714631Y-103820745D01*
X128714630Y-103820750D01*
X128694435Y-103999996D01*
X127194069Y-103999996D01*
X127129816Y-103897738D01*
X127024686Y-103792608D01*
X126991201Y-103731285D01*
X126996185Y-103661593D01*
X127038057Y-103605660D01*
X127072999Y-103589487D01*
X127072363Y-103587668D01*
X127078936Y-103585368D01*
X127249203Y-103525789D01*
X127401943Y-103429816D01*
X127529497Y-103302262D01*
X127625470Y-103149522D01*
X127685049Y-102979255D01*
X127685050Y-102979249D01*
X127705246Y-102800003D01*
X127705246Y-102799996D01*
X127685050Y-102620750D01*
X127685049Y-102620745D01*
X127625469Y-102450476D01*
X127529496Y-102297737D01*
X127401943Y-102170184D01*
X127249204Y-102074211D01*
X127078935Y-102014631D01*
X127078930Y-102014630D01*
X126899685Y-101994435D01*
X126899677Y-101994435D01*
X126720431Y-102014630D01*
X126720426Y-102014631D01*
X126550157Y-102074211D01*
X126397418Y-102170184D01*
X126269865Y-102297737D01*
X126173892Y-102450476D01*
X126114312Y-102620745D01*
X126114311Y-102620750D01*
X126094116Y-102799996D01*
X126094116Y-102800003D01*
X126114311Y-102979249D01*
X126114312Y-102979254D01*
X126173892Y-103149523D01*
X126269865Y-103302262D01*
X126374994Y-103407391D01*
X126408479Y-103468714D01*
X126403495Y-103538406D01*
X126361623Y-103594339D01*
X126326688Y-103610533D01*
X126327318Y-103612332D01*
X126150476Y-103674211D01*
X125997737Y-103770184D01*
X125870184Y-103897737D01*
X125774211Y-104050476D01*
X125714631Y-104220745D01*
X125714630Y-104220750D01*
X125694435Y-104399996D01*
X116164198Y-104399996D01*
X116207546Y-104367546D01*
X116293796Y-104252331D01*
X116344091Y-104117483D01*
X116350500Y-104057873D01*
X116350500Y-103499996D01*
X123194435Y-103499996D01*
X123194435Y-103500003D01*
X123214630Y-103679249D01*
X123214631Y-103679254D01*
X123274211Y-103849523D01*
X123304507Y-103897738D01*
X123370184Y-104002262D01*
X123497738Y-104129816D01*
X123576410Y-104179249D01*
X123645117Y-104222421D01*
X123650478Y-104225789D01*
X123737928Y-104256389D01*
X123820745Y-104285368D01*
X123820750Y-104285369D01*
X123999996Y-104305565D01*
X124000000Y-104305565D01*
X124000004Y-104305565D01*
X124179249Y-104285369D01*
X124179252Y-104285368D01*
X124179255Y-104285368D01*
X124349522Y-104225789D01*
X124502262Y-104129816D01*
X124629816Y-104002262D01*
X124725789Y-103849522D01*
X124785368Y-103679255D01*
X124785369Y-103679249D01*
X124805565Y-103500003D01*
X124805565Y-103499996D01*
X124785369Y-103320750D01*
X124785368Y-103320745D01*
X124725789Y-103150478D01*
X124725188Y-103149522D01*
X124629815Y-102997737D01*
X124502262Y-102870184D01*
X124349523Y-102774211D01*
X124179254Y-102714631D01*
X124179249Y-102714630D01*
X124000004Y-102694435D01*
X123999996Y-102694435D01*
X123820750Y-102714630D01*
X123820745Y-102714631D01*
X123650476Y-102774211D01*
X123497737Y-102870184D01*
X123370184Y-102997737D01*
X123274211Y-103150476D01*
X123214631Y-103320745D01*
X123214630Y-103320750D01*
X123194435Y-103499996D01*
X116350500Y-103499996D01*
X116350499Y-102262128D01*
X116344091Y-102202517D01*
X116302521Y-102091063D01*
X116293797Y-102067671D01*
X116293793Y-102067664D01*
X116207547Y-101952455D01*
X116207544Y-101952452D01*
X116092335Y-101866206D01*
X116092328Y-101866202D01*
X115960917Y-101817189D01*
X115904983Y-101775318D01*
X115880566Y-101709853D01*
X115895418Y-101641580D01*
X115916563Y-101613332D01*
X116038495Y-101491401D01*
X116174035Y-101297830D01*
X116273903Y-101083663D01*
X116335063Y-100855408D01*
X116355659Y-100620000D01*
X116335063Y-100384592D01*
X116286888Y-100204799D01*
X116273905Y-100156344D01*
X116273904Y-100156343D01*
X116273903Y-100156337D01*
X116200999Y-99999996D01*
X132694435Y-99999996D01*
X132694435Y-100000003D01*
X132714630Y-100179249D01*
X132714631Y-100179254D01*
X132774211Y-100349523D01*
X132796249Y-100384596D01*
X132870184Y-100502262D01*
X132997738Y-100629816D01*
X133150478Y-100725789D01*
X133320745Y-100785368D01*
X133320750Y-100785369D01*
X133499996Y-100805565D01*
X133500000Y-100805565D01*
X133500004Y-100805565D01*
X133679249Y-100785369D01*
X133679252Y-100785368D01*
X133679255Y-100785368D01*
X133849522Y-100725789D01*
X134002262Y-100629816D01*
X134129816Y-100502262D01*
X134225789Y-100349522D01*
X134285368Y-100179255D01*
X134287139Y-100163541D01*
X134305565Y-100000003D01*
X134305565Y-99999996D01*
X134285369Y-99820750D01*
X134285368Y-99820745D01*
X134225788Y-99650476D01*
X134157317Y-99541506D01*
X134129816Y-99497738D01*
X134002262Y-99370184D01*
X133981277Y-99356998D01*
X133849523Y-99274211D01*
X133679254Y-99214631D01*
X133679249Y-99214630D01*
X133500004Y-99194435D01*
X133499996Y-99194435D01*
X133320750Y-99214630D01*
X133320745Y-99214631D01*
X133150476Y-99274211D01*
X132997737Y-99370184D01*
X132870184Y-99497737D01*
X132774211Y-99650476D01*
X132714631Y-99820745D01*
X132714630Y-99820750D01*
X132694435Y-99999996D01*
X116200999Y-99999996D01*
X116174035Y-99942171D01*
X116146026Y-99902169D01*
X116038494Y-99748597D01*
X115871402Y-99581506D01*
X115871396Y-99581501D01*
X115685842Y-99451575D01*
X115642217Y-99396998D01*
X115635023Y-99327500D01*
X115666546Y-99265145D01*
X115685842Y-99248425D01*
X115742968Y-99208425D01*
X115871401Y-99118495D01*
X116038495Y-98951401D01*
X116174035Y-98757830D01*
X116273903Y-98543663D01*
X116335063Y-98315408D01*
X116355659Y-98080000D01*
X116335063Y-97844592D01*
X116286888Y-97664799D01*
X116273905Y-97616344D01*
X116273904Y-97616343D01*
X116273903Y-97616337D01*
X116219652Y-97499996D01*
X117694435Y-97499996D01*
X117694435Y-97500003D01*
X117714630Y-97679249D01*
X117714631Y-97679254D01*
X117774211Y-97849523D01*
X117870184Y-98002262D01*
X117997738Y-98129816D01*
X118150478Y-98225789D01*
X118292267Y-98275403D01*
X118320745Y-98285368D01*
X118320750Y-98285369D01*
X118499996Y-98305565D01*
X118500000Y-98305565D01*
X118500004Y-98305565D01*
X118679249Y-98285369D01*
X118679252Y-98285368D01*
X118679255Y-98285368D01*
X118849522Y-98225789D01*
X119002262Y-98129816D01*
X119129816Y-98002262D01*
X119225789Y-97849522D01*
X119285368Y-97679255D01*
X119289275Y-97644583D01*
X119305565Y-97500003D01*
X119305565Y-97499996D01*
X119285369Y-97320750D01*
X119285368Y-97320745D01*
X119240417Y-97192282D01*
X119225789Y-97150478D01*
X119129816Y-96997738D01*
X119002262Y-96870184D01*
X118977866Y-96854855D01*
X118849523Y-96774211D01*
X118679254Y-96714631D01*
X118679249Y-96714630D01*
X118500004Y-96694435D01*
X118499996Y-96694435D01*
X118320750Y-96714630D01*
X118320745Y-96714631D01*
X118150476Y-96774211D01*
X117997737Y-96870184D01*
X117870184Y-96997737D01*
X117774211Y-97150476D01*
X117714631Y-97320745D01*
X117714630Y-97320750D01*
X117694435Y-97499996D01*
X116219652Y-97499996D01*
X116174035Y-97402171D01*
X116146026Y-97362169D01*
X116038494Y-97208597D01*
X115871402Y-97041506D01*
X115871396Y-97041501D01*
X115685842Y-96911575D01*
X115642217Y-96856998D01*
X115635023Y-96787500D01*
X115666546Y-96725145D01*
X115685842Y-96708425D01*
X115742968Y-96668425D01*
X115871401Y-96578495D01*
X115887434Y-96562462D01*
X133217633Y-96562462D01*
X133217633Y-96562469D01*
X133237828Y-96741715D01*
X133237829Y-96741720D01*
X133297409Y-96911989D01*
X133351289Y-96997738D01*
X133393382Y-97064728D01*
X133520936Y-97192282D01*
X133673676Y-97288255D01*
X133843943Y-97347834D01*
X133843948Y-97347835D01*
X134023194Y-97368031D01*
X134023198Y-97368031D01*
X134023202Y-97368031D01*
X134202447Y-97347835D01*
X134202450Y-97347834D01*
X134202453Y-97347834D01*
X134372720Y-97288255D01*
X134525460Y-97192282D01*
X134653014Y-97064728D01*
X134748987Y-96911988D01*
X134808566Y-96741721D01*
X134811618Y-96714632D01*
X134828763Y-96562469D01*
X134828763Y-96562462D01*
X134808567Y-96383216D01*
X134808566Y-96383211D01*
X134804434Y-96371402D01*
X134748987Y-96212944D01*
X134726923Y-96177830D01*
X134653013Y-96060203D01*
X134525460Y-95932650D01*
X134372721Y-95836677D01*
X134202452Y-95777097D01*
X134202447Y-95777096D01*
X134023202Y-95756901D01*
X134023194Y-95756901D01*
X133843948Y-95777096D01*
X133843943Y-95777097D01*
X133673674Y-95836677D01*
X133520935Y-95932650D01*
X133393382Y-96060203D01*
X133297409Y-96212942D01*
X133237829Y-96383211D01*
X133237828Y-96383216D01*
X133217633Y-96562462D01*
X115887434Y-96562462D01*
X116038495Y-96411401D01*
X116174035Y-96217830D01*
X116273903Y-96003663D01*
X116335063Y-95775408D01*
X116355659Y-95540000D01*
X116335063Y-95304592D01*
X116286888Y-95124799D01*
X116273905Y-95076344D01*
X116273904Y-95076343D01*
X116273903Y-95076337D01*
X116174035Y-94862171D01*
X116165179Y-94849522D01*
X116038494Y-94668597D01*
X115871402Y-94501506D01*
X115871396Y-94501501D01*
X115685842Y-94371575D01*
X115642217Y-94316998D01*
X115635023Y-94247500D01*
X115666546Y-94185145D01*
X115685842Y-94168425D01*
X115751352Y-94122554D01*
X115871401Y-94038495D01*
X115909900Y-93999996D01*
X128694435Y-93999996D01*
X128694435Y-94000003D01*
X128714630Y-94179249D01*
X128714631Y-94179254D01*
X128774211Y-94349523D01*
X128844575Y-94461506D01*
X128870184Y-94502262D01*
X128997738Y-94629816D01*
X129012609Y-94639160D01*
X129147474Y-94723902D01*
X129150478Y-94725789D01*
X129315355Y-94783482D01*
X129320745Y-94785368D01*
X129320750Y-94785369D01*
X129499996Y-94805565D01*
X129500000Y-94805565D01*
X129500004Y-94805565D01*
X129679249Y-94785369D01*
X129679252Y-94785368D01*
X129679255Y-94785368D01*
X129849522Y-94725789D01*
X130002262Y-94629816D01*
X130007331Y-94624746D01*
X130068649Y-94591261D01*
X130138341Y-94596242D01*
X130194276Y-94638111D01*
X130210573Y-94673297D01*
X130212332Y-94672682D01*
X130274211Y-94849523D01*
X130344994Y-94962172D01*
X130370184Y-95002262D01*
X130497738Y-95129816D01*
X130650478Y-95225789D01*
X130761371Y-95264592D01*
X130820745Y-95285368D01*
X130820750Y-95285369D01*
X130999996Y-95305565D01*
X131000000Y-95305565D01*
X131000004Y-95305565D01*
X131179249Y-95285369D01*
X131179252Y-95285368D01*
X131179255Y-95285368D01*
X131349522Y-95225789D01*
X131434027Y-95172691D01*
X131501264Y-95153690D01*
X131565973Y-95172691D01*
X131650475Y-95225788D01*
X131820745Y-95285368D01*
X131820750Y-95285369D01*
X131999996Y-95305565D01*
X132000000Y-95305565D01*
X132000004Y-95305565D01*
X132179249Y-95285369D01*
X132179252Y-95285368D01*
X132179255Y-95285368D01*
X132349522Y-95225789D01*
X132483798Y-95141418D01*
X135281543Y-95141418D01*
X135281543Y-95141425D01*
X135301738Y-95320671D01*
X135301739Y-95320676D01*
X135361319Y-95490945D01*
X135367009Y-95500000D01*
X135457292Y-95643684D01*
X135584846Y-95771238D01*
X135737586Y-95867211D01*
X135874731Y-95915200D01*
X135907853Y-95926790D01*
X135907858Y-95926791D01*
X136087104Y-95946987D01*
X136087108Y-95946987D01*
X136087112Y-95946987D01*
X136266357Y-95926791D01*
X136266360Y-95926790D01*
X136266363Y-95926790D01*
X136436630Y-95867211D01*
X136589370Y-95771238D01*
X136716924Y-95643684D01*
X136812897Y-95490944D01*
X136872476Y-95320677D01*
X136874288Y-95304596D01*
X136892673Y-95141425D01*
X136892673Y-95141418D01*
X136872477Y-94962172D01*
X136872476Y-94962167D01*
X136823489Y-94822171D01*
X136812897Y-94791900D01*
X136808793Y-94785369D01*
X136742117Y-94679254D01*
X136716924Y-94639160D01*
X136589370Y-94511606D01*
X136570893Y-94499996D01*
X136436631Y-94415633D01*
X136266362Y-94356053D01*
X136266357Y-94356052D01*
X136087112Y-94335857D01*
X136087104Y-94335857D01*
X135907858Y-94356052D01*
X135907853Y-94356053D01*
X135737584Y-94415633D01*
X135584845Y-94511606D01*
X135457292Y-94639159D01*
X135361319Y-94791898D01*
X135301739Y-94962167D01*
X135301738Y-94962172D01*
X135281543Y-95141418D01*
X132483798Y-95141418D01*
X132502262Y-95129816D01*
X132629816Y-95002262D01*
X132725789Y-94849522D01*
X132785368Y-94679255D01*
X132785369Y-94679249D01*
X132805565Y-94500003D01*
X132805565Y-94499996D01*
X132785369Y-94320750D01*
X132785368Y-94320745D01*
X132770060Y-94276998D01*
X132725789Y-94150478D01*
X132629816Y-93997738D01*
X132502262Y-93870184D01*
X132440541Y-93831402D01*
X132349523Y-93774211D01*
X132179254Y-93714631D01*
X132179249Y-93714630D01*
X132000004Y-93694435D01*
X131999996Y-93694435D01*
X131820750Y-93714630D01*
X131820737Y-93714633D01*
X131650479Y-93774209D01*
X131565971Y-93827309D01*
X131498734Y-93846309D01*
X131434029Y-93827309D01*
X131349520Y-93774209D01*
X131179262Y-93714633D01*
X131179249Y-93714630D01*
X131000004Y-93694435D01*
X130999996Y-93694435D01*
X130820750Y-93714630D01*
X130820745Y-93714631D01*
X130650476Y-93774211D01*
X130497738Y-93870183D01*
X130492663Y-93875259D01*
X130431338Y-93908741D01*
X130361647Y-93903753D01*
X130305715Y-93861878D01*
X130289436Y-93826699D01*
X130287669Y-93827318D01*
X130251691Y-93724500D01*
X130248129Y-93654721D01*
X130282857Y-93594094D01*
X130327778Y-93566503D01*
X130449522Y-93523903D01*
X130602262Y-93427930D01*
X130729816Y-93300376D01*
X130825789Y-93147636D01*
X130885368Y-92977369D01*
X130905565Y-92798114D01*
X130905565Y-92798110D01*
X132694435Y-92798110D01*
X132694435Y-92798117D01*
X132714630Y-92977363D01*
X132714631Y-92977368D01*
X132774211Y-93147637D01*
X132829362Y-93235408D01*
X132870184Y-93300376D01*
X132997738Y-93427930D01*
X133027755Y-93446791D01*
X133116036Y-93502262D01*
X133150478Y-93523903D01*
X133182543Y-93535123D01*
X133239319Y-93575845D01*
X133265066Y-93640798D01*
X133258630Y-93693120D01*
X133214631Y-93818859D01*
X133214630Y-93818864D01*
X133194435Y-93998110D01*
X133194435Y-93998117D01*
X133214630Y-94177363D01*
X133214631Y-94177368D01*
X133274211Y-94347637D01*
X133292941Y-94377445D01*
X133370184Y-94500376D01*
X133497738Y-94627930D01*
X133650478Y-94723903D01*
X133820745Y-94783482D01*
X133820750Y-94783483D01*
X133999996Y-94803679D01*
X134000000Y-94803679D01*
X134000004Y-94803679D01*
X134179249Y-94783483D01*
X134179252Y-94783482D01*
X134179255Y-94783482D01*
X134349522Y-94723903D01*
X134502262Y-94627930D01*
X134629816Y-94500376D01*
X134725789Y-94347636D01*
X134785368Y-94177369D01*
X134801015Y-94038498D01*
X134805565Y-93998117D01*
X134805565Y-93998110D01*
X134785369Y-93818864D01*
X134785368Y-93818859D01*
X134736020Y-93677830D01*
X134725789Y-93648592D01*
X134719029Y-93637834D01*
X134657051Y-93539196D01*
X134629816Y-93495852D01*
X134502262Y-93368298D01*
X134394165Y-93300376D01*
X134349524Y-93272326D01*
X134349523Y-93272325D01*
X134317455Y-93261104D01*
X134260679Y-93220381D01*
X134234933Y-93155428D01*
X134241370Y-93103108D01*
X134285366Y-92977376D01*
X134285369Y-92977363D01*
X134305565Y-92798117D01*
X134305565Y-92798110D01*
X134285369Y-92618864D01*
X134285368Y-92618859D01*
X134256492Y-92536337D01*
X134243776Y-92499996D01*
X138694435Y-92499996D01*
X138694435Y-92500003D01*
X138714630Y-92679249D01*
X138714631Y-92679254D01*
X138774211Y-92849523D01*
X138843628Y-92959999D01*
X138870184Y-93002262D01*
X138997738Y-93129816D01*
X139076410Y-93179249D01*
X139132721Y-93214632D01*
X139150478Y-93225789D01*
X139283470Y-93272325D01*
X139320745Y-93285368D01*
X139320750Y-93285369D01*
X139499996Y-93305565D01*
X139500000Y-93305565D01*
X139500004Y-93305565D01*
X139679249Y-93285369D01*
X139679252Y-93285368D01*
X139679255Y-93285368D01*
X139849522Y-93225789D01*
X140002262Y-93129816D01*
X140129816Y-93002262D01*
X140225789Y-92849522D01*
X140285368Y-92679255D01*
X140285369Y-92679249D01*
X140305565Y-92500003D01*
X140305565Y-92499996D01*
X140285369Y-92320750D01*
X140285368Y-92320745D01*
X140225788Y-92150476D01*
X140139246Y-92012746D01*
X140129816Y-91997738D01*
X140002262Y-91870184D01*
X139849523Y-91774211D01*
X139679254Y-91714631D01*
X139679249Y-91714630D01*
X139500004Y-91694435D01*
X139499996Y-91694435D01*
X139320750Y-91714630D01*
X139320745Y-91714631D01*
X139150476Y-91774211D01*
X138997737Y-91870184D01*
X138870184Y-91997737D01*
X138774211Y-92150476D01*
X138714631Y-92320745D01*
X138714630Y-92320750D01*
X138694435Y-92499996D01*
X134243776Y-92499996D01*
X134225789Y-92448592D01*
X134129816Y-92295852D01*
X134002262Y-92168298D01*
X133973902Y-92150478D01*
X133849523Y-92072325D01*
X133679254Y-92012745D01*
X133679249Y-92012744D01*
X133500004Y-91992549D01*
X133499996Y-91992549D01*
X133320750Y-92012744D01*
X133320745Y-92012745D01*
X133150476Y-92072325D01*
X132997737Y-92168298D01*
X132870184Y-92295851D01*
X132774211Y-92448590D01*
X132714631Y-92618859D01*
X132714630Y-92618864D01*
X132694435Y-92798110D01*
X130905565Y-92798110D01*
X130901788Y-92764596D01*
X130885369Y-92618864D01*
X130885368Y-92618859D01*
X130856492Y-92536337D01*
X130825789Y-92448592D01*
X130729816Y-92295852D01*
X130602262Y-92168298D01*
X130573902Y-92150478D01*
X130449523Y-92072325D01*
X130279254Y-92012745D01*
X130279249Y-92012744D01*
X130100004Y-91992549D01*
X130099996Y-91992549D01*
X129920750Y-92012744D01*
X129920745Y-92012745D01*
X129750476Y-92072325D01*
X129597737Y-92168298D01*
X129470184Y-92295851D01*
X129374211Y-92448590D01*
X129314631Y-92618859D01*
X129314630Y-92618864D01*
X129294435Y-92798110D01*
X129294435Y-92798117D01*
X129314630Y-92977363D01*
X129314632Y-92977371D01*
X129348309Y-93073615D01*
X129351870Y-93143394D01*
X129317141Y-93204021D01*
X129272222Y-93231611D01*
X129150476Y-93274211D01*
X128997737Y-93370184D01*
X128870184Y-93497737D01*
X128774211Y-93650476D01*
X128714631Y-93820745D01*
X128714630Y-93820750D01*
X128694435Y-93999996D01*
X115909900Y-93999996D01*
X116038495Y-93871401D01*
X116174035Y-93677830D01*
X116273903Y-93463663D01*
X116335063Y-93235408D01*
X116355659Y-93000000D01*
X116355659Y-92999996D01*
X116694435Y-92999996D01*
X116694435Y-93000003D01*
X116714630Y-93179249D01*
X116714631Y-93179254D01*
X116774211Y-93349523D01*
X116870184Y-93502262D01*
X116997738Y-93629816D01*
X117037374Y-93654721D01*
X117148426Y-93724500D01*
X117150478Y-93725789D01*
X117288860Y-93774211D01*
X117320745Y-93785368D01*
X117320750Y-93785369D01*
X117499996Y-93805565D01*
X117500000Y-93805565D01*
X117500004Y-93805565D01*
X117679249Y-93785369D01*
X117679252Y-93785368D01*
X117679255Y-93785368D01*
X117849522Y-93725789D01*
X118002262Y-93629816D01*
X118129816Y-93502262D01*
X118225789Y-93349522D01*
X118285368Y-93179255D01*
X118288053Y-93155428D01*
X118305565Y-93000003D01*
X118305565Y-92999996D01*
X118285369Y-92820750D01*
X118285368Y-92820745D01*
X118251724Y-92724596D01*
X118225789Y-92650478D01*
X118205921Y-92618859D01*
X118172486Y-92565647D01*
X118129816Y-92497738D01*
X118002262Y-92370184D01*
X117925847Y-92322169D01*
X117849523Y-92274211D01*
X117679254Y-92214631D01*
X117679249Y-92214630D01*
X117500004Y-92194435D01*
X117499996Y-92194435D01*
X117320750Y-92214630D01*
X117320745Y-92214631D01*
X117150476Y-92274211D01*
X116997737Y-92370184D01*
X116870184Y-92497737D01*
X116774211Y-92650476D01*
X116714631Y-92820745D01*
X116714630Y-92820750D01*
X116694435Y-92999996D01*
X116355659Y-92999996D01*
X116353678Y-92977363D01*
X116351539Y-92952918D01*
X116335063Y-92764592D01*
X116286888Y-92584799D01*
X116273905Y-92536344D01*
X116273904Y-92536343D01*
X116273903Y-92536337D01*
X116174035Y-92322171D01*
X116155607Y-92295852D01*
X116038494Y-92128597D01*
X115871402Y-91961506D01*
X115871396Y-91961501D01*
X115685842Y-91831575D01*
X115642217Y-91776998D01*
X115635023Y-91707500D01*
X115666546Y-91645145D01*
X115685842Y-91628425D01*
X115742968Y-91588425D01*
X115871401Y-91498495D01*
X116038495Y-91331401D01*
X116174035Y-91137830D01*
X116273903Y-90923663D01*
X116335063Y-90695408D01*
X116355659Y-90460000D01*
X116335063Y-90224592D01*
X116286888Y-90044799D01*
X116274884Y-89999996D01*
X120694435Y-89999996D01*
X120694435Y-90000003D01*
X120714630Y-90179249D01*
X120714631Y-90179254D01*
X120774211Y-90349523D01*
X120818495Y-90420000D01*
X120870184Y-90502262D01*
X120997738Y-90629816D01*
X121150478Y-90725789D01*
X121320745Y-90785368D01*
X121320750Y-90785369D01*
X121499996Y-90805565D01*
X121500000Y-90805565D01*
X121500004Y-90805565D01*
X121679249Y-90785369D01*
X121679252Y-90785368D01*
X121679255Y-90785368D01*
X121849522Y-90725789D01*
X122002262Y-90629816D01*
X122129816Y-90502262D01*
X122225789Y-90349522D01*
X122285368Y-90179255D01*
X122285369Y-90179249D01*
X122305565Y-90000003D01*
X122305565Y-89999996D01*
X128694435Y-89999996D01*
X128694435Y-90000003D01*
X128714630Y-90179249D01*
X128714631Y-90179254D01*
X128774211Y-90349523D01*
X128818495Y-90420000D01*
X128870184Y-90502262D01*
X128997738Y-90629816D01*
X129150478Y-90725789D01*
X129320745Y-90785368D01*
X129320750Y-90785369D01*
X129499996Y-90805565D01*
X129500000Y-90805565D01*
X129500004Y-90805565D01*
X129679249Y-90785369D01*
X129679252Y-90785368D01*
X129679255Y-90785368D01*
X129849522Y-90725789D01*
X130002262Y-90629816D01*
X130129816Y-90502262D01*
X130225789Y-90349522D01*
X130285368Y-90179255D01*
X130285369Y-90179249D01*
X130305565Y-90000003D01*
X130305565Y-89999996D01*
X138194435Y-89999996D01*
X138194435Y-90000003D01*
X138214630Y-90179249D01*
X138214631Y-90179254D01*
X138274211Y-90349523D01*
X138318495Y-90420000D01*
X138370184Y-90502262D01*
X138497738Y-90629816D01*
X138650478Y-90725789D01*
X138820745Y-90785368D01*
X138820750Y-90785369D01*
X138999996Y-90805565D01*
X139000000Y-90805565D01*
X139000004Y-90805565D01*
X139179249Y-90785369D01*
X139179252Y-90785368D01*
X139179255Y-90785368D01*
X139349522Y-90725789D01*
X139502262Y-90629816D01*
X139629816Y-90502262D01*
X139725789Y-90349522D01*
X139785368Y-90179255D01*
X139785369Y-90179249D01*
X139805565Y-90000003D01*
X139805565Y-89999996D01*
X139785369Y-89820750D01*
X139785368Y-89820745D01*
X139725788Y-89650476D01*
X139629815Y-89497737D01*
X139502262Y-89370184D01*
X139349523Y-89274211D01*
X139179254Y-89214631D01*
X139179249Y-89214630D01*
X139000004Y-89194435D01*
X138999996Y-89194435D01*
X138820750Y-89214630D01*
X138820745Y-89214631D01*
X138650476Y-89274211D01*
X138497737Y-89370184D01*
X138370184Y-89497737D01*
X138274211Y-89650476D01*
X138214631Y-89820745D01*
X138214630Y-89820750D01*
X138194435Y-89999996D01*
X130305565Y-89999996D01*
X130285369Y-89820750D01*
X130285368Y-89820745D01*
X130225788Y-89650476D01*
X130129815Y-89497737D01*
X130002262Y-89370184D01*
X129849523Y-89274211D01*
X129679254Y-89214631D01*
X129679249Y-89214630D01*
X129500004Y-89194435D01*
X129499996Y-89194435D01*
X129320750Y-89214630D01*
X129320745Y-89214631D01*
X129150476Y-89274211D01*
X128997737Y-89370184D01*
X128870184Y-89497737D01*
X128774211Y-89650476D01*
X128714631Y-89820745D01*
X128714630Y-89820750D01*
X128694435Y-89999996D01*
X122305565Y-89999996D01*
X122285369Y-89820750D01*
X122285368Y-89820745D01*
X122225788Y-89650476D01*
X122129815Y-89497737D01*
X122002262Y-89370184D01*
X121849523Y-89274211D01*
X121679254Y-89214631D01*
X121679249Y-89214630D01*
X121500004Y-89194435D01*
X121499996Y-89194435D01*
X121320750Y-89214630D01*
X121320745Y-89214631D01*
X121150476Y-89274211D01*
X120997737Y-89370184D01*
X120870184Y-89497737D01*
X120774211Y-89650476D01*
X120714631Y-89820745D01*
X120714630Y-89820750D01*
X120694435Y-89999996D01*
X116274884Y-89999996D01*
X116273905Y-89996344D01*
X116273904Y-89996343D01*
X116273903Y-89996337D01*
X116174035Y-89782171D01*
X116146026Y-89742169D01*
X116038494Y-89588597D01*
X115871402Y-89421506D01*
X115871396Y-89421501D01*
X115685842Y-89291575D01*
X115642217Y-89236998D01*
X115635023Y-89167500D01*
X115666546Y-89105145D01*
X115685842Y-89088425D01*
X115742968Y-89048425D01*
X115871401Y-88958495D01*
X116038495Y-88791401D01*
X116174035Y-88597830D01*
X116273903Y-88383663D01*
X116335063Y-88155408D01*
X116355659Y-87920000D01*
X116335063Y-87684592D01*
X116285601Y-87499996D01*
X124194435Y-87499996D01*
X124194435Y-87500003D01*
X124214630Y-87679249D01*
X124214631Y-87679254D01*
X124274211Y-87849523D01*
X124318495Y-87920000D01*
X124370184Y-88002262D01*
X124497738Y-88129816D01*
X124650478Y-88225789D01*
X124820745Y-88285368D01*
X124820750Y-88285369D01*
X124999996Y-88305565D01*
X125000000Y-88305565D01*
X125000004Y-88305565D01*
X125179249Y-88285369D01*
X125179252Y-88285368D01*
X125179255Y-88285368D01*
X125349522Y-88225789D01*
X125502262Y-88129816D01*
X125629816Y-88002262D01*
X125725789Y-87849522D01*
X125785368Y-87679255D01*
X125789274Y-87644592D01*
X125805565Y-87500003D01*
X125805565Y-87499996D01*
X125785369Y-87320750D01*
X125785368Y-87320745D01*
X125725788Y-87150476D01*
X125629815Y-86997737D01*
X125502262Y-86870184D01*
X125349523Y-86774211D01*
X125179254Y-86714631D01*
X125179249Y-86714630D01*
X125000004Y-86694435D01*
X124999996Y-86694435D01*
X124820750Y-86714630D01*
X124820745Y-86714631D01*
X124650476Y-86774211D01*
X124497737Y-86870184D01*
X124370184Y-86997737D01*
X124274211Y-87150476D01*
X124214631Y-87320745D01*
X124214630Y-87320750D01*
X124194435Y-87499996D01*
X116285601Y-87499996D01*
X116273905Y-87456344D01*
X116273904Y-87456343D01*
X116273903Y-87456337D01*
X116174035Y-87242171D01*
X116146026Y-87202169D01*
X116038494Y-87048597D01*
X115871402Y-86881506D01*
X115871396Y-86881501D01*
X115685842Y-86751575D01*
X115642217Y-86696998D01*
X115635023Y-86627500D01*
X115666546Y-86565145D01*
X115685842Y-86548425D01*
X115743405Y-86508119D01*
X115871401Y-86418495D01*
X116038495Y-86251401D01*
X116174035Y-86057830D01*
X116273903Y-85843663D01*
X116335063Y-85615408D01*
X116355659Y-85380000D01*
X116335063Y-85144592D01*
X116286888Y-84964799D01*
X116273905Y-84916344D01*
X116273904Y-84916343D01*
X116273903Y-84916337D01*
X116174035Y-84702171D01*
X116146202Y-84662420D01*
X116038494Y-84508597D01*
X115871402Y-84341506D01*
X115871401Y-84341505D01*
X115685405Y-84211269D01*
X115641781Y-84156692D01*
X115634588Y-84087193D01*
X115666110Y-84024839D01*
X115685405Y-84008119D01*
X115871082Y-83878105D01*
X116038105Y-83711082D01*
X116173600Y-83517578D01*
X116181799Y-83499996D01*
X124194435Y-83499996D01*
X124194435Y-83500003D01*
X124214630Y-83679249D01*
X124214631Y-83679254D01*
X124274211Y-83849523D01*
X124348923Y-83968425D01*
X124370184Y-84002262D01*
X124497738Y-84129816D01*
X124537589Y-84154856D01*
X124627369Y-84211269D01*
X124650478Y-84225789D01*
X124820745Y-84285368D01*
X124820750Y-84285369D01*
X124999996Y-84305565D01*
X125000000Y-84305565D01*
X125000004Y-84305565D01*
X125179249Y-84285369D01*
X125179252Y-84285368D01*
X125179255Y-84285368D01*
X125349522Y-84225789D01*
X125502262Y-84129816D01*
X125629816Y-84002262D01*
X125725789Y-83849522D01*
X125785368Y-83679255D01*
X125786289Y-83671082D01*
X125805565Y-83500003D01*
X125805565Y-83499996D01*
X125785369Y-83320750D01*
X125785368Y-83320745D01*
X125752141Y-83225788D01*
X125725789Y-83150478D01*
X125629816Y-82997738D01*
X125502262Y-82870184D01*
X125469379Y-82849522D01*
X125349523Y-82774211D01*
X125179254Y-82714631D01*
X125179249Y-82714630D01*
X125000004Y-82694435D01*
X124999996Y-82694435D01*
X124820750Y-82714630D01*
X124820745Y-82714631D01*
X124650476Y-82774211D01*
X124497737Y-82870184D01*
X124370184Y-82997737D01*
X124274211Y-83150476D01*
X124214631Y-83320745D01*
X124214630Y-83320750D01*
X124194435Y-83499996D01*
X116181799Y-83499996D01*
X116273429Y-83303492D01*
X116273432Y-83303486D01*
X116330636Y-83090000D01*
X115433012Y-83090000D01*
X115465925Y-83032993D01*
X115500000Y-82905826D01*
X115500000Y-82774174D01*
X115465925Y-82647007D01*
X115433012Y-82590000D01*
X116330636Y-82590000D01*
X116330635Y-82589999D01*
X116306519Y-82499996D01*
X127194435Y-82499996D01*
X127194435Y-82500003D01*
X127214630Y-82679249D01*
X127214631Y-82679254D01*
X127274211Y-82849523D01*
X127309589Y-82905826D01*
X127370184Y-83002262D01*
X127497738Y-83129816D01*
X127588080Y-83186582D01*
X127609592Y-83200099D01*
X127650478Y-83225789D01*
X127758210Y-83263486D01*
X127820745Y-83285368D01*
X127820750Y-83285369D01*
X127999996Y-83305565D01*
X128000000Y-83305565D01*
X128000004Y-83305565D01*
X128179249Y-83285369D01*
X128179252Y-83285368D01*
X128179255Y-83285368D01*
X128349522Y-83225789D01*
X128502262Y-83129816D01*
X128629816Y-83002262D01*
X128725789Y-82849522D01*
X128785368Y-82679255D01*
X128785369Y-82679249D01*
X128805565Y-82500003D01*
X128805565Y-82499996D01*
X128785369Y-82320750D01*
X128785368Y-82320745D01*
X128729968Y-82162422D01*
X128725789Y-82150478D01*
X128629816Y-81997738D01*
X128502262Y-81870184D01*
X128349523Y-81774211D01*
X128179254Y-81714631D01*
X128179249Y-81714630D01*
X128000004Y-81694435D01*
X127999996Y-81694435D01*
X127820750Y-81714630D01*
X127820745Y-81714631D01*
X127650476Y-81774211D01*
X127497737Y-81870184D01*
X127370184Y-81997737D01*
X127274211Y-82150476D01*
X127214631Y-82320745D01*
X127214630Y-82320750D01*
X127194435Y-82499996D01*
X116306519Y-82499996D01*
X116273432Y-82376513D01*
X116273429Y-82376507D01*
X116173600Y-82162422D01*
X116173599Y-82162420D01*
X116038113Y-81968926D01*
X116038108Y-81968920D01*
X115871082Y-81801894D01*
X115677578Y-81666399D01*
X115463492Y-81566570D01*
X115463486Y-81566567D01*
X115250000Y-81509364D01*
X115250000Y-82406988D01*
X115192993Y-82374075D01*
X115065826Y-82340000D01*
X114934174Y-82340000D01*
X114807007Y-82374075D01*
X114750000Y-82406988D01*
X114750000Y-81509364D01*
X114749999Y-81509364D01*
X114536513Y-81566567D01*
X114536507Y-81566570D01*
X114322422Y-81666399D01*
X114322420Y-81666400D01*
X114128926Y-81801886D01*
X114128920Y-81801891D01*
X113961891Y-81968920D01*
X113961886Y-81968926D01*
X113826400Y-82162420D01*
X113826399Y-82162422D01*
X113736882Y-82354393D01*
X113690710Y-82406832D01*
X113623516Y-82425984D01*
X113556635Y-82405768D01*
X113511300Y-82352603D01*
X113500500Y-82301988D01*
X113500500Y-80624500D01*
X113520185Y-80557461D01*
X113572989Y-80511706D01*
X113624500Y-80500500D01*
X143875500Y-80500500D01*
X143942539Y-80520185D01*
G37*
%TD.AperFunction*%
%TA.AperFunction,Conductor*%
G36*
X142750000Y-84906988D02*
G01*
X142692993Y-84874075D01*
X142565826Y-84840000D01*
X142434174Y-84840000D01*
X142307007Y-84874075D01*
X142250000Y-84906988D01*
X142250000Y-83233012D01*
X142307007Y-83265925D01*
X142434174Y-83300000D01*
X142565826Y-83300000D01*
X142692993Y-83265925D01*
X142750000Y-83233012D01*
X142750000Y-84906988D01*
G37*
%TD.AperFunction*%
%TD*%
D10*
%TO.P,J1,1,Pin_1*%
%TO.N,+3.3V*%
X115000000Y-103160000D03*
D11*
%TO.P,J1,2,Pin_2*%
%TO.N,/RST*%
X115000000Y-100620000D03*
%TO.P,J1,3,Pin_3*%
%TO.N,/U0RXD*%
X115000000Y-98080000D03*
%TO.P,J1,4,Pin_4*%
%TO.N,/U0TXD*%
X115000000Y-95540000D03*
%TO.P,J1,5,Pin_5*%
%TO.N,/ADC_IN*%
X115000000Y-93000000D03*
%TO.P,J1,6,Pin_6*%
%TO.N,/CHIP_EN*%
X115000000Y-90460000D03*
%TO.P,J1,7,Pin_7*%
%TO.N,/GPIO16*%
X115000000Y-87920000D03*
%TO.P,J1,8,Pin_8*%
%TO.N,/GPI05*%
X115000000Y-85380000D03*
%TO.P,J1,9,Pin_9*%
%TO.N,GND*%
X115000000Y-82840000D03*
%TD*%
D10*
%TO.P,J3,1,Pin_1*%
%TO.N,/ANT*%
X130540000Y-113500000D03*
D11*
%TO.P,J3,2,Pin_2*%
%TO.N,GND*%
X128000000Y-113500000D03*
%TD*%
D10*
%TO.P,J2,1,Pin_1*%
%TO.N,/GPIO14*%
X142500000Y-103120000D03*
D11*
%TO.P,J2,2,Pin_2*%
%TO.N,/GPIO12*%
X142500000Y-100580000D03*
%TO.P,J2,3,Pin_3*%
%TO.N,/GPIO13*%
X142500000Y-98040000D03*
%TO.P,J2,4,Pin_4*%
%TO.N,/GPIO15*%
X142500000Y-95500000D03*
%TO.P,J2,5,Pin_5*%
%TO.N,/GPIO2*%
X142500000Y-92960000D03*
%TO.P,J2,6,Pin_6*%
%TO.N,/GPIO0*%
X142500000Y-90420000D03*
%TO.P,J2,7,Pin_7*%
%TO.N,/GPIO4*%
X142500000Y-87880000D03*
%TO.P,J2,8,Pin_8*%
%TO.N,GND*%
X142500000Y-85340000D03*
%TO.P,J2,9,Pin_9*%
X142500000Y-82800000D03*
%TD*%
D12*
%TO.N,GND*%
X131500000Y-92500000D03*
X129000000Y-88500000D03*
X125000000Y-91500000D03*
X120000000Y-101000000D03*
X129420101Y-102900000D03*
X138637500Y-107500000D03*
X120500000Y-108500000D03*
X120155735Y-97155735D03*
X131000000Y-85500000D03*
X129000000Y-85500000D03*
%TO.N,/ADC_IN*%
X129500000Y-104000000D03*
%TO.N,/CHIP_EN*%
X126500000Y-104400000D03*
X132250000Y-105250000D03*
%TO.N,/GPIO16*%
X132000000Y-103500000D03*
%TO.N,/U0TXD*%
X118500000Y-97500000D03*
%TO.N,Net-(U1-RES12K)*%
X117500000Y-93000000D03*
X121500000Y-90000000D03*
%TO.N,Net-(U1-SD_CLK)*%
X139500000Y-92500000D03*
X136087108Y-95141422D03*
X139000000Y-90000000D03*
X134000000Y-93998114D03*
%TO.N,/SD_D3*%
X132000000Y-94500000D03*
X133500000Y-92798114D03*
%TO.N,/SD_D0*%
X129500000Y-90000000D03*
X129500000Y-94000000D03*
%TO.N,/SD_CMD*%
X130100000Y-92798114D03*
X131000000Y-94500000D03*
%TO.N,+3.3V*%
X125000000Y-83500000D03*
X128000000Y-82500000D03*
X131000000Y-107000000D03*
X134023198Y-96562466D03*
X124000000Y-103500000D03*
X125000000Y-87500000D03*
X126899681Y-102800000D03*
X133500000Y-100000000D03*
%TD*%
D13*
%TO.N,/ADC_IN*%
X125485785Y-104000000D02*
X124434314Y-104000000D01*
X119100000Y-97100000D02*
X115000000Y-93000000D01*
X119100000Y-97900000D02*
X119100000Y-97100000D01*
X118500000Y-102500000D02*
X120717157Y-104717157D01*
X118500000Y-98500000D02*
X119100000Y-97900000D01*
X126914215Y-103400000D02*
X126085785Y-103400000D01*
X124434314Y-104000000D02*
X123717157Y-104717157D01*
X126085785Y-103400000D02*
X125485785Y-104000000D01*
X120717157Y-104717157D02*
X123717157Y-104717157D01*
X127514215Y-104000000D02*
X126914215Y-103400000D01*
X118500000Y-102500000D02*
X118500000Y-98500000D01*
X129500000Y-104000000D02*
X127514215Y-104000000D01*
%TO.N,/CHIP_EN*%
X129750000Y-105250000D02*
X132250000Y-105250000D01*
X126500000Y-104400000D02*
X127100000Y-105000000D01*
X129500000Y-105000000D02*
X129750000Y-105250000D01*
X127100000Y-105000000D02*
X129500000Y-105000000D01*
%TO.N,/GPIO16*%
X113797919Y-89122081D02*
X113797919Y-104797919D01*
X122000000Y-107000000D02*
X124500000Y-104500000D01*
X126251471Y-103800000D02*
X126748529Y-103800000D01*
X124500000Y-104500000D02*
X125900000Y-104500000D01*
X116000000Y-107000000D02*
X122000000Y-107000000D01*
X130900000Y-104600000D02*
X132000000Y-103500000D01*
X127548529Y-104600000D02*
X130900000Y-104600000D01*
X126748529Y-103800000D02*
X127548529Y-104600000D01*
X115000000Y-87920000D02*
X113797919Y-89122081D01*
X125900000Y-104500000D02*
X125900000Y-104151471D01*
X113797919Y-104797919D02*
X116000000Y-107000000D01*
X125900000Y-104151471D02*
X126251471Y-103800000D01*
%TO.N,/U0TXD*%
X115000000Y-95540000D02*
X116540000Y-95540000D01*
X116540000Y-95540000D02*
X118500000Y-97500000D01*
%TO.N,Net-(U1-RES12K)*%
X120500000Y-90000000D02*
X117500000Y-93000000D01*
X121500000Y-90000000D02*
X120500000Y-90000000D01*
%TO.N,Net-(U1-SD_CLK)*%
X135001886Y-95000000D02*
X135945686Y-95000000D01*
X139000000Y-92000000D02*
X139500000Y-92500000D01*
X134000000Y-93998114D02*
X135001886Y-95000000D01*
X139000000Y-90000000D02*
X139000000Y-92000000D01*
X135945686Y-95000000D02*
X136087108Y-95141422D01*
%TO.N,/SD_D3*%
X132000000Y-94298114D02*
X132000000Y-94500000D01*
X133500000Y-92798114D02*
X132000000Y-94298114D01*
%TO.N,/SD_D0*%
X129500000Y-94000000D02*
X129500000Y-90000000D01*
%TO.N,/SD_CMD*%
X130100000Y-93600000D02*
X131000000Y-94500000D01*
X130100000Y-92798114D02*
X130100000Y-93600000D01*
%TO.N,+3.3V*%
X126899681Y-102800000D02*
X124700000Y-102800000D01*
X124700000Y-102800000D02*
X124000000Y-103500000D01*
%TD*%
M02*
