%TF.GenerationSoftware,KiCad,Pcbnew,8.0.3*%
%TF.CreationDate,2024-07-01T13:41:45+02:00*%
%TF.ProjectId,ESP8266,45535038-3236-4362-9e6b-696361645f70,rev?*%
%TF.SameCoordinates,Original*%
%TF.FileFunction,Paste,Top*%
%TF.FilePolarity,Positive*%
%FSLAX46Y46*%
G04 Gerber Fmt 4.6, Leading zero omitted, Abs format (unit mm)*
G04 Created by KiCad (PCBNEW 8.0.3) date 2024-07-01 13:41:45*
%MOMM*%
%LPD*%
G01*
G04 APERTURE LIST*
G04 Aperture macros list*
%AMRoundRect*
0 Rectangle with rounded corners*
0 $1 Rounding radius*
0 $2 $3 $4 $5 $6 $7 $8 $9 X,Y pos of 4 corners*
0 Add a 4 corners polygon primitive as box body*
4,1,4,$2,$3,$4,$5,$6,$7,$8,$9,$2,$3,0*
0 Add four circle primitives for the rounded corners*
1,1,$1+$1,$2,$3*
1,1,$1+$1,$4,$5*
1,1,$1+$1,$6,$7*
1,1,$1+$1,$8,$9*
0 Add four rect primitives between the rounded corners*
20,1,$1+$1,$2,$3,$4,$5,0*
20,1,$1+$1,$4,$5,$6,$7,0*
20,1,$1+$1,$6,$7,$8,$9,0*
20,1,$1+$1,$8,$9,$2,$3,0*%
G04 Aperture macros list end*
%ADD10RoundRect,0.237500X-0.300000X-0.237500X0.300000X-0.237500X0.300000X0.237500X-0.300000X0.237500X0*%
%ADD11RoundRect,0.250000X0.362500X0.700000X-0.362500X0.700000X-0.362500X-0.700000X0.362500X-0.700000X0*%
%ADD12RoundRect,0.232500X0.232500X-0.232500X0.232500X0.232500X-0.232500X0.232500X-0.232500X-0.232500X0*%
%ADD13RoundRect,0.062500X0.062500X-0.375000X0.062500X0.375000X-0.062500X0.375000X-0.062500X-0.375000X0*%
%ADD14RoundRect,0.062500X0.375000X-0.062500X0.375000X0.062500X-0.375000X0.062500X-0.375000X-0.062500X0*%
%ADD15RoundRect,0.237500X-0.237500X0.300000X-0.237500X-0.300000X0.237500X-0.300000X0.237500X0.300000X0*%
%ADD16RoundRect,0.150000X-0.825000X-0.150000X0.825000X-0.150000X0.825000X0.150000X-0.825000X0.150000X0*%
%ADD17RoundRect,0.250000X-0.350000X-0.450000X0.350000X-0.450000X0.350000X0.450000X-0.350000X0.450000X0*%
%ADD18R,0.800000X1.050000*%
%ADD19RoundRect,0.250000X-0.362500X-0.700000X0.362500X-0.700000X0.362500X0.700000X-0.362500X0.700000X0*%
%TA.AperFunction,ComponentPad*%
%ADD20R,1.700000X1.700000*%
%TD*%
%TA.AperFunction,ComponentPad*%
%ADD21O,1.700000X1.700000*%
%TD*%
%TA.AperFunction,ViaPad*%
%ADD22C,0.600000*%
%TD*%
%TA.AperFunction,Conductor*%
%ADD23C,0.200000*%
%TD*%
G04 APERTURE END LIST*
D10*
%TO.C,C5*%
X125637500Y-89000000D03*
X127362500Y-89000000D03*
%TD*%
%TO.C,C4*%
X125637500Y-85000000D03*
X127362500Y-85000000D03*
%TD*%
%TO.C,C1*%
X121000000Y-102500000D03*
X122725000Y-102500000D03*
%TD*%
D11*
%TO.C,L1*%
X136462500Y-109500000D03*
X133137500Y-109500000D03*
%TD*%
D12*
%TO.C,U1*%
X127600000Y-100212500D03*
X128750000Y-100212500D03*
X129900000Y-100212500D03*
X127600000Y-99062500D03*
X128750000Y-99062500D03*
X129900000Y-99062500D03*
X127600000Y-97912500D03*
X128750000Y-97912500D03*
X129900000Y-97912500D03*
D13*
X127000000Y-101500000D03*
X127500000Y-101500000D03*
X128000000Y-101500000D03*
X128500000Y-101500000D03*
X129000000Y-101500000D03*
X129500000Y-101500000D03*
X130000000Y-101500000D03*
X130500000Y-101500000D03*
D14*
X131187500Y-100812500D03*
X131187500Y-100312500D03*
X131187500Y-99812500D03*
X131187500Y-99312500D03*
X131187500Y-98812500D03*
X131187500Y-98312500D03*
X131187500Y-97812500D03*
X131187500Y-97312500D03*
D13*
X130500000Y-96625000D03*
X130000000Y-96625000D03*
X129500000Y-96625000D03*
X129000000Y-96625000D03*
X128500000Y-96625000D03*
X128000000Y-96625000D03*
X127500000Y-96625000D03*
X127000000Y-96625000D03*
D14*
X126312500Y-97312500D03*
X126312500Y-97812500D03*
X126312500Y-98312500D03*
X126312500Y-98812500D03*
X126312500Y-99312500D03*
X126312500Y-99812500D03*
X126312500Y-100312500D03*
X126312500Y-100812500D03*
%TD*%
D10*
%TO.C,C2*%
X120275000Y-96000000D03*
X122000000Y-96000000D03*
%TD*%
%TO.C,C6*%
X129137500Y-109500000D03*
X130862500Y-109500000D03*
%TD*%
D15*
%TO.C,C3*%
X130500000Y-82137500D03*
X130500000Y-83862500D03*
%TD*%
D16*
%TO.C,U2*%
X131550000Y-87690000D03*
X131550000Y-88960000D03*
X131550000Y-90230000D03*
X131550000Y-91500000D03*
X136500000Y-91500000D03*
X136500000Y-90230000D03*
X136500000Y-88960000D03*
X136500000Y-87690000D03*
%TD*%
D17*
%TO.C,R2*%
X136500000Y-83500000D03*
X138500000Y-83500000D03*
%TD*%
%TO.C,R1*%
X125500000Y-93500000D03*
X127500000Y-93500000D03*
%TD*%
D18*
%TO.C,X1*%
X122300000Y-97975000D03*
X122300000Y-100625000D03*
X123500000Y-98000000D03*
X123400000Y-100600000D03*
%TD*%
D19*
%TO.C,L2*%
X124837500Y-106500000D03*
X128162500Y-106500000D03*
%TD*%
D20*
%TO.P,J1,1,Pin_1*%
%TO.N,+3.3V*%
X115000000Y-103160000D03*
D21*
%TO.P,J1,2,Pin_2*%
%TO.N,/RST*%
X115000000Y-100620000D03*
%TO.P,J1,3,Pin_3*%
%TO.N,/U0RXD*%
X115000000Y-98080000D03*
%TO.P,J1,4,Pin_4*%
%TO.N,/U0TXD*%
X115000000Y-95540000D03*
%TO.P,J1,5,Pin_5*%
%TO.N,/ADC_IN*%
X115000000Y-93000000D03*
%TO.P,J1,6,Pin_6*%
%TO.N,/CHIP_EN*%
X115000000Y-90460000D03*
%TO.P,J1,7,Pin_7*%
%TO.N,/GPIO16*%
X115000000Y-87920000D03*
%TO.P,J1,8,Pin_8*%
%TO.N,/GPI05*%
X115000000Y-85380000D03*
%TO.P,J1,9,Pin_9*%
%TO.N,GND*%
X115000000Y-82840000D03*
%TD*%
D20*
%TO.P,J3,1,Pin_1*%
%TO.N,/ANT*%
X130540000Y-113500000D03*
D21*
%TO.P,J3,2,Pin_2*%
%TO.N,GND*%
X128000000Y-113500000D03*
%TD*%
D20*
%TO.P,J2,1,Pin_1*%
%TO.N,/GPIO14*%
X142500000Y-103120000D03*
D21*
%TO.P,J2,2,Pin_2*%
%TO.N,/GPIO12*%
X142500000Y-100580000D03*
%TO.P,J2,3,Pin_3*%
%TO.N,/GPIO13*%
X142500000Y-98040000D03*
%TO.P,J2,4,Pin_4*%
%TO.N,/GPIO15*%
X142500000Y-95500000D03*
%TO.P,J2,5,Pin_5*%
%TO.N,/GPIO2*%
X142500000Y-92960000D03*
%TO.P,J2,6,Pin_6*%
%TO.N,/GPIO0*%
X142500000Y-90420000D03*
%TO.P,J2,7,Pin_7*%
%TO.N,/GPIO4*%
X142500000Y-87880000D03*
%TO.P,J2,8,Pin_8*%
%TO.N,GND*%
X142500000Y-85340000D03*
%TO.P,J2,9,Pin_9*%
X142500000Y-82800000D03*
%TD*%
D22*
%TO.N,GND*%
X131500000Y-92500000D03*
X129000000Y-88500000D03*
X125000000Y-91500000D03*
X120000000Y-101000000D03*
X129420101Y-102900000D03*
X138637500Y-107500000D03*
X120500000Y-108500000D03*
X120155735Y-97155735D03*
X131000000Y-85500000D03*
X129000000Y-85500000D03*
%TO.N,/ADC_IN*%
X129500000Y-104000000D03*
%TO.N,/CHIP_EN*%
X126500000Y-104400000D03*
X132250000Y-105250000D03*
%TO.N,/GPIO16*%
X132000000Y-103500000D03*
%TO.N,/U0TXD*%
X118500000Y-97500000D03*
%TO.N,Net-(U1-RES12K)*%
X117500000Y-93000000D03*
X121500000Y-90000000D03*
%TO.N,Net-(U1-SD_CLK)*%
X139500000Y-92500000D03*
X136087108Y-95141422D03*
X139000000Y-90000000D03*
X134000000Y-93998114D03*
%TO.N,/SD_D3*%
X132000000Y-94500000D03*
X133500000Y-92798114D03*
%TO.N,/SD_D0*%
X129500000Y-90000000D03*
X129500000Y-94000000D03*
%TO.N,/SD_CMD*%
X130100000Y-92798114D03*
X131000000Y-94500000D03*
%TO.N,+3.3V*%
X125000000Y-83500000D03*
X128000000Y-82500000D03*
X131000000Y-107000000D03*
X134023198Y-96562466D03*
X124000000Y-103500000D03*
X125000000Y-87500000D03*
X126899681Y-102800000D03*
X133500000Y-100000000D03*
%TD*%
D23*
%TO.N,/ADC_IN*%
X125485785Y-104000000D02*
X124434314Y-104000000D01*
X119100000Y-97100000D02*
X115000000Y-93000000D01*
X119100000Y-97900000D02*
X119100000Y-97100000D01*
X118500000Y-102500000D02*
X120717157Y-104717157D01*
X118500000Y-98500000D02*
X119100000Y-97900000D01*
X126914215Y-103400000D02*
X126085785Y-103400000D01*
X124434314Y-104000000D02*
X123717157Y-104717157D01*
X126085785Y-103400000D02*
X125485785Y-104000000D01*
X120717157Y-104717157D02*
X123717157Y-104717157D01*
X127514215Y-104000000D02*
X126914215Y-103400000D01*
X118500000Y-102500000D02*
X118500000Y-98500000D01*
X129500000Y-104000000D02*
X127514215Y-104000000D01*
%TO.N,/CHIP_EN*%
X129750000Y-105250000D02*
X132250000Y-105250000D01*
X126500000Y-104400000D02*
X127100000Y-105000000D01*
X129500000Y-105000000D02*
X129750000Y-105250000D01*
X127100000Y-105000000D02*
X129500000Y-105000000D01*
%TO.N,/GPIO16*%
X113797919Y-89122081D02*
X113797919Y-104797919D01*
X122000000Y-107000000D02*
X124500000Y-104500000D01*
X126251471Y-103800000D02*
X126748529Y-103800000D01*
X124500000Y-104500000D02*
X125900000Y-104500000D01*
X116000000Y-107000000D02*
X122000000Y-107000000D01*
X130900000Y-104600000D02*
X132000000Y-103500000D01*
X127548529Y-104600000D02*
X130900000Y-104600000D01*
X126748529Y-103800000D02*
X127548529Y-104600000D01*
X115000000Y-87920000D02*
X113797919Y-89122081D01*
X125900000Y-104500000D02*
X125900000Y-104151471D01*
X113797919Y-104797919D02*
X116000000Y-107000000D01*
X125900000Y-104151471D02*
X126251471Y-103800000D01*
%TO.N,/U0TXD*%
X115000000Y-95540000D02*
X116540000Y-95540000D01*
X116540000Y-95540000D02*
X118500000Y-97500000D01*
%TO.N,Net-(U1-RES12K)*%
X120500000Y-90000000D02*
X117500000Y-93000000D01*
X121500000Y-90000000D02*
X120500000Y-90000000D01*
%TO.N,Net-(U1-SD_CLK)*%
X135001886Y-95000000D02*
X135945686Y-95000000D01*
X139000000Y-92000000D02*
X139500000Y-92500000D01*
X134000000Y-93998114D02*
X135001886Y-95000000D01*
X139000000Y-90000000D02*
X139000000Y-92000000D01*
X135945686Y-95000000D02*
X136087108Y-95141422D01*
%TO.N,/SD_D3*%
X132000000Y-94298114D02*
X132000000Y-94500000D01*
X133500000Y-92798114D02*
X132000000Y-94298114D01*
%TO.N,/SD_D0*%
X129500000Y-94000000D02*
X129500000Y-90000000D01*
%TO.N,/SD_CMD*%
X130100000Y-93600000D02*
X131000000Y-94500000D01*
X130100000Y-92798114D02*
X130100000Y-93600000D01*
%TO.N,+3.3V*%
X126899681Y-102800000D02*
X124700000Y-102800000D01*
X124700000Y-102800000D02*
X124000000Y-103500000D01*
%TD*%
M02*
