%TF.GenerationSoftware,KiCad,Pcbnew,8.0.3*%
%TF.CreationDate,2024-07-03T12:43:34+02:00*%
%TF.ProjectId,Passive Buzzer Module,50617373-6976-4652-9042-757a7a657220,rev?*%
%TF.SameCoordinates,Original*%
%TF.FileFunction,Copper,L2,Inr*%
%TF.FilePolarity,Positive*%
%FSLAX46Y46*%
G04 Gerber Fmt 4.6, Leading zero omitted, Abs format (unit mm)*
G04 Created by KiCad (PCBNEW 8.0.3) date 2024-07-03 12:43:34*
%MOMM*%
%LPD*%
G01*
G04 APERTURE LIST*
G04 Aperture macros list*
%AMRoundRect*
0 Rectangle with rounded corners*
0 $1 Rounding radius*
0 $2 $3 $4 $5 $6 $7 $8 $9 X,Y pos of 4 corners*
0 Add a 4 corners polygon primitive as box body*
4,1,4,$2,$3,$4,$5,$6,$7,$8,$9,$2,$3,0*
0 Add four circle primitives for the rounded corners*
1,1,$1+$1,$2,$3*
1,1,$1+$1,$4,$5*
1,1,$1+$1,$6,$7*
1,1,$1+$1,$8,$9*
0 Add four rect primitives between the rounded corners*
20,1,$1+$1,$2,$3,$4,$5,0*
20,1,$1+$1,$4,$5,$6,$7,0*
20,1,$1+$1,$6,$7,$8,$9,0*
20,1,$1+$1,$8,$9,$2,$3,0*%
G04 Aperture macros list end*
%TA.AperFunction,ComponentPad*%
%ADD10R,1.800000X1.100000*%
%TD*%
%TA.AperFunction,ComponentPad*%
%ADD11RoundRect,0.275000X0.625000X-0.275000X0.625000X0.275000X-0.625000X0.275000X-0.625000X-0.275000X0*%
%TD*%
%TA.AperFunction,ComponentPad*%
%ADD12R,1.700000X1.700000*%
%TD*%
%TA.AperFunction,ComponentPad*%
%ADD13O,1.700000X1.700000*%
%TD*%
%TA.AperFunction,ComponentPad*%
%ADD14R,2.000000X2.000000*%
%TD*%
%TA.AperFunction,ComponentPad*%
%ADD15C,2.000000*%
%TD*%
%TA.AperFunction,ViaPad*%
%ADD16C,0.600000*%
%TD*%
G04 APERTURE END LIST*
D10*
%TO.N,VCC*%
%TO.C,Q1*%
X136400000Y-106040000D03*
D11*
%TO.N,Net-(Q1-B)*%
X134330000Y-104770000D03*
%TO.N,Net-(BZ1-+)*%
X136400000Y-103500000D03*
%TD*%
D12*
%TO.N,GND*%
%TO.C,J1*%
X140000000Y-112500000D03*
D13*
%TO.N,Net-(J1-Pin_2)*%
X137460000Y-112500000D03*
%TO.N,VCC*%
X134920000Y-112500000D03*
%TD*%
D14*
%TO.N,Net-(BZ1-+)*%
%TO.C,BZ1*%
X133400000Y-88500000D03*
D15*
%TO.N,GND*%
X141000000Y-88500000D03*
%TD*%
D16*
%TO.N,Net-(Q1-B)*%
X139500000Y-101500000D03*
%TD*%
%TA.AperFunction,Conductor*%
%TO.N,GND*%
G36*
X142443039Y-85910613D02*
G01*
X142488794Y-85963417D01*
X142500000Y-86014928D01*
X142500000Y-87636922D01*
X142480315Y-87703961D01*
X142427511Y-87749716D01*
X142358353Y-87759660D01*
X142294797Y-87730635D01*
X142272192Y-87704744D01*
X142223434Y-87630116D01*
X141482962Y-88370589D01*
X141465925Y-88307007D01*
X141400099Y-88192993D01*
X141307007Y-88099901D01*
X141192993Y-88034075D01*
X141129410Y-88017037D01*
X141870057Y-87276390D01*
X141870056Y-87276389D01*
X141823229Y-87239943D01*
X141604614Y-87121635D01*
X141604603Y-87121630D01*
X141369493Y-87040916D01*
X141124293Y-87000000D01*
X140875707Y-87000000D01*
X140630506Y-87040916D01*
X140395396Y-87121630D01*
X140395390Y-87121632D01*
X140176761Y-87239949D01*
X140129942Y-87276388D01*
X140129942Y-87276390D01*
X140870590Y-88017037D01*
X140807007Y-88034075D01*
X140692993Y-88099901D01*
X140599901Y-88192993D01*
X140534075Y-88307007D01*
X140517037Y-88370589D01*
X139776564Y-87630116D01*
X139676267Y-87783632D01*
X139576412Y-88011282D01*
X139515387Y-88252261D01*
X139515385Y-88252270D01*
X139494859Y-88499994D01*
X139494859Y-88500005D01*
X139515385Y-88747729D01*
X139515387Y-88747738D01*
X139576412Y-88988717D01*
X139676266Y-89216364D01*
X139776564Y-89369882D01*
X140517037Y-88629409D01*
X140534075Y-88692993D01*
X140599901Y-88807007D01*
X140692993Y-88900099D01*
X140807007Y-88965925D01*
X140870590Y-88982962D01*
X140129942Y-89723609D01*
X140176768Y-89760055D01*
X140176770Y-89760056D01*
X140395385Y-89878364D01*
X140395396Y-89878369D01*
X140630506Y-89959083D01*
X140875707Y-90000000D01*
X141124293Y-90000000D01*
X141369493Y-89959083D01*
X141604603Y-89878369D01*
X141604614Y-89878364D01*
X141823228Y-89760057D01*
X141823231Y-89760055D01*
X141870056Y-89723609D01*
X141129409Y-88982962D01*
X141192993Y-88965925D01*
X141307007Y-88900099D01*
X141400099Y-88807007D01*
X141465925Y-88692993D01*
X141482962Y-88629410D01*
X142223434Y-89369882D01*
X142272192Y-89295255D01*
X142325338Y-89249898D01*
X142394570Y-89240475D01*
X142457905Y-89269978D01*
X142495237Y-89329038D01*
X142500000Y-89363077D01*
X142500000Y-113761163D01*
X142480315Y-113828202D01*
X142427511Y-113873957D01*
X142370369Y-113885035D01*
X141350743Y-113838688D01*
X141284667Y-113815980D01*
X141241357Y-113761153D01*
X141234564Y-113691614D01*
X141257109Y-113640503D01*
X141293352Y-113592090D01*
X141293354Y-113592086D01*
X141343596Y-113457379D01*
X141343598Y-113457372D01*
X141349999Y-113397844D01*
X141350000Y-113397827D01*
X141350000Y-112750000D01*
X140433012Y-112750000D01*
X140465925Y-112692993D01*
X140500000Y-112565826D01*
X140500000Y-112434174D01*
X140465925Y-112307007D01*
X140433012Y-112250000D01*
X141350000Y-112250000D01*
X141350000Y-111602172D01*
X141349999Y-111602155D01*
X141343598Y-111542627D01*
X141343596Y-111542620D01*
X141293354Y-111407913D01*
X141293350Y-111407906D01*
X141207190Y-111292812D01*
X141207187Y-111292809D01*
X141092093Y-111206649D01*
X141092086Y-111206645D01*
X140957379Y-111156403D01*
X140957372Y-111156401D01*
X140897844Y-111150000D01*
X140250000Y-111150000D01*
X140250000Y-112066988D01*
X140192993Y-112034075D01*
X140065826Y-112000000D01*
X139934174Y-112000000D01*
X139807007Y-112034075D01*
X139750000Y-112066988D01*
X139750000Y-111150000D01*
X139102155Y-111150000D01*
X139042627Y-111156401D01*
X139042620Y-111156403D01*
X138907913Y-111206645D01*
X138907906Y-111206649D01*
X138792812Y-111292809D01*
X138792809Y-111292812D01*
X138706649Y-111407906D01*
X138706645Y-111407913D01*
X138657578Y-111539470D01*
X138615707Y-111595404D01*
X138550242Y-111619821D01*
X138481969Y-111604969D01*
X138453715Y-111583819D01*
X138409366Y-111539470D01*
X138331401Y-111461505D01*
X138331397Y-111461502D01*
X138331396Y-111461501D01*
X138137834Y-111325967D01*
X138137830Y-111325965D01*
X138066727Y-111292809D01*
X137923663Y-111226097D01*
X137923659Y-111226096D01*
X137923655Y-111226094D01*
X137695413Y-111164938D01*
X137695403Y-111164936D01*
X137460001Y-111144341D01*
X137459999Y-111144341D01*
X137224596Y-111164936D01*
X137224586Y-111164938D01*
X136996344Y-111226094D01*
X136996335Y-111226098D01*
X136782171Y-111325964D01*
X136782169Y-111325965D01*
X136588597Y-111461505D01*
X136421505Y-111628597D01*
X136291575Y-111814158D01*
X136236998Y-111857783D01*
X136167500Y-111864977D01*
X136105145Y-111833454D01*
X136088425Y-111814158D01*
X135958494Y-111628597D01*
X135791402Y-111461506D01*
X135791395Y-111461501D01*
X135597834Y-111325967D01*
X135597830Y-111325965D01*
X135526727Y-111292809D01*
X135383663Y-111226097D01*
X135383659Y-111226096D01*
X135383655Y-111226094D01*
X135155413Y-111164938D01*
X135155403Y-111164936D01*
X134920001Y-111144341D01*
X134919999Y-111144341D01*
X134684596Y-111164936D01*
X134684586Y-111164938D01*
X134456344Y-111226094D01*
X134456335Y-111226098D01*
X134242171Y-111325964D01*
X134242169Y-111325965D01*
X134048597Y-111461505D01*
X133881505Y-111628597D01*
X133745965Y-111822169D01*
X133745964Y-111822171D01*
X133646098Y-112036335D01*
X133646094Y-112036344D01*
X133584938Y-112264586D01*
X133584936Y-112264596D01*
X133564341Y-112499999D01*
X133564341Y-112500000D01*
X133584936Y-112735403D01*
X133584938Y-112735413D01*
X133646094Y-112963655D01*
X133646096Y-112963659D01*
X133646097Y-112963663D01*
X133696031Y-113070746D01*
X133745964Y-113177829D01*
X133745965Y-113177830D01*
X133829366Y-113296939D01*
X133851693Y-113363144D01*
X133834683Y-113430912D01*
X133783735Y-113478725D01*
X133722160Y-113491934D01*
X131664194Y-113398390D01*
X131598118Y-113375682D01*
X131554808Y-113320855D01*
X131545826Y-113274704D01*
X131533038Y-104451441D01*
X132929500Y-104451441D01*
X132929500Y-105088558D01*
X132944157Y-105218648D01*
X132944159Y-105218658D01*
X133001497Y-105382517D01*
X133001878Y-105383606D01*
X133094853Y-105531576D01*
X133218424Y-105655147D01*
X133366394Y-105748122D01*
X133531343Y-105805841D01*
X133531349Y-105805841D01*
X133531351Y-105805842D01*
X133572750Y-105810506D01*
X133661442Y-105820499D01*
X133661445Y-105820500D01*
X134875500Y-105820500D01*
X134942539Y-105840185D01*
X134988294Y-105892989D01*
X134999500Y-105944500D01*
X134999500Y-106637870D01*
X134999501Y-106637876D01*
X135005908Y-106697483D01*
X135056202Y-106832328D01*
X135056206Y-106832335D01*
X135142452Y-106947544D01*
X135142455Y-106947547D01*
X135257664Y-107033793D01*
X135257671Y-107033797D01*
X135392517Y-107084091D01*
X135392516Y-107084091D01*
X135399444Y-107084835D01*
X135452127Y-107090500D01*
X137347872Y-107090499D01*
X137407483Y-107084091D01*
X137542331Y-107033796D01*
X137657546Y-106947546D01*
X137743796Y-106832331D01*
X137794091Y-106697483D01*
X137800500Y-106637873D01*
X137800499Y-105442128D01*
X137794091Y-105382517D01*
X137743796Y-105247669D01*
X137743795Y-105247668D01*
X137743793Y-105247664D01*
X137657547Y-105132455D01*
X137657544Y-105132452D01*
X137542335Y-105046206D01*
X137542328Y-105046202D01*
X137407482Y-104995908D01*
X137407483Y-104995908D01*
X137347883Y-104989501D01*
X137347881Y-104989500D01*
X137347873Y-104989500D01*
X137347865Y-104989500D01*
X135854500Y-104989500D01*
X135787461Y-104969815D01*
X135741706Y-104917011D01*
X135730500Y-104865500D01*
X135730500Y-104674500D01*
X135750185Y-104607461D01*
X135802989Y-104561706D01*
X135854500Y-104550500D01*
X137068555Y-104550500D01*
X137068556Y-104550499D01*
X137198657Y-104535841D01*
X137363606Y-104478122D01*
X137511576Y-104385147D01*
X137635147Y-104261576D01*
X137728122Y-104113606D01*
X137785841Y-103948657D01*
X137800500Y-103818552D01*
X137800500Y-103181448D01*
X137785841Y-103051343D01*
X137728122Y-102886394D01*
X137635147Y-102738424D01*
X137511576Y-102614853D01*
X137363606Y-102521878D01*
X137363605Y-102521877D01*
X137363604Y-102521877D01*
X137198658Y-102464159D01*
X137198648Y-102464157D01*
X137068558Y-102449500D01*
X137068552Y-102449500D01*
X135731448Y-102449500D01*
X135731441Y-102449500D01*
X135601351Y-102464157D01*
X135601341Y-102464159D01*
X135436395Y-102521877D01*
X135288423Y-102614853D01*
X135164853Y-102738423D01*
X135071877Y-102886395D01*
X135014159Y-103051341D01*
X135014157Y-103051351D01*
X134999500Y-103181441D01*
X134999500Y-103595500D01*
X134979815Y-103662539D01*
X134927011Y-103708294D01*
X134875500Y-103719500D01*
X133661441Y-103719500D01*
X133531351Y-103734157D01*
X133531341Y-103734159D01*
X133366395Y-103791877D01*
X133218423Y-103884853D01*
X133094853Y-104008423D01*
X133001877Y-104156395D01*
X132944159Y-104321341D01*
X132944157Y-104321351D01*
X132929500Y-104451441D01*
X131533038Y-104451441D01*
X131528761Y-101499996D01*
X138694435Y-101499996D01*
X138694435Y-101500003D01*
X138714630Y-101679249D01*
X138714631Y-101679254D01*
X138774211Y-101849523D01*
X138870184Y-102002262D01*
X138997738Y-102129816D01*
X139150478Y-102225789D01*
X139320745Y-102285368D01*
X139320750Y-102285369D01*
X139499996Y-102305565D01*
X139500000Y-102305565D01*
X139500004Y-102305565D01*
X139679249Y-102285369D01*
X139679252Y-102285368D01*
X139679255Y-102285368D01*
X139849522Y-102225789D01*
X140002262Y-102129816D01*
X140129816Y-102002262D01*
X140225789Y-101849522D01*
X140285368Y-101679255D01*
X140305565Y-101500000D01*
X140285368Y-101320745D01*
X140225789Y-101150478D01*
X140129816Y-100997738D01*
X140002262Y-100870184D01*
X139849523Y-100774211D01*
X139679254Y-100714631D01*
X139679249Y-100714630D01*
X139500004Y-100694435D01*
X139499996Y-100694435D01*
X139320750Y-100714630D01*
X139320745Y-100714631D01*
X139150476Y-100774211D01*
X138997737Y-100870184D01*
X138870184Y-100997737D01*
X138774211Y-101150476D01*
X138714631Y-101320745D01*
X138714630Y-101320750D01*
X138694435Y-101499996D01*
X131528761Y-101499996D01*
X131523540Y-97897648D01*
X136199500Y-97897648D01*
X136199500Y-98102351D01*
X136231522Y-98304534D01*
X136294781Y-98499223D01*
X136387715Y-98681613D01*
X136508028Y-98847213D01*
X136652786Y-98991971D01*
X136807749Y-99104556D01*
X136818390Y-99112287D01*
X136934607Y-99171503D01*
X137000776Y-99205218D01*
X137000778Y-99205218D01*
X137000781Y-99205220D01*
X137105137Y-99239127D01*
X137195465Y-99268477D01*
X137296557Y-99284488D01*
X137397648Y-99300500D01*
X137397649Y-99300500D01*
X137602351Y-99300500D01*
X137602352Y-99300500D01*
X137804534Y-99268477D01*
X137999219Y-99205220D01*
X138181610Y-99112287D01*
X138274590Y-99044732D01*
X138347213Y-98991971D01*
X138347215Y-98991968D01*
X138347219Y-98991966D01*
X138491966Y-98847219D01*
X138491968Y-98847215D01*
X138491971Y-98847213D01*
X138544732Y-98774590D01*
X138612287Y-98681610D01*
X138705220Y-98499219D01*
X138768477Y-98304534D01*
X138800500Y-98102352D01*
X138800500Y-97897648D01*
X138768477Y-97695466D01*
X138705220Y-97500781D01*
X138705218Y-97500778D01*
X138705218Y-97500776D01*
X138671503Y-97434607D01*
X138612287Y-97318390D01*
X138604556Y-97307749D01*
X138491971Y-97152786D01*
X138347213Y-97008028D01*
X138181613Y-96887715D01*
X138181612Y-96887714D01*
X138181610Y-96887713D01*
X138124653Y-96858691D01*
X137999223Y-96794781D01*
X137804534Y-96731522D01*
X137629995Y-96703878D01*
X137602352Y-96699500D01*
X137397648Y-96699500D01*
X137373329Y-96703351D01*
X137195465Y-96731522D01*
X137000776Y-96794781D01*
X136818386Y-96887715D01*
X136652786Y-97008028D01*
X136508028Y-97152786D01*
X136387715Y-97318386D01*
X136294781Y-97500776D01*
X136231522Y-97695465D01*
X136199500Y-97897648D01*
X131523540Y-97897648D01*
X131517154Y-93491500D01*
X131508402Y-87452135D01*
X131899500Y-87452135D01*
X131899500Y-89547870D01*
X131899501Y-89547876D01*
X131905908Y-89607483D01*
X131956202Y-89742328D01*
X131956206Y-89742335D01*
X132042452Y-89857544D01*
X132042455Y-89857547D01*
X132157664Y-89943793D01*
X132157671Y-89943797D01*
X132292517Y-89994091D01*
X132292516Y-89994091D01*
X132299444Y-89994835D01*
X132352127Y-90000500D01*
X134447872Y-90000499D01*
X134507483Y-89994091D01*
X134642331Y-89943796D01*
X134757546Y-89857546D01*
X134843796Y-89742331D01*
X134894091Y-89607483D01*
X134900500Y-89547873D01*
X134900499Y-87452128D01*
X134894091Y-87392517D01*
X134850778Y-87276390D01*
X134843797Y-87257671D01*
X134843793Y-87257664D01*
X134757547Y-87142455D01*
X134757544Y-87142452D01*
X134642335Y-87056206D01*
X134642328Y-87056202D01*
X134507482Y-87005908D01*
X134507483Y-87005908D01*
X134447883Y-86999501D01*
X134447881Y-86999500D01*
X134447873Y-86999500D01*
X134447864Y-86999500D01*
X132352129Y-86999500D01*
X132352123Y-86999501D01*
X132292516Y-87005908D01*
X132157671Y-87056202D01*
X132157664Y-87056206D01*
X132042455Y-87142452D01*
X132042452Y-87142455D01*
X131956206Y-87257664D01*
X131956202Y-87257671D01*
X131905908Y-87392517D01*
X131899501Y-87452116D01*
X131899501Y-87452123D01*
X131899500Y-87452135D01*
X131508402Y-87452135D01*
X131506320Y-86015108D01*
X131525908Y-85948040D01*
X131578645Y-85902208D01*
X131630320Y-85890928D01*
X142376000Y-85890928D01*
X142443039Y-85910613D01*
G37*
%TD.AperFunction*%
%TD*%
M02*
