%TF.GenerationSoftware,KiCad,Pcbnew,8.0.3*%
%TF.CreationDate,2024-07-03T12:43:34+02:00*%
%TF.ProjectId,Passive Buzzer Module,50617373-6976-4652-9042-757a7a657220,rev?*%
%TF.SameCoordinates,Original*%
%TF.FileFunction,Copper,L3,Inr*%
%TF.FilePolarity,Positive*%
%FSLAX46Y46*%
G04 Gerber Fmt 4.6, Leading zero omitted, Abs format (unit mm)*
G04 Created by KiCad (PCBNEW 8.0.3) date 2024-07-03 12:43:34*
%MOMM*%
%LPD*%
G01*
G04 APERTURE LIST*
G04 Aperture macros list*
%AMRoundRect*
0 Rectangle with rounded corners*
0 $1 Rounding radius*
0 $2 $3 $4 $5 $6 $7 $8 $9 X,Y pos of 4 corners*
0 Add a 4 corners polygon primitive as box body*
4,1,4,$2,$3,$4,$5,$6,$7,$8,$9,$2,$3,0*
0 Add four circle primitives for the rounded corners*
1,1,$1+$1,$2,$3*
1,1,$1+$1,$4,$5*
1,1,$1+$1,$6,$7*
1,1,$1+$1,$8,$9*
0 Add four rect primitives between the rounded corners*
20,1,$1+$1,$2,$3,$4,$5,0*
20,1,$1+$1,$4,$5,$6,$7,0*
20,1,$1+$1,$6,$7,$8,$9,0*
20,1,$1+$1,$8,$9,$2,$3,0*%
G04 Aperture macros list end*
%TA.AperFunction,ComponentPad*%
%ADD10R,1.800000X1.100000*%
%TD*%
%TA.AperFunction,ComponentPad*%
%ADD11RoundRect,0.275000X0.625000X-0.275000X0.625000X0.275000X-0.625000X0.275000X-0.625000X-0.275000X0*%
%TD*%
%TA.AperFunction,ComponentPad*%
%ADD12R,1.700000X1.700000*%
%TD*%
%TA.AperFunction,ComponentPad*%
%ADD13O,1.700000X1.700000*%
%TD*%
%TA.AperFunction,ComponentPad*%
%ADD14R,2.000000X2.000000*%
%TD*%
%TA.AperFunction,ComponentPad*%
%ADD15C,2.000000*%
%TD*%
%TA.AperFunction,ViaPad*%
%ADD16C,0.600000*%
%TD*%
G04 APERTURE END LIST*
D10*
%TO.N,VCC*%
%TO.C,Q1*%
X136400000Y-106040000D03*
D11*
%TO.N,Net-(Q1-B)*%
X134330000Y-104770000D03*
%TO.N,Net-(BZ1-+)*%
X136400000Y-103500000D03*
%TD*%
D12*
%TO.N,GND*%
%TO.C,J1*%
X140000000Y-112500000D03*
D13*
%TO.N,Net-(J1-Pin_2)*%
X137460000Y-112500000D03*
%TO.N,VCC*%
X134920000Y-112500000D03*
%TD*%
D14*
%TO.N,Net-(BZ1-+)*%
%TO.C,BZ1*%
X133400000Y-88500000D03*
D15*
%TO.N,GND*%
X141000000Y-88500000D03*
%TD*%
D16*
%TO.N,Net-(Q1-B)*%
X139500000Y-101500000D03*
%TD*%
%TA.AperFunction,Conductor*%
%TO.N,VCC*%
G36*
X142443039Y-85519685D02*
G01*
X142488794Y-85572489D01*
X142500000Y-85624000D01*
X142500000Y-87636006D01*
X142480315Y-87703045D01*
X142427511Y-87748800D01*
X142358353Y-87758744D01*
X142294797Y-87729719D01*
X142272191Y-87703828D01*
X142256636Y-87680020D01*
X142188164Y-87575215D01*
X142019744Y-87392262D01*
X141823509Y-87239526D01*
X141823507Y-87239525D01*
X141823506Y-87239524D01*
X141604811Y-87121172D01*
X141604802Y-87121169D01*
X141369616Y-87040429D01*
X141124335Y-86999500D01*
X140875665Y-86999500D01*
X140630383Y-87040429D01*
X140395197Y-87121169D01*
X140395188Y-87121172D01*
X140176493Y-87239524D01*
X139980257Y-87392261D01*
X139811833Y-87575217D01*
X139675826Y-87783393D01*
X139575936Y-88011118D01*
X139514892Y-88252175D01*
X139514890Y-88252187D01*
X139494357Y-88499994D01*
X139494357Y-88500005D01*
X139514890Y-88747812D01*
X139514892Y-88747824D01*
X139575936Y-88988881D01*
X139675826Y-89216606D01*
X139811833Y-89424782D01*
X139811836Y-89424785D01*
X139980256Y-89607738D01*
X140176491Y-89760474D01*
X140395190Y-89878828D01*
X140630386Y-89959571D01*
X140875665Y-90000500D01*
X141124335Y-90000500D01*
X141369614Y-89959571D01*
X141604810Y-89878828D01*
X141823509Y-89760474D01*
X142019744Y-89607738D01*
X142188164Y-89424785D01*
X142272191Y-89296172D01*
X142325337Y-89250815D01*
X142394569Y-89241391D01*
X142457905Y-89270893D01*
X142495236Y-89329953D01*
X142500000Y-89363993D01*
X142500000Y-113376000D01*
X142480315Y-113443039D01*
X142427511Y-113488794D01*
X142376000Y-113500000D01*
X141474500Y-113500000D01*
X141407461Y-113480315D01*
X141361706Y-113427511D01*
X141350500Y-113376000D01*
X141350499Y-111602129D01*
X141350498Y-111602123D01*
X141344091Y-111542516D01*
X141293797Y-111407671D01*
X141293793Y-111407664D01*
X141207547Y-111292455D01*
X141207544Y-111292452D01*
X141092335Y-111206206D01*
X141092328Y-111206202D01*
X140957482Y-111155908D01*
X140957483Y-111155908D01*
X140897883Y-111149501D01*
X140897881Y-111149500D01*
X140897873Y-111149500D01*
X140897864Y-111149500D01*
X139102129Y-111149500D01*
X139102123Y-111149501D01*
X139042516Y-111155908D01*
X138907671Y-111206202D01*
X138907664Y-111206206D01*
X138792455Y-111292452D01*
X138792452Y-111292455D01*
X138706206Y-111407664D01*
X138706203Y-111407669D01*
X138657189Y-111539083D01*
X138615317Y-111595016D01*
X138549853Y-111619433D01*
X138481580Y-111604581D01*
X138453326Y-111583430D01*
X138331402Y-111461506D01*
X138331395Y-111461501D01*
X138137834Y-111325967D01*
X138137830Y-111325965D01*
X138137828Y-111325964D01*
X137923663Y-111226097D01*
X137923659Y-111226096D01*
X137923655Y-111226094D01*
X137695413Y-111164938D01*
X137695403Y-111164936D01*
X137460001Y-111144341D01*
X137459999Y-111144341D01*
X137224596Y-111164936D01*
X137224586Y-111164938D01*
X136996344Y-111226094D01*
X136996335Y-111226098D01*
X136782171Y-111325964D01*
X136782169Y-111325965D01*
X136588597Y-111461505D01*
X136421508Y-111628594D01*
X136291269Y-111814595D01*
X136236692Y-111858219D01*
X136167193Y-111865412D01*
X136104839Y-111833890D01*
X136088119Y-111814594D01*
X135958113Y-111628926D01*
X135958108Y-111628920D01*
X135791082Y-111461894D01*
X135597578Y-111326399D01*
X135383492Y-111226570D01*
X135383486Y-111226567D01*
X135170000Y-111169364D01*
X135170000Y-112066988D01*
X135112993Y-112034075D01*
X134985826Y-112000000D01*
X134854174Y-112000000D01*
X134727007Y-112034075D01*
X134670000Y-112066988D01*
X134670000Y-111169364D01*
X134669999Y-111169364D01*
X134456513Y-111226567D01*
X134456507Y-111226570D01*
X134242422Y-111326399D01*
X134242420Y-111326400D01*
X134048926Y-111461886D01*
X134048920Y-111461891D01*
X133881891Y-111628920D01*
X133881886Y-111628926D01*
X133746400Y-111822420D01*
X133746399Y-111822422D01*
X133646570Y-112036507D01*
X133646567Y-112036513D01*
X133589364Y-112249999D01*
X133589364Y-112250000D01*
X134486988Y-112250000D01*
X134454075Y-112307007D01*
X134420000Y-112434174D01*
X134420000Y-112565826D01*
X134454075Y-112692993D01*
X134486988Y-112750000D01*
X133589364Y-112750000D01*
X133646567Y-112963486D01*
X133646570Y-112963492D01*
X133746400Y-113177579D01*
X133746404Y-113177585D01*
X133835535Y-113304876D01*
X133857863Y-113371082D01*
X133840853Y-113438849D01*
X133789906Y-113486663D01*
X133733961Y-113500000D01*
X131669974Y-113500000D01*
X131602935Y-113480315D01*
X131557180Y-113427511D01*
X131545974Y-113376180D01*
X131533039Y-104451441D01*
X132929500Y-104451441D01*
X132929500Y-105088558D01*
X132944157Y-105218648D01*
X132944159Y-105218658D01*
X132954396Y-105247913D01*
X133001878Y-105383606D01*
X133094853Y-105531576D01*
X133218424Y-105655147D01*
X133366394Y-105748122D01*
X133531343Y-105805841D01*
X133531349Y-105805841D01*
X133531351Y-105805842D01*
X133565993Y-105809745D01*
X133661442Y-105820499D01*
X133661445Y-105820500D01*
X133661448Y-105820500D01*
X134998555Y-105820500D01*
X134998556Y-105820499D01*
X135128657Y-105805841D01*
X135154040Y-105796959D01*
X135194995Y-105790000D01*
X135719670Y-105790000D01*
X135699925Y-105809745D01*
X135650556Y-105895255D01*
X135625000Y-105990630D01*
X135625000Y-106089370D01*
X135650556Y-106184745D01*
X135699925Y-106270255D01*
X135719670Y-106290000D01*
X135000000Y-106290000D01*
X135000000Y-106637844D01*
X135006401Y-106697372D01*
X135006403Y-106697379D01*
X135056645Y-106832086D01*
X135056649Y-106832093D01*
X135142809Y-106947187D01*
X135142812Y-106947190D01*
X135257906Y-107033350D01*
X135257913Y-107033354D01*
X135392620Y-107083596D01*
X135392627Y-107083598D01*
X135452155Y-107089999D01*
X135452172Y-107090000D01*
X136150000Y-107090000D01*
X136650000Y-107090000D01*
X137347828Y-107090000D01*
X137347844Y-107089999D01*
X137407372Y-107083598D01*
X137407379Y-107083596D01*
X137542086Y-107033354D01*
X137542093Y-107033350D01*
X137657187Y-106947190D01*
X137657190Y-106947187D01*
X137743350Y-106832093D01*
X137743354Y-106832086D01*
X137793596Y-106697379D01*
X137793598Y-106697372D01*
X137799999Y-106637844D01*
X137800000Y-106637827D01*
X137800000Y-106290000D01*
X136650000Y-106290000D01*
X136650000Y-107090000D01*
X136150000Y-107090000D01*
X136150000Y-106386410D01*
X136230255Y-106340075D01*
X136300075Y-106270255D01*
X136349444Y-106184745D01*
X136375000Y-106089370D01*
X136375000Y-105990630D01*
X136349444Y-105895255D01*
X136300075Y-105809745D01*
X136280330Y-105790000D01*
X136650000Y-105790000D01*
X137800000Y-105790000D01*
X137800000Y-105442172D01*
X137799999Y-105442155D01*
X137793598Y-105382627D01*
X137793596Y-105382620D01*
X137743354Y-105247913D01*
X137743350Y-105247906D01*
X137657190Y-105132812D01*
X137657187Y-105132809D01*
X137542093Y-105046649D01*
X137542086Y-105046645D01*
X137407379Y-104996403D01*
X137407372Y-104996401D01*
X137347844Y-104990000D01*
X136650000Y-104990000D01*
X136650000Y-105790000D01*
X136280330Y-105790000D01*
X136230255Y-105739925D01*
X136150000Y-105693589D01*
X136150000Y-104990000D01*
X135854500Y-104990000D01*
X135787461Y-104970315D01*
X135741706Y-104917511D01*
X135730500Y-104866000D01*
X135730500Y-104674500D01*
X135750185Y-104607461D01*
X135802989Y-104561706D01*
X135854500Y-104550500D01*
X137068555Y-104550500D01*
X137068556Y-104550499D01*
X137198657Y-104535841D01*
X137363606Y-104478122D01*
X137511576Y-104385147D01*
X137635147Y-104261576D01*
X137728122Y-104113606D01*
X137785841Y-103948657D01*
X137800500Y-103818552D01*
X137800500Y-103181448D01*
X137785841Y-103051343D01*
X137728122Y-102886394D01*
X137635147Y-102738424D01*
X137511576Y-102614853D01*
X137363606Y-102521878D01*
X137363605Y-102521877D01*
X137363604Y-102521877D01*
X137198658Y-102464159D01*
X137198648Y-102464157D01*
X137068558Y-102449500D01*
X137068552Y-102449500D01*
X135731448Y-102449500D01*
X135731441Y-102449500D01*
X135601351Y-102464157D01*
X135601341Y-102464159D01*
X135436395Y-102521877D01*
X135288423Y-102614853D01*
X135164853Y-102738423D01*
X135071877Y-102886395D01*
X135014159Y-103051341D01*
X135014157Y-103051351D01*
X134999500Y-103181441D01*
X134999500Y-103595500D01*
X134979815Y-103662539D01*
X134927011Y-103708294D01*
X134875500Y-103719500D01*
X133661441Y-103719500D01*
X133531351Y-103734157D01*
X133531341Y-103734159D01*
X133366395Y-103791877D01*
X133218423Y-103884853D01*
X133094853Y-104008423D01*
X133001877Y-104156395D01*
X132944159Y-104321341D01*
X132944157Y-104321351D01*
X132929500Y-104451441D01*
X131533039Y-104451441D01*
X131528762Y-101499996D01*
X138694435Y-101499996D01*
X138694435Y-101500003D01*
X138714630Y-101679249D01*
X138714631Y-101679254D01*
X138774211Y-101849523D01*
X138870184Y-102002262D01*
X138997738Y-102129816D01*
X139150478Y-102225789D01*
X139320745Y-102285368D01*
X139320750Y-102285369D01*
X139499996Y-102305565D01*
X139500000Y-102305565D01*
X139500004Y-102305565D01*
X139679249Y-102285369D01*
X139679252Y-102285368D01*
X139679255Y-102285368D01*
X139849522Y-102225789D01*
X140002262Y-102129816D01*
X140129816Y-102002262D01*
X140225789Y-101849522D01*
X140285368Y-101679255D01*
X140305565Y-101500000D01*
X140285368Y-101320745D01*
X140225789Y-101150478D01*
X140129816Y-100997738D01*
X140002262Y-100870184D01*
X139849523Y-100774211D01*
X139679254Y-100714631D01*
X139679249Y-100714630D01*
X139500004Y-100694435D01*
X139499996Y-100694435D01*
X139320750Y-100714630D01*
X139320745Y-100714631D01*
X139150476Y-100774211D01*
X138997737Y-100870184D01*
X138870184Y-100997737D01*
X138774211Y-101150476D01*
X138714631Y-101320745D01*
X138714630Y-101320750D01*
X138694435Y-101499996D01*
X131528762Y-101499996D01*
X131523541Y-97897648D01*
X136199500Y-97897648D01*
X136199500Y-98102351D01*
X136231522Y-98304534D01*
X136294781Y-98499223D01*
X136387715Y-98681613D01*
X136508028Y-98847213D01*
X136652786Y-98991971D01*
X136807749Y-99104556D01*
X136818390Y-99112287D01*
X136934607Y-99171503D01*
X137000776Y-99205218D01*
X137000778Y-99205218D01*
X137000781Y-99205220D01*
X137105137Y-99239127D01*
X137195465Y-99268477D01*
X137296557Y-99284488D01*
X137397648Y-99300500D01*
X137397649Y-99300500D01*
X137602351Y-99300500D01*
X137602352Y-99300500D01*
X137804534Y-99268477D01*
X137999219Y-99205220D01*
X138181610Y-99112287D01*
X138274590Y-99044732D01*
X138347213Y-98991971D01*
X138347215Y-98991968D01*
X138347219Y-98991966D01*
X138491966Y-98847219D01*
X138491968Y-98847215D01*
X138491971Y-98847213D01*
X138544732Y-98774590D01*
X138612287Y-98681610D01*
X138705220Y-98499219D01*
X138768477Y-98304534D01*
X138800500Y-98102352D01*
X138800500Y-97897648D01*
X138768477Y-97695466D01*
X138705220Y-97500781D01*
X138705218Y-97500778D01*
X138705218Y-97500776D01*
X138671503Y-97434607D01*
X138612287Y-97318390D01*
X138604556Y-97307749D01*
X138491971Y-97152786D01*
X138347213Y-97008028D01*
X138181613Y-96887715D01*
X138181612Y-96887714D01*
X138181610Y-96887713D01*
X138124653Y-96858691D01*
X137999223Y-96794781D01*
X137804534Y-96731522D01*
X137629995Y-96703878D01*
X137602352Y-96699500D01*
X137397648Y-96699500D01*
X137373329Y-96703351D01*
X137195465Y-96731522D01*
X137000776Y-96794781D01*
X136818386Y-96887715D01*
X136652786Y-97008028D01*
X136508028Y-97152786D01*
X136387715Y-97318386D01*
X136294781Y-97500776D01*
X136231522Y-97695465D01*
X136199500Y-97897648D01*
X131523541Y-97897648D01*
X131508402Y-87452135D01*
X131899500Y-87452135D01*
X131899500Y-89547870D01*
X131899501Y-89547876D01*
X131905908Y-89607483D01*
X131956202Y-89742328D01*
X131956206Y-89742335D01*
X132042452Y-89857544D01*
X132042455Y-89857547D01*
X132157664Y-89943793D01*
X132157671Y-89943797D01*
X132292517Y-89994091D01*
X132292516Y-89994091D01*
X132299444Y-89994835D01*
X132352127Y-90000500D01*
X134447872Y-90000499D01*
X134507483Y-89994091D01*
X134642331Y-89943796D01*
X134757546Y-89857546D01*
X134843796Y-89742331D01*
X134894091Y-89607483D01*
X134900500Y-89547873D01*
X134900499Y-87452128D01*
X134894091Y-87392517D01*
X134843796Y-87257669D01*
X134843795Y-87257668D01*
X134843793Y-87257664D01*
X134757547Y-87142455D01*
X134757544Y-87142452D01*
X134642335Y-87056206D01*
X134642328Y-87056202D01*
X134507482Y-87005908D01*
X134507483Y-87005908D01*
X134447883Y-86999501D01*
X134447881Y-86999500D01*
X134447873Y-86999500D01*
X134447864Y-86999500D01*
X132352129Y-86999500D01*
X132352123Y-86999501D01*
X132292516Y-87005908D01*
X132157671Y-87056202D01*
X132157664Y-87056206D01*
X132042455Y-87142452D01*
X132042452Y-87142455D01*
X131956206Y-87257664D01*
X131956202Y-87257671D01*
X131905908Y-87392517D01*
X131899501Y-87452116D01*
X131899501Y-87452123D01*
X131899500Y-87452135D01*
X131508402Y-87452135D01*
X131505753Y-85624180D01*
X131525341Y-85557112D01*
X131578078Y-85511280D01*
X131629753Y-85500000D01*
X142376000Y-85500000D01*
X142443039Y-85519685D01*
G37*
%TD.AperFunction*%
%TD*%
M02*
